<svg width="63.000000" height="52.000000" viewBox="0 0 63 52" fill="none" xmlns="http://www.w3.org/2000/svg" xmlns:xlink="http://www.w3.org/1999/xlink">
	<desc>
			Created with Pixso.
	</desc>
	<defs/>
	<path d="M37.33 39.31C37.33 38.86 37.58 38.39 38.13 38.03C38.16 38.04 38.18 38.05 38.21 38.06C39.23 38.44 40.3 38.83 41.89 38C42.35 38.33 42.54 38.7 42.54 39.07C42.54 39.57 42.15 40.05 41.55 40.33C40.42 40.83 38.75 41.02 37.89 40.41C37.53 40.11 37.33 39.71 37.33 39.31ZM13.4 51.85C11.71 51.9 9.29 51.51 9.29 46.81C9.29 43 10.99 41.48 13.45 41.48C15.79 41.48 17.53 42.87 17.55 46.81C17.53 51.41 14.97 51.85 13.4 51.85ZM27.36 41.58C29.25 41.49 31.97 41.45 33.1 41.56C33.79 41.72 34.15 42.37 34.15 42.99C34.15 43.64 33.76 44.26 32.97 44.23C32.82 44.23 32.68 44.22 32.56 44.21C31.97 44.19 31.53 44.17 30.73 44.23L30.73 45.51C31.2 45.56 31.54 45.55 31.9 45.54C32.21 45.53 32.53 45.52 32.95 45.55C33.63 45.55 33.99 46.16 33.99 46.75C33.99 47.32 33.67 47.86 32.97 47.86C32.28 47.86 31.49 47.89 30.76 47.89C30.75 47.95 30.75 48.07 30.75 48.21C30.75 48.37 30.75 48.57 30.76 48.73C30.76 48.85 30.76 48.95 30.76 49.01C31.52 49.16 32.73 49.11 34.03 48.91C34.25 49.45 34.35 49.9 34.35 50.27C34.35 51.22 33.7 51.69 32.57 51.78C31.41 51.88 30.68 51.88 29.39 51.78C27.58 51.66 27.57 50.55 27.56 48.91C27.56 48.76 27.56 48.61 27.55 48.46C27.56 47.98 27.57 47.46 27.57 46.9C27.57 45.19 27.52 43.2 27.36 41.58ZM5.64 46.47C7.23 46.55 7.81 47.51 7.89 48.48C7.97 49.29 7.89 50.36 8.17 51.2C7.38 51.98 4.7 52.4 4.69 50.13C4.65 47.86 4.46 47.55 3.4 47.64C3.44 48.61 3.46 50.36 3.46 51.22C2.8 51.91 0.4 52.45 0.17 50.42C0.15 50.19 0.14 49.9 0.14 49.59C0.14 49.26 0.15 48.9 0.16 48.55C0.17 48.21 0.17 47.87 0.17 47.58C0.17 47.5 0.17 47.43 0.17 47.36C0.17 47.03 0.17 46.73 0.17 46.45C0.17 46.22 0.17 46.01 0.17 45.81C0.17 44.39 0.16 43.66 0 42C0.54 41.75 2.93 40.85 3.27 42.81C3.35 43.36 3.37 43.9 3.37 44.4L3.37 44.4C3.37 44.55 3.36 44.71 3.36 44.85C3.36 44.99 3.36 45.11 3.36 45.23C3.36 45.45 3.36 45.64 3.38 45.8C4.48 45.57 4.52 44.11 4.55 42.85C4.56 42.48 4.57 42.12 4.61 41.82C4.65 41.8 4.7 41.79 4.75 41.77C5.61 41.51 6.94 41.1 7.39 42.39C7.49 42.67 7.53 42.96 7.53 43.26C7.53 44.77 6.46 46.36 5.64 46.47ZM50.96 46.47C52.55 46.55 53.13 47.51 53.21 48.48C53.29 49.29 53.21 50.36 53.49 51.2C52.7 51.98 50.02 52.4 50.01 50.13C49.97 47.86 49.78 47.55 48.72 47.64C48.76 48.61 48.78 50.36 48.78 51.22C48.12 51.91 45.72 52.45 45.49 50.42C45.47 50.19 45.46 49.9 45.46 49.59C45.46 49.26 45.47 48.9 45.48 48.55C45.48 48.21 45.49 47.87 45.49 47.58C45.49 47.5 45.49 47.43 45.49 47.36C45.49 47.03 45.49 46.73 45.49 46.45C45.49 46.22 45.49 46.01 45.49 45.81C45.49 44.39 45.47 43.66 45.31 42C45.86 41.75 48.25 40.85 48.59 42.81C48.67 43.36 48.69 43.9 48.69 44.4C48.69 44.55 48.68 44.71 48.68 44.85C48.68 44.99 48.68 45.11 48.68 45.23C48.68 45.45 48.68 45.64 48.7 45.8C49.8 45.57 49.84 44.11 49.87 42.85C49.88 42.48 49.89 42.12 49.92 41.82C49.97 41.8 50.02 41.79 50.07 41.77C50.93 41.51 52.26 41.1 52.71 42.39C52.81 42.67 52.85 42.96 52.85 43.26C52.85 44.77 51.78 46.36 50.96 46.47ZM20.86 44.99C20.86 44.8 20.86 44.63 20.86 44.46L20.38 44.46C19.02 44.44 18.51 43.88 18.51 42.84C18.51 42.46 18.58 42.01 18.7 41.49C18.9 41.51 19.06 41.51 21.49 41.49L24.56 41.49C25.65 41.49 26.44 42.01 26.46 42.99C26.46 43 26.46 43.02 26.46 43.04C26.46 43.87 26.1 44.46 25.09 44.49C24.78 44.51 24.44 44.51 24.09 44.51C24.1 45.13 24.11 45.82 24.13 46.53C24.15 47.81 24.18 49.13 24.18 50.15C24.18 50.53 24.18 50.86 24.17 51.13C24.02 51.3 23.7 51.82 22.41 51.82C20.96 51.85 20.91 50.81 20.9 49.55C20.87 47.66 20.86 46.54 20.86 45.74C20.86 45.46 20.86 45.21 20.86 44.99ZM42.29 41.49C43.26 41.49 43.87 41.96 43.87 42.94C43.86 43.46 43.84 44.35 43.84 45.37C43.84 47.68 43.89 50.63 44.02 51.12C43.83 51.46 43.2 51.83 42.1 51.83C40.83 51.83 40.73 51.07 40.73 49.97C40.73 49.16 40.76 46.74 40.76 46.05C40.15 47.57 40 51.75 37.75 51.83C36.49 51.88 35.99 51.36 35.94 49.81C35.88 47.8 35.87 46.42 35.86 45.42C35.86 44.84 35.86 44.39 35.85 44.02C35.83 43.07 35.75 42.64 35.65 41.92C35.65 41.92 36.83 41.49 37.49 41.49C38.44 41.49 39 41.87 39 42.94C39 43.36 38.91 46.79 38.91 47.38C39.25 46.03 39.84 44.09 40.25 42.82C40.59 41.79 41.17 41.49 42.29 41.49ZM62.74 49.29C62.79 50.19 62.77 50.5 63 51.13C62.43 52.07 60.58 52.35 59.77 51.43C59.44 51.06 59.39 50.45 59.39 50.15C59.39 50.05 59.4 49.98 59.4 49.98C59.09 49.98 58.3 49.97 58.09 49.97C58.01 50.19 58.01 51.15 58.01 51.43C56.34 52.48 54.55 51.98 54.55 49.99C54.55 49.87 54.55 49.75 54.56 49.63C54.87 46.5 55.35 45.35 55.5 42.55C57.13 41.38 60.5 40.75 61.8 43.07C62.58 44.64 62.61 46.92 62.74 49.29ZM13.49 44.12C13.48 44.12 13.46 44.12 13.45 44.12C13.18 44.12 12.61 44.46 12.61 46.7C12.61 46.84 12.61 46.97 12.61 47.1C12.61 49.21 12.98 49.6 13.44 49.6C14.02 49.6 14.31 48.54 14.31 46.7C14.31 44.05 13.72 44.1 13.49 44.12ZM58.37 44.86C58.32 45.25 58.32 47.07 58.21 47.94L59.3 47.94C59.25 47.07 59.25 45.67 59.06 44.91C59 44.83 58.45 44.8 58.37 44.86Z" fill="#1A212F" fill-opacity="1.000000" fill-rule="evenodd"/>
	<path d="M39 6.99L45.57 0.41C46.47 -0.48 48 0.15 48 1.42L48 18.99C48 13.29 43.48 9.82 39 6.99Z" fill="#FF7236" fill-opacity="1.000000" fill-rule="nonzero"/>
	<path d="M48 18.99C48 27.83 40.83 34.99 32 34.99C23.16 34.99 16 27.83 16 18.99C16 10.15 23.16 3.99 32 3.99C40.83 3.99 48 10.15 48 18.99Z" fill="#FFAA50" fill-opacity="1.000000" fill-rule="nonzero"/>
	<path d="M25 18.99C25 11.29 29.42 5.62 35.31 4.29C34.24 4.1 33.13 3.99 32 3.99C29.05 3.99 26.3 4.69 23.93 5.93L18.42 0.41C17.52 -0.48 16 0.15 16 1.42L16 18.99C16 27.83 23.16 34.99 32 34.99C33.13 34.99 34.24 34.87 35.31 34.65C29.42 33.12 25 26.69 25 18.99Z" fill="#FF7236" fill-opacity="1.000000" fill-rule="nonzero"/>
	<path d="M31.99 25.99C31.99 27.65 30.43 28.99 28.5 28.99C26.56 28.99 25 27.65 25 25.99C25 24.34 26.56 22.99 28.5 22.99C30.43 22.99 31.99 24.34 31.99 25.99Z" fill="#FFFDFB" fill-opacity="1.000000" fill-rule="evenodd"/>
	<path d="M39 25.99C39 27.65 37.43 28.99 35.5 28.99C33.56 28.99 32 27.65 32 25.99C32 24.34 33.56 22.99 35.5 22.99C37.43 22.99 39 24.34 39 25.99Z" fill="#FFFDFB" fill-opacity="1.000000" fill-rule="evenodd"/>
	<path d="M34 23.99C34 25.1 33.1 25.99 32 25.99C30.89 25.99 30 25.1 30 23.99C30 22.89 30.89 21.99 32 21.99C33.1 21.99 34 22.89 34 23.99Z" fill="#FF913C" fill-opacity="1.000000" fill-rule="evenodd"/>
	<path d="M26 19.99C25.44 19.99 25 19.54 25 18.99L25 17.99C25 17.44 25.44 16.99 26 16.99C26.55 16.99 27 17.44 27 17.99L27 18.99C27 19.54 26.55 19.99 26 19.99Z" fill="#1A212F" fill-opacity="1.000000" fill-rule="nonzero"/>
	<path d="M38 19.99C37.44 19.99 37 19.54 37 18.99L37 17.99C37 17.44 37.44 16.99 38 16.99C38.55 16.99 39 17.44 39 17.99L39 18.99C39 19.54 38.55 19.99 38 19.99Z" fill="#1A212F" fill-opacity="1.000000" fill-rule="nonzero"/>
</svg>
