<svg width="23.919189" height="31.662109" viewBox="0 0 23.9192 31.6621" fill="none" xmlns="http://www.w3.org/2000/svg" xmlns:xlink="http://www.w3.org/1999/xlink">
	<desc>
			Created with Pixso.
	</desc>
	<defs/>
	<path id="Vector" d="M23.85 12.72C24.35 9.4 21.82 7.61 18.35 6.41L19.48 1.91L16.73 1.22L15.64 5.61C14.92 5.43 14.18 5.26 13.44 5.1L14.54 0.68L11.8 0L10.68 4.5C10.08 4.36 9.49 4.23 8.93 4.09L8.93 4.07L5.15 3.13L4.42 6.06C4.42 6.06 6.45 6.53 6.41 6.56C7.52 6.83 7.72 7.57 7.69 8.15L6.41 13.28C6.48 13.3 6.58 13.33 6.69 13.38C6.6 13.35 6.5 13.33 6.4 13.3L4.61 20.5C4.47 20.83 4.13 21.34 3.35 21.15C3.38 21.19 1.36 20.65 1.36 20.65L0 23.79L3.56 24.68C4.23 24.85 4.88 25.02 5.52 25.19L4.39 29.74L7.13 30.43L8.25 25.92C9 26.12 9.73 26.31 10.44 26.48L9.32 30.97L12.06 31.66L13.19 27.11C17.87 27.99 21.39 27.64 22.87 23.4C24.06 20 22.81 18.03 20.35 16.75C22.14 16.34 23.49 15.16 23.85 12.72L23.85 12.72L23.85 12.72ZM17.58 21.51C16.74 24.92 11 23.08 9.14 22.62L10.65 16.58C12.51 17.04 18.47 17.96 17.58 21.51L17.58 21.51ZM18.43 12.67C17.66 15.77 12.88 14.2 11.34 13.81L12.7 8.34C14.25 8.72 19.24 9.44 18.43 12.67L18.43 12.67Z" fill="#FFFFFF" fill-opacity="1.000000" fill-rule="nonzero"/>
</svg>
