<?xml version="1.0" encoding="UTF-8"?>
<svg xmlns="http://www.w3.org/2000/svg" xmlns:xlink="http://www.w3.org/1999/xlink" width="2880" height="1920" viewBox="0 0 2880 1920">
<path fill-rule="evenodd" fill="#2C9E4B" fill-opacity="1" d="M 1440.398438 1742.84375 L 1439.601562 1742.84375 C 1439.601562 1742.84375 1376.71875 1657.308594 1362.558594 1612.558594 C 1362.558594 1612.558594 1360.289062 1631.816406 1375.589844 1657.875 C 1375.589844 1657.875 1235.109375 1582.535156 1218.679688 1454.515625 C 1218.679688 1454.515625 1196.019531 1503.230469 1212.449219 1549.679688 C 1212.449219 1549.679688 1118.980469 1463.578125 1152.398438 1367.847656 C 1152.398438 1367.847656 1090.660156 1374.078125 1066.300781 1430.726562 C 1066.300781 1430.726562 1034.011719 1366.714844 1075.371094 1305.539062 C 1075.371094 1305.539062 1014.191406 1348.023438 1000.03125 1415.429688 C 1000.03125 1415.429688 966.039062 1353.121094 998.328125 1299.875 C 998.328125 1299.875 919.589844 1349.15625 908.828125 1457.914062 C 908.828125 1457.914062 815.929688 1272.117188 899.195312 1145.230469 C 899.195312 1145.230469 801.199219 1183.75 774.011719 1270.984375 C 774.011719 1270.984375 726.992188 1034.773438 877.671875 933.378906 C 877.671875 933.378906 796.667969 906.75 754.75 844.441406 C 754.75 844.441406 839.71875 879 921.289062 828.019531 C 921.289062 828.019531 840.851562 799.128906 825.558594 724.921875 C 825.558594 724.921875 902.597656 758.910156 951.3125 740.210938 C 951.3125 740.210938 875.972656 672.808594 912.792969 586.140625 C 912.792969 586.140625 919.023438 622.960938 955.277344 636.550781 C 955.277344 636.550781 878.804688 534.589844 962.074219 441.691406 C 962.074219 441.691406 958.675781 492.671875 997.195312 538.558594 C 997.195312 538.558594 922.421875 446.21875 1110.488281 177.160156 C 1110.488281 177.160156 1125.78125 290.449219 1162.03125 367.488281 C 1162.03125 367.488281 1158.628906 332.929688 1175.628906 312.539062 C 1175.628906 312.539062 1182.988281 365.789062 1237.371094 405.441406 C 1291.75 445.089844 1303.648438 483.039062 1301.378906 520.429688 C 1301.378906 520.429688 1379.230469 483.699219 1440 486.28125 C 1500.769531 483.699219 1578.621094 520.429688 1578.621094 520.429688 C 1576.351562 483.039062 1588.25 445.089844 1642.628906 405.441406 C 1697.011719 365.789062 1704.371094 312.539062 1704.371094 312.539062 C 1721.371094 332.929688 1717.96875 367.488281 1717.96875 367.488281 C 1754.21875 290.449219 1769.511719 177.160156 1769.511719 177.160156 C 1957.578125 446.21875 1882.808594 538.558594 1882.808594 538.558594 C 1921.328125 492.671875 1917.929688 441.691406 1917.929688 441.691406 C 2001.191406 534.589844 1924.71875 636.550781 1924.71875 636.550781 C 1960.980469 622.960938 1967.210938 586.140625 1967.210938 586.140625 C 2004.03125 672.808594 1928.691406 740.210938 1928.691406 740.210938 C 1977.398438 758.910156 2054.441406 724.921875 2054.441406 724.921875 C 2039.148438 799.128906 1958.710938 828.019531 1958.710938 828.019531 C 2040.28125 879 2125.25 844.441406 2125.25 844.441406 C 2083.328125 906.75 2002.328125 933.378906 2002.328125 933.378906 C 2153.011719 1034.773438 2105.988281 1270.984375 2105.988281 1270.984375 C 2078.800781 1183.75 1980.800781 1145.230469 1980.800781 1145.230469 C 2064.070312 1272.117188 1971.171875 1457.914062 1971.171875 1457.914062 C 1960.410156 1349.15625 1881.671875 1299.875 1881.671875 1299.875 C 1913.960938 1353.121094 1879.96875 1415.429688 1879.96875 1415.429688 C 1865.808594 1348.023438 1804.640625 1305.539062 1804.640625 1305.539062 C 1845.988281 1366.714844 1813.699219 1430.726562 1813.699219 1430.726562 C 1789.339844 1374.078125 1727.601562 1367.847656 1727.601562 1367.847656 C 1761.019531 1463.578125 1667.550781 1549.679688 1667.550781 1549.679688 C 1683.980469 1503.230469 1661.320312 1454.515625 1661.320312 1454.515625 C 1644.890625 1582.535156 1504.410156 1657.875 1504.410156 1657.875 C 1519.710938 1631.816406 1517.441406 1612.558594 1517.441406 1612.558594 C 1503.28125 1657.308594 1440.398438 1742.84375 1440.398438 1742.84375 Z M 1440 1590.953125 C 1449.878906 1585.691406 1473.941406 1571.050781 1498 1542.5625 C 1529.339844 1505.449219 1516.96875 1472.460938 1516.96875 1472.460938 C 1542.941406 1477.410156 1556.140625 1525.117188 1556.140625 1525.117188 C 1626.238281 1435.507812 1604.800781 1362.648438 1604.800781 1362.648438 C 1603.96875 1431.796875 1548.308594 1451.019531 1515.320312 1462.5625 C 1489.550781 1471.582031 1454.238281 1472.550781 1440 1472.542969 C 1425.769531 1472.550781 1390.449219 1471.582031 1364.679688 1462.5625 C 1331.691406 1451.019531 1276.03125 1431.796875 1275.199219 1362.648438 C 1275.199219 1362.648438 1253.761719 1435.507812 1323.859375 1525.117188 C 1323.859375 1525.117188 1337.058594 1477.410156 1363.03125 1472.460938 C 1363.03125 1472.460938 1350.660156 1505.449219 1382 1542.5625 C 1406.058594 1571.050781 1430.121094 1585.691406 1440 1590.953125 Z M 1440.371094 1455.765625 C 1491.710938 1456.042969 1549.710938 1436.808594 1558.199219 1429.863281 C 1567.269531 1422.4375 1561.910156 1408.832031 1557.789062 1404.296875 C 1553.671875 1399.757812 1523.980469 1413.78125 1523.980469 1413.78125 C 1503.460938 1428.476562 1460.679688 1429.304688 1440 1428.757812 C 1419.320312 1429.304688 1376.539062 1428.476562 1356.019531 1413.78125 C 1356.019531 1413.78125 1326.328125 1399.757812 1322.210938 1404.296875 C 1318.089844 1408.832031 1312.730469 1422.4375 1321.800781 1429.863281 C 1330.289062 1436.808594 1388.289062 1456.042969 1439.628906 1455.765625 L 1439.628906 1455.761719 L 1440 1455.765625 L 1440.371094 1455.761719 Z M 1410.929688 1379.890625 C 1410.929688 1379.890625 1398.371094 1402.410156 1407.230469 1420.128906 L 1430.121094 1421.605469 C 1430.121094 1421.605469 1412.769531 1402.039062 1410.929688 1379.890625 Z M 1469.070312 1379.890625 C 1469.070312 1379.890625 1481.628906 1402.410156 1472.769531 1420.128906 L 1449.878906 1421.605469 C 1449.878906 1421.605469 1467.230469 1402.039062 1469.070312 1379.890625 Z M 1379.179688 1363.648438 C 1379.179688 1363.648438 1362.191406 1385.058594 1366.261719 1404.992188 C 1366.261719 1404.992188 1376.589844 1413.117188 1398.011719 1418.652344 C 1398.011719 1418.652344 1376.21875 1386.164062 1379.179688 1363.648438 Z M 1500.820312 1363.648438 C 1500.820312 1363.648438 1517.808594 1385.058594 1513.738281 1404.992188 C 1513.738281 1404.992188 1503.410156 1413.117188 1481.988281 1418.652344 C 1481.988281 1418.652344 1503.78125 1386.164062 1500.820312 1363.648438 Z M 1539.960938 1321.191406 C 1539.960938 1321.191406 1559.148438 1343.710938 1566.539062 1366.601562 C 1566.539062 1366.601562 1561.371094 1396.503906 1529.621094 1399.824219 C 1529.621094 1399.824219 1552.878906 1362.539062 1539.960938 1321.191406 Z M 1340.039062 1321.191406 C 1340.039062 1321.191406 1320.851562 1343.710938 1313.460938 1366.601562 C 1313.460938 1366.601562 1318.628906 1396.503906 1350.378906 1399.824219 C 1350.378906 1399.824219 1327.121094 1362.539062 1340.039062 1321.191406 Z M 1440 1036.265625 C 1441.679688 1035.890625 1443.679688 1034.945312 1445.980469 1033.054688 C 1454.140625 1026.324219 1496.898438 996.058594 1520.929688 1011.914062 C 1544.949219 1027.769531 1547.828125 1106.5625 1486.808594 1106.082031 C 1486.808594 1106.082031 1480.570312 1108.484375 1481.53125 1116.652344 C 1482.488281 1124.820312 1488.261719 1150.761719 1459.429688 1156.046875 C 1459.429688 1156.046875 1482.96875 1180.550781 1512.28125 1182.953125 C 1541.589844 1185.355469 1588.671875 1142.59375 1587.230469 1097.914062 C 1585.789062 1053.230469 1585.789062 1005.1875 1514.199219 965.308594 C 1514.199219 965.308594 1557.921875 968.671875 1580.5 1001.34375 C 1580.5 1001.34375 1580.5 969.632812 1545.910156 936.003906 C 1545.910156 936.003906 1608.371094 968.671875 1623.261719 1058.515625 C 1623.261719 1058.515625 1638.160156 1042.179688 1653.050781 1032.570312 C 1653.050781 1032.570312 1648.730469 1053.230469 1644.878906 1080.136719 C 1641.039062 1107.042969 1613.648438 1128.183594 1613.648438 1169.980469 C 1613.648438 1211.78125 1639.121094 1249.253906 1640.078125 1294.417969 C 1640.078125 1294.417969 1658.808594 1252.617188 1642 1208.417969 C 1642 1208.417969 1693.890625 1241.085938 1725.121094 1292.976562 C 1725.121094 1292.976562 1708.78125 1221.390625 1667.460938 1186.796875 C 1667.460938 1186.796875 1748.179688 1189.679688 1798.140625 1248.773438 C 1798.140625 1248.773438 1764.511719 1166.136719 1703.019531 1135.867188 C 1703.019531 1135.867188 1837.058594 1138.753906 1932.191406 1244.929688 C 1932.191406 1244.929688 1931.230469 1112.328125 1777.488281 1046.023438 C 1777.488281 1046.023438 1912.011719 973.476562 2029.71875 1083.980469 C 2029.71875 1083.980469 2011.949219 968.191406 1872.140625 919.671875 C 1872.140625 919.671875 1909.609375 879.789062 1972.550781 886.511719 C 1972.550781 886.511719 1928.351562 842.308594 1890.390625 838.46875 C 1852.441406 834.628906 1826.488281 838.46875 1826.488281 838.46875 C 1826.488281 838.46875 1893.761719 811.078125 1916.339844 782.738281 C 1916.339844 782.738281 1857.238281 784.179688 1818.320312 753.910156 C 1779.410156 723.640625 1719.351562 666.949219 1615.089844 677.519531 C 1615.089844 677.519531 1665.539062 638.121094 1721.75 641.96875 C 1721.75 641.96875 1697.25 625.628906 1687.640625 606.890625 C 1687.640625 606.890625 1763.550781 562.210938 1775.078125 479.570312 C 1775.078125 479.570312 1822.878906 504.640625 1835.980469 579.789062 C 1835.980469 579.789062 1867.050781 497.101562 1784.828125 365.660156 C 1784.828125 365.660156 1730.339844 466.988281 1666.300781 519.570312 C 1666.300781 519.570312 1647.648438 498.058594 1662.46875 466.511719 C 1662.46875 466.511719 1632.839844 475.589844 1627.578125 509.53125 C 1622.320312 543.460938 1629.488281 566.410156 1629.488281 566.410156 C 1629.488281 566.410156 1549.601562 546.878906 1442.828125 548.019531 L 1442.828125 548.101562 C 1441.890625 548.089844 1440.949219 548.070312 1440 548.058594 C 1439.050781 548.070312 1438.109375 548.089844 1437.171875 548.101562 L 1437.171875 548.019531 C 1330.398438 546.878906 1250.511719 566.410156 1250.511719 566.410156 C 1250.511719 566.410156 1257.679688 543.460938 1252.421875 509.53125 C 1247.160156 475.589844 1217.53125 466.511719 1217.53125 466.511719 C 1232.351562 498.058594 1213.699219 519.570312 1213.699219 519.570312 C 1149.660156 466.988281 1095.171875 365.660156 1095.171875 365.660156 C 1012.949219 497.101562 1044.019531 579.789062 1044.019531 579.789062 C 1057.121094 504.640625 1104.921875 479.570312 1104.921875 479.570312 C 1116.449219 562.210938 1192.359375 606.890625 1192.359375 606.890625 C 1182.75 625.628906 1158.25 641.96875 1158.25 641.96875 C 1214.460938 638.121094 1264.910156 677.519531 1264.910156 677.519531 C 1160.648438 666.949219 1100.589844 723.640625 1061.679688 753.910156 C 1022.761719 784.179688 963.664062 782.738281 963.664062 782.738281 C 986.246094 811.078125 1053.511719 838.46875 1053.511719 838.46875 C 1053.511719 838.46875 1027.558594 834.628906 989.609375 838.46875 C 951.652344 842.308594 907.449219 886.511719 907.449219 886.511719 C 970.390625 879.789062 1007.871094 919.671875 1007.871094 919.671875 C 868.054688 968.191406 850.277344 1083.980469 850.277344 1083.980469 C 967.988281 973.476562 1102.511719 1046.023438 1102.511719 1046.023438 C 948.769531 1112.328125 947.808594 1244.929688 947.808594 1244.929688 C 1042.941406 1138.753906 1176.980469 1135.867188 1176.980469 1135.867188 C 1115.488281 1166.136719 1081.859375 1248.773438 1081.859375 1248.773438 C 1131.820312 1189.679688 1212.539062 1186.796875 1212.539062 1186.796875 C 1171.21875 1221.390625 1154.878906 1292.976562 1154.878906 1292.976562 C 1186.109375 1241.085938 1238 1208.417969 1238 1208.417969 C 1221.191406 1252.617188 1239.921875 1294.417969 1239.921875 1294.417969 C 1240.878906 1249.253906 1266.351562 1211.78125 1266.351562 1169.980469 C 1266.351562 1128.183594 1238.960938 1107.042969 1235.121094 1080.136719 C 1231.28125 1053.230469 1226.949219 1032.570312 1226.949219 1032.570312 C 1241.839844 1042.179688 1256.738281 1058.515625 1256.738281 1058.515625 C 1271.628906 968.671875 1334.089844 936.003906 1334.089844 936.003906 C 1299.5 969.632812 1299.5 1001.34375 1299.5 1001.34375 C 1322.078125 968.671875 1365.800781 965.308594 1365.800781 965.308594 C 1294.210938 1005.1875 1294.210938 1053.230469 1292.769531 1097.914062 C 1291.328125 1142.59375 1338.421875 1185.355469 1367.71875 1182.953125 C 1397.03125 1180.550781 1420.570312 1156.046875 1420.570312 1156.046875 C 1391.738281 1150.761719 1397.511719 1124.820312 1398.46875 1116.652344 C 1399.429688 1108.484375 1393.191406 1106.082031 1393.191406 1106.082031 C 1332.171875 1106.5625 1335.050781 1027.769531 1359.070312 1011.914062 C 1383.101562 996.058594 1425.859375 1026.324219 1434.03125 1033.054688 C 1436.328125 1034.945312 1438.320312 1035.890625 1440 1036.265625 Z M 1576.5 1183.492188 C 1576.5 1183.492188 1555.089844 1200.472656 1538.480469 1203.796875 C 1538.480469 1203.796875 1558.410156 1238.128906 1554.351562 1269.140625 C 1554.351562 1269.140625 1589.421875 1232.222656 1576.5 1183.492188 Z M 1303.5 1183.492188 C 1303.5 1183.492188 1324.910156 1200.472656 1341.519531 1203.796875 C 1341.519531 1203.796875 1321.589844 1238.128906 1325.648438 1269.140625 C 1325.648438 1269.140625 1290.578125 1232.222656 1303.5 1183.492188 Z M 1358.128906 1207.855469 C 1358.128906 1207.855469 1352.601562 1237.019531 1366.261719 1258.433594 C 1366.261719 1258.433594 1370.691406 1231.484375 1388.78125 1208.226562 C 1388.78125 1208.226562 1365.148438 1204.902344 1358.128906 1207.855469 Z M 1521.871094 1207.855469 C 1521.871094 1207.855469 1527.398438 1237.019531 1513.738281 1258.433594 C 1513.738281 1258.433594 1509.308594 1231.484375 1491.230469 1208.226562 C 1491.230469 1208.226562 1514.851562 1204.902344 1521.871094 1207.855469 Z M 1486.789062 1207.488281 C 1486.789062 1207.488281 1477.929688 1231.484375 1462.800781 1247.726562 C 1462.800781 1247.726562 1459.839844 1218.5625 1451.351562 1195.675781 C 1451.351562 1195.675781 1475.351562 1207.488281 1486.789062 1207.488281 Z M 1393.210938 1207.488281 C 1393.210938 1207.488281 1402.070312 1231.484375 1417.199219 1247.726562 C 1417.199219 1247.726562 1420.160156 1218.5625 1428.648438 1195.675781 C 1428.648438 1195.675781 1404.648438 1207.488281 1393.210938 1207.488281 Z M 1734.289062 796.398438 C 1734.289062 796.398438 1798.839844 837.171875 1818.550781 849.398438 C 1838.25 861.628906 1864.070312 873.859375 1864.070312 873.859375 L 1813.109375 867.070312 C 1813.109375 867.070312 1855.921875 930.265625 1864.75 948.609375 C 1873.589844 966.957031 1898.050781 996.855469 1898.050781 996.855469 C 1898.050781 996.855469 1843.691406 979.1875 1807.671875 971.714844 L 1832.140625 1005.011719 C 1832.140625 1005.011719 1785.929688 1009.085938 1746.519531 1036.265625 C 1746.519531 1036.265625 1777.089844 1056.652344 1790.691406 1098.101562 C 1790.691406 1098.101562 1699.628906 1067.523438 1650.03125 1110.335938 C 1650.03125 1110.335938 1679.929688 1064.808594 1710.5 1049.859375 C 1710.5 1049.859375 1695.550781 1021.316406 1666.339844 1019.28125 C 1666.339844 1019.28125 1717.980469 981.90625 1756.710938 979.867188 L 1707.789062 952.007812 C 1707.789062 952.007812 1759.429688 930.265625 1797.480469 931.621094 L 1713.898438 858.910156 L 1770.980469 840.570312 Z M 1145.710938 796.398438 C 1145.710938 796.398438 1081.160156 837.171875 1061.449219 849.398438 C 1041.75 861.628906 1015.929688 873.859375 1015.929688 873.859375 L 1066.890625 867.070312 C 1066.890625 867.070312 1024.078125 930.265625 1015.25 948.609375 C 1006.410156 966.957031 981.953125 996.855469 981.953125 996.855469 C 981.953125 996.855469 1036.308594 979.1875 1072.328125 971.714844 L 1047.859375 1005.011719 C 1047.859375 1005.011719 1094.070312 1009.085938 1133.480469 1036.265625 C 1133.480469 1036.265625 1102.910156 1056.652344 1089.308594 1098.101562 C 1089.308594 1098.101562 1180.371094 1067.523438 1229.96875 1110.335938 C 1229.96875 1110.335938 1200.078125 1064.808594 1169.5 1049.859375 C 1169.5 1049.859375 1184.449219 1021.316406 1213.671875 1019.28125 C 1213.671875 1019.28125 1162.019531 981.90625 1123.289062 979.867188 L 1172.210938 952.007812 C 1172.210938 952.007812 1120.570312 930.265625 1082.519531 931.621094 L 1166.101562 858.910156 L 1109.019531 840.570312 Z M 1441.898438 890.929688 C 1458.699219 892.691406 1485.589844 898.820312 1507.46875 919.191406 C 1507.46875 919.191406 1474.980469 910.820312 1441.839844 913.570312 L 1441.839844 913.929688 C 1441.230469 913.859375 1440.621094 913.800781 1440 913.738281 C 1439.378906 913.800781 1438.769531 913.859375 1438.160156 913.929688 L 1438.160156 913.570312 C 1405.019531 910.820312 1372.53125 919.191406 1372.53125 919.191406 C 1394.410156 898.820312 1421.300781 892.691406 1438.101562 890.929688 L 1438.101562 890.578125 C 1438.621094 890.621094 1439.140625 890.671875 1439.660156 890.710938 L 1440 890.738281 C 1440.648438 890.679688 1441.289062 890.628906 1441.898438 890.578125 Z M 1442.128906 805.289062 C 1443.140625 806.011719 1444.238281 806.539062 1445.46875 806.828125 C 1459.328125 810.179688 1467.460938 773.851562 1511.429688 748.519531 C 1511.429688 748.519531 1494.699219 770.980469 1489.921875 788.671875 C 1485.140625 806.351562 1489.441406 818.300781 1503.300781 826.910156 C 1517.171875 835.511719 1569.738281 734.179688 1674.421875 724.621094 C 1674.421875 724.621094 1651.960938 735.609375 1637.140625 759.988281 C 1637.140625 759.988281 1683.980469 740.871094 1734.648438 779.589844 C 1734.648438 779.589844 1714.089844 772.890625 1690.671875 777.671875 C 1690.671875 777.671875 1726.519531 818.78125 1686.851562 876.621094 C 1686.851562 876.621094 1691.628906 861.800781 1687.808594 846.03125 C 1687.808594 846.03125 1666.300781 888.089844 1614.671875 895.261719 C 1614.671875 895.261719 1637.621094 905.289062 1660.558594 900.039062 C 1660.558594 900.039062 1610.851562 922.023438 1561.621094 892.390625 C 1522.71875 868.980469 1484.199219 846.800781 1442.011719 851.078125 L 1442.011719 851.570312 C 1441.339844 851.480469 1440.671875 851.390625 1440 851.308594 C 1439.328125 851.390625 1438.660156 851.480469 1437.988281 851.570312 L 1437.988281 851.078125 C 1395.800781 846.800781 1357.28125 868.980469 1318.378906 892.390625 C 1269.148438 922.023438 1219.441406 900.039062 1219.441406 900.039062 C 1242.378906 905.289062 1265.328125 895.261719 1265.328125 895.261719 C 1213.699219 888.089844 1192.191406 846.03125 1192.191406 846.03125 C 1188.371094 861.800781 1193.148438 876.621094 1193.148438 876.621094 C 1153.480469 818.78125 1189.328125 777.671875 1189.328125 777.671875 C 1165.910156 772.890625 1145.351562 779.589844 1145.351562 779.589844 C 1196.019531 740.871094 1242.859375 759.988281 1242.859375 759.988281 C 1228.039062 735.609375 1205.578125 724.621094 1205.578125 724.621094 C 1310.261719 734.179688 1362.828125 835.511719 1376.699219 826.910156 C 1390.558594 818.300781 1394.859375 806.351562 1390.078125 788.671875 C 1385.300781 770.980469 1368.570312 748.519531 1368.570312 748.519531 C 1412.539062 773.851562 1420.671875 810.179688 1434.53125 806.828125 C 1435.761719 806.539062 1436.859375 806.011719 1437.871094 805.289062 L 1437.851562 800.210938 C 1438.488281 801.359375 1439.199219 802.421875 1440 803.328125 C 1440.800781 802.421875 1441.511719 801.359375 1442.148438 800.210938 Z M 1441.96875 865.828125 C 1452.558594 867.78125 1469.039062 872.300781 1482.96875 882.671875 C 1482.96875 882.671875 1461.050781 877.800781 1441.929688 879.449219 L 1441.929688 879.878906 C 1441.289062 879.789062 1440.648438 879.710938 1440 879.640625 C 1439.351562 879.710938 1438.710938 879.789062 1438.070312 879.878906 L 1438.070312 879.449219 C 1418.949219 877.800781 1397.03125 882.671875 1397.03125 882.671875 C 1410.960938 872.300781 1427.441406 867.78125 1438.03125 865.828125 L 1438.03125 865.179688 C 1438.519531 865.261719 1439.011719 865.328125 1439.5 865.410156 L 1440 865.488281 C 1440.691406 865.378906 1441.351562 865.269531 1441.96875 865.179688 Z M 1219.339844 786.859375 C 1219.339844 786.859375 1248.46875 802.929688 1271.910156 820.679688 C 1295.351562 838.429688 1309.75 860.199219 1309.75 860.199219 C 1309.75 860.199219 1293.011719 883.300781 1285.980469 880.289062 C 1278.941406 877.269531 1230.71875 867.230469 1217.988281 852.160156 C 1205.269531 837.089844 1192.878906 826.039062 1219.339844 786.859375 Z M 1660.671875 786.859375 C 1660.671875 786.859375 1631.53125 802.929688 1608.089844 820.679688 C 1584.648438 838.429688 1570.25 860.199219 1570.25 860.199219 C 1570.25 860.199219 1586.988281 883.300781 1594.03125 880.289062 C 1601.058594 877.269531 1649.28125 867.230469 1662.011719 852.160156 C 1674.730469 837.089844 1687.121094 826.039062 1660.671875 786.859375 Z M 1440.808594 698.011719 C 1446.089844 695.199219 1485.789062 674.71875 1539.148438 665.828125 C 1539.148438 665.828125 1470.859375 720.679688 1442.269531 756.28125 L 1442.25 762.210938 C 1441.539062 761.21875 1440.789062 760.199219 1440 759.171875 C 1439.210938 760.199219 1438.460938 761.21875 1437.75 762.210938 L 1437.730469 756.28125 C 1409.140625 720.679688 1340.851562 665.828125 1340.851562 665.828125 C 1394.210938 674.71875 1433.921875 695.199219 1439.191406 698.011719 L 1440 698.261719 Z M 1442.699219 597.058594 L 1445.46875 597.480469 C 1445.46875 597.480469 1509.039062 574.53125 1573.089844 599.871094 C 1573.089844 599.871094 1489.308594 637.550781 1442.519531 661.519531 L 1442.519531 664.121094 C 1441.691406 663.691406 1440.851562 663.261719 1440 662.808594 C 1439.148438 663.261719 1438.308594 663.691406 1437.488281 664.121094 L 1437.480469 661.519531 C 1390.691406 637.550781 1306.910156 599.871094 1306.910156 599.871094 C 1370.960938 574.53125 1434.53125 597.480469 1434.53125 597.480469 L 1437.300781 597.058594 L 1437.300781 596.25 L 1440 596.660156 L 1442.699219 596.25 L 1442.699219 597.058594 "/>
</svg>
