<svg width="63.908081" height="25.999268" viewBox="0 0 63.9081 25.9993" fill="none" xmlns="http://www.w3.org/2000/svg" xmlns:xlink="http://www.w3.org/1999/xlink">
	<desc>
			Created with Pixso.
	</desc>
	<defs>
		<linearGradient x1="5.032626" y1="12.303223" x2="5.032626" y2="21.810665" id="paint_linear_1305_4175_0" gradientUnits="userSpaceOnUse">
			<stop stop-color="#F6566B"/>
			<stop offset="1.000000" stop-color="#DC3B50"/>
		</linearGradient>
		<linearGradient x1="14.472171" y1="13.239746" x2="14.472171" y2="3.815307" id="paint_linear_1305_4176_0" gradientUnits="userSpaceOnUse">
			<stop stop-color="#B9F70A"/>
			<stop offset="1.000000" stop-color="#8BAF26"/>
		</linearGradient>
	</defs>
	<path id="o" d="M29.04 25.99C27.08 25.99 25.42 25.57 24.04 24.71C22.67 23.86 21.62 22.72 20.89 21.29C20.17 19.86 19.81 18.28 19.81 16.56C19.81 14.84 20.17 13.26 20.89 11.82C21.62 10.38 22.67 9.23 24.04 8.38C25.42 7.51 27.08 7.08 29.04 7.08C30.98 7.08 32.64 7.51 34.02 8.38C35.4 9.23 36.45 10.38 37.17 11.82C37.9 13.26 38.27 14.84 38.27 16.56C38.27 18.28 37.9 19.86 37.17 21.29C36.45 22.72 35.4 23.86 34.02 24.71C32.64 25.57 30.98 25.99 29.04 25.99ZM29.04 22.55C30.65 22.55 31.89 22.01 32.75 20.92C33.63 19.82 34.07 18.37 34.07 16.56C34.07 14.73 33.63 13.27 32.75 12.17C31.89 11.07 30.65 10.52 29.04 10.52C27.43 10.52 26.18 11.07 25.3 12.17C24.42 13.27 23.98 14.73 23.98 16.56C23.98 18.37 24.42 19.82 25.3 20.92C26.18 22.01 27.43 22.55 29.04 22.55Z" fill="#FFFFFF" fill-opacity="1.000000" fill-rule="nonzero"/>
	<path id="r" d="M40.83 25.01L40.83 8.06C40.83 7.72 41.11 7.44 41.45 7.44L43.97 7.44C44.28 7.44 44.55 7.69 44.58 8.01L44.73 9.77C45.37 9.02 46.1 8.39 46.95 7.87C47.79 7.34 48.7 7.08 49.68 7.08C49.78 7.08 49.88 7.08 49.98 7.09C50.28 7.11 50.48 7.39 50.46 7.69L50.23 10.62C50.2 10.99 49.84 11.24 49.47 11.22C49.24 11.19 49 11.18 48.76 11.18C47.93 11.18 47.17 11.37 46.47 11.75C45.78 12.13 45.29 12.57 45.01 13.07L45.01 25.01C45.01 25.35 44.73 25.63 44.39 25.63L41.45 25.63C41.11 25.63 40.83 25.35 40.83 25.01Z" fill="#FFFFFF" fill-opacity="1.000000" fill-rule="nonzero"/>
	<path id="t" d="M60.37 25.99C59.22 25.99 58.29 25.77 57.59 25.32C56.88 24.86 56.36 24.29 56.03 23.59C55.7 22.89 55.53 22.15 55.53 21.38L55.53 11.37C55.53 11.03 55.26 10.76 54.92 10.76L53.44 10.76C53.07 10.76 52.79 10.44 52.83 10.07L53.06 7.99C53.09 7.68 53.35 7.44 53.67 7.44L54.92 7.44C55.26 7.44 55.53 7.17 55.53 6.83L55.53 3.82C55.53 3.51 55.77 3.24 56.09 3.21L58.94 2.92C59.3 2.88 59.62 3.16 59.62 3.53L59.62 6.83C59.62 7.17 59.89 7.44 60.23 7.44L63.29 7.44C63.63 7.44 63.9 7.72 63.9 8.06L63.9 10.14C63.9 10.48 63.63 10.76 63.29 10.76L60.23 10.76C59.89 10.76 59.62 11.03 59.62 11.37L59.62 19.46C59.62 20.47 59.68 21.2 59.8 21.65C59.92 22.09 60.2 22.37 60.64 22.5C61.08 22.61 61.79 22.66 62.77 22.66L63.18 22.66C63.55 22.66 63.83 22.98 63.8 23.34L63.58 25.44C63.54 25.75 63.28 25.99 62.96 25.99L60.37 25.99Z" fill="#FFFFFF" fill-opacity="1.000000" fill-rule="nonzero"/>
	<path id="Vector 6" d="M19.32 22.42L19.32 25.01C19.32 25.35 19.05 25.62 18.71 25.62L1.07 25.62C0.59 25.62 0.3 25.11 0.54 24.7L2.24 21.81L18.71 21.81C19.05 21.81 19.32 22.08 19.32 22.42Z" fill="#F6566B" fill-opacity="1.000000" fill-rule="evenodd"/>
	<path id="Vector 7" d="M1.45 3.2L1.45 0.61C1.45 0.27 1.72 0 2.06 0L18.44 0C18.91 0 19.21 0.51 18.97 0.92L17.27 3.81L2.06 3.81C1.72 3.81 1.45 3.54 1.45 3.2Z" fill="#B9F70A" fill-opacity="1.000000" fill-rule="evenodd"/>
	<path id="Rectangle 86" d="M7.82 12.3L6.61 21.81L2.24 21.81L7.82 12.3Z" fill="url(#paint_linear_1305_4175_0)" fill-opacity="1.000000" fill-rule="nonzero"/>
	<path id="Rectangle 87" d="M11.67 13.23L12.89 3.81L17.26 3.81L11.67 13.23Z" fill="url(#paint_linear_1305_4176_0)" fill-opacity="1.000000" fill-rule="nonzero"/>
</svg>
