<svg width="90.000610" height="36.615234" viewBox="0 0 90.0006 36.6152" fill="none" xmlns="http://www.w3.org/2000/svg" xmlns:xlink="http://www.w3.org/1999/xlink">
	<desc>
			Created with Pixso.
	</desc>
	<defs>
		<linearGradient x1="7.088766" y1="17.326660" x2="7.088766" y2="30.715950" id="paint_linear_1305_3704_0" gradientUnits="userSpaceOnUse">
			<stop stop-color="#F6566B"/>
			<stop offset="1.000000" stop-color="#DC3B50"/>
		</linearGradient>
		<linearGradient x1="20.380444" y1="18.647459" x2="20.380444" y2="5.375060" id="paint_linear_1305_3705_0" gradientUnits="userSpaceOnUse">
			<stop stop-color="#B9F70A"/>
			<stop offset="1.000000" stop-color="#8BAF26"/>
		</linearGradient>
	</defs>
	<path id="o" d="M40.89 36.61C38.14 36.61 35.79 36.01 33.85 34.8C31.93 33.6 30.45 31.99 29.42 29.98C28.4 27.97 27.89 25.75 27.89 23.33C27.89 20.9 28.4 18.68 29.42 16.65C30.45 14.62 31.93 13 33.85 11.8C35.79 10.58 38.14 9.97 40.89 9.97C43.62 9.97 45.96 10.58 47.91 11.8C49.85 13 51.33 14.62 52.34 16.65C53.37 18.68 53.89 20.9 53.89 23.33C53.89 25.75 53.37 27.97 52.34 29.98C51.33 31.99 49.85 33.6 47.91 34.8C45.96 36.01 43.62 36.61 40.89 36.61ZM40.89 31.76C43.16 31.76 44.91 31 46.13 29.47C47.36 27.92 47.98 25.87 47.98 23.33C47.98 20.75 47.36 18.69 46.13 17.14C44.91 15.59 43.16 14.82 40.89 14.82C38.62 14.82 36.87 15.59 35.63 17.14C34.39 18.69 33.77 20.75 33.77 23.33C33.77 25.87 34.39 27.92 35.63 29.47C36.87 31 38.62 31.76 40.89 31.76Z" fill="#FFFFFF" fill-opacity="1.000000" fill-rule="nonzero"/>
	<path id="r" d="M57.5 36.09L57.5 10.49L62.71 10.49L63 13.76C63.89 12.71 64.93 11.82 66.12 11.08C67.3 10.34 68.59 9.97 69.96 9.97C70.37 9.97 70.76 10.01 71.12 10.1L70.66 15.95C70.33 15.87 70 15.82 69.68 15.8C69.35 15.76 69.02 15.75 68.67 15.75C67.5 15.75 66.43 16.01 65.45 16.55C64.47 17.08 63.78 17.7 63.38 18.4L63.38 36.09L57.5 36.09Z" fill="#FFFFFF" fill-opacity="1.000000" fill-rule="nonzero"/>
	<path id="t" d="M85.02 36.61C83.4 36.61 82.1 36.29 81.1 35.66C80.1 35.02 79.37 34.21 78.91 33.23C78.44 32.23 78.21 31.19 78.21 30.11L78.21 15.15L74.29 15.15L74.81 10.48L78.21 10.48L78.21 4.6L83.96 4.01L83.96 10.48L90 10.48L90 15.15L83.96 15.15L83.96 27.4C83.96 28.83 84.05 29.86 84.22 30.5C84.39 31.12 84.79 31.51 85.41 31.68C86.02 31.84 87.02 31.92 88.4 31.92L89.94 31.92L89.45 36.61L85.02 36.61Z" fill="#FFFFFF" fill-opacity="1.000000" fill-rule="nonzero"/>
	<path id="Vector 6" d="M27.21 30.71L27.21 36.09L0 36.09L3.15 30.71L27.21 30.71Z" fill="#F6566B" fill-opacity="1.000000" fill-rule="evenodd"/>
	<path id="Vector 7" d="M2.04 5.37L2.04 0L27.48 0L24.33 5.37L2.04 5.37Z" fill="#B9F70A" fill-opacity="1.000000" fill-rule="evenodd"/>
	<path id="Rectangle 86" d="M11.02 17.32L9.31 30.71L3.15 30.71L11.02 17.32Z" fill="url(#paint_linear_1305_3704_0)" fill-opacity="1.000000" fill-rule="nonzero"/>
	<path id="Rectangle 87" d="M16.44 18.64L18.15 5.37L24.31 5.37L16.44 18.64Z" fill="url(#paint_linear_1305_3705_0)" fill-opacity="1.000000" fill-rule="nonzero"/>
</svg>
