<svg width="96.266052" height="39.653320" viewBox="0 0 96.2661 39.6533" fill="none" xmlns="http://www.w3.org/2000/svg" xmlns:xlink="http://www.w3.org/1999/xlink">
	<desc>
			Created with Pixso.
	</desc>
	<defs/>
	<path id="Hutly" d="M61.28 28.23C61.28 29.47 60.27 30.48 59.03 30.48C57.79 30.48 56.79 29.47 56.79 28.23L56.79 15.93L52.77 15.93L52.77 28.21C52.77 29.46 51.76 30.48 50.51 30.48C49.26 30.48 48.25 29.46 48.25 28.21L48.25 15.93L46.61 15.93C45.57 15.93 44.72 15.08 44.72 14.04C44.72 12.99 45.57 12.15 46.61 12.15L48.25 12.15L48.25 8.7C48.25 7.45 49.26 6.43 50.51 6.43C51.76 6.43 52.77 7.45 52.77 8.7L52.77 12.15L56.79 12.15L56.79 5.12C56.79 3.87 57.79 2.87 59.03 2.87C60.27 2.87 61.28 3.87 61.28 5.12L61.28 28.23ZM5.01 28.1C5.01 29.41 3.95 30.48 2.63 30.48C1.32 30.48 0.26 29.41 0.26 28.1L0.26 5.73C0.26 4.42 1.32 3.35 2.63 3.35C3.95 3.35 5.01 4.42 5.01 5.73L5.01 14.56L17.03 14.56L17.03 5.73C17.03 4.42 18.1 3.35 19.41 3.35C20.72 3.35 21.78 4.42 21.78 5.73L21.78 28.1C21.78 29.41 20.72 30.48 19.41 30.48C18.1 30.48 17.03 29.41 17.03 28.1L17.03 18.97L5.01 18.97L5.01 28.1ZM38.45 14.41C38.45 13.16 39.46 12.15 40.71 12.15C41.96 12.15 42.98 13.16 42.98 14.41L42.98 28.24C42.98 29.48 41.97 30.48 40.74 30.48C39.62 30.48 38.67 29.65 38.52 28.54L38.45 28.03C37.34 29.77 34.96 30.96 32.51 30.96C28.28 30.96 25.8 28.1 25.8 23.61L25.8 14.41C25.8 13.16 26.81 12.15 28.06 12.15C29.31 12.15 30.32 13.16 30.32 14.41L30.32 22.02C30.32 25.51 31.7 26.92 34.22 26.92C37.08 26.92 38.45 25.25 38.45 21.76L38.45 14.41ZM64.64 37.32C64.64 38.3 65.3 39.16 66.26 39.28C66.81 39.35 67.4 39.38 68.02 39.38C71.02 39.38 72.95 37.97 74.33 34.56L82.12 15.1C82.69 13.69 81.65 12.15 80.13 12.15C79.23 12.15 78.42 12.71 78.11 13.55L73.66 25.51L69.47 13.62C69.15 12.74 68.32 12.15 67.38 12.15C65.83 12.15 64.76 13.71 65.32 15.15L71.54 31.26L71.02 32.63C70.24 34.78 69.13 35.19 67.35 35.19L66.77 35.19C65.6 35.19 64.64 36.15 64.64 37.32Z" fill="#FFFFFF" fill-opacity="1.000000" fill-rule="evenodd"/>
	<path id="Hutly" d="M56.58 4.57Q56.52 4.84 56.52 5.12L56.52 11.88L53.04 11.88L53.04 8.7Q53.04 8.41 52.98 8.15Q52.93 7.92 52.84 7.71Q52.75 7.5 52.62 7.31Q52.48 7.09 52.3 6.91Q52.11 6.72 51.9 6.58Q51.71 6.46 51.49 6.37Q51.28 6.28 51.06 6.23Q50.79 6.17 50.51 6.17Q50.23 6.17 49.96 6.23Q49.74 6.28 49.53 6.37Q49.31 6.46 49.12 6.58Q48.91 6.72 48.72 6.91Q48.54 7.09 48.4 7.31Q48.27 7.5 48.18 7.71Q48.09 7.92 48.04 8.15Q47.98 8.41 47.98 8.7L47.98 11.88L46.61 11.88Q46.37 11.88 46.14 11.93Q45.96 11.97 45.77 12.05Q45.59 12.13 45.43 12.24Q45.25 12.36 45.09 12.51Q44.93 12.67 44.81 12.85Q44.7 13.02 44.63 13.2Q44.55 13.38 44.51 13.57Q44.46 13.8 44.46 14.04Q44.46 14.28 44.51 14.51Q44.55 14.7 44.63 14.88Q44.7 15.06 44.81 15.23Q44.93 15.41 45.09 15.56Q45.25 15.72 45.43 15.84Q45.59 15.95 45.77 16.03Q45.96 16.1 46.14 16.15Q46.37 16.2 46.61 16.2L47.98 16.2L47.98 28.21Q47.98 28.5 48.04 28.76Q48.09 28.99 48.18 29.2Q48.27 29.41 48.4 29.6Q48.54 29.82 48.72 30Q48.91 30.19 49.12 30.33Q49.31 30.45 49.53 30.54Q49.74 30.63 49.96 30.68Q50.23 30.74 50.51 30.74Q50.79 30.74 51.06 30.68Q51.28 30.63 51.49 30.54Q51.71 30.45 51.9 30.33Q52.11 30.19 52.3 30Q52.48 29.82 52.62 29.6Q52.75 29.41 52.84 29.2Q52.93 28.99 52.98 28.76Q53.04 28.5 53.04 28.21L53.04 16.2L56.52 16.2L56.52 28.23Q56.52 28.51 56.58 28.78Q56.63 29 56.72 29.21Q56.81 29.42 56.93 29.61Q57.07 29.82 57.26 30.01Q57.44 30.19 57.65 30.33Q57.84 30.46 58.05 30.55Q58.26 30.63 58.48 30.68Q58.75 30.74 59.03 30.74Q59.31 30.74 59.58 30.68Q59.8 30.63 60.01 30.55Q60.22 30.46 60.41 30.33Q60.62 30.19 60.81 30.01Q60.99 29.82 61.13 29.61Q61.25 29.42 61.34 29.21Q61.43 29 61.48 28.78Q61.54 28.51 61.54 28.23L61.54 5.12Q61.54 4.84 61.48 4.57Q61.43 4.35 61.34 4.14Q61.25 3.93 61.13 3.74Q60.99 3.52 60.81 3.34Q60.62 3.16 60.41 3.02Q60.22 2.89 60.01 2.8Q59.8 2.71 59.58 2.66Q59.31 2.6 59.03 2.6Q58.75 2.6 58.48 2.66Q58.26 2.71 58.05 2.8Q57.84 2.89 57.65 3.02Q57.44 3.16 57.26 3.34Q57.07 3.52 56.93 3.74Q56.81 3.93 56.72 4.14Q56.63 4.35 56.58 4.57ZM56.52 15.93L56.79 15.93L56.79 28.23C56.79 29.47 57.79 30.48 59.03 30.48C60.27 30.48 61.28 29.47 61.28 28.23L61.28 5.12C61.28 3.87 60.27 2.87 59.03 2.87C57.79 2.87 56.79 3.87 56.79 5.12L56.79 12.15L52.77 12.15L52.77 8.7C52.77 7.45 51.76 6.43 50.51 6.43C49.26 6.43 48.25 7.45 48.25 8.7L48.25 12.15L47.98 12.15L46.61 12.15C45.57 12.15 44.72 12.99 44.72 14.04C44.72 15.08 45.57 15.93 46.61 15.93L47.98 15.93L48.25 15.93L48.25 28.21C48.25 29.46 49.26 30.48 50.51 30.48C51.76 30.48 52.77 29.46 52.77 28.21L52.77 15.93L53.04 15.93L56.52 15.93ZM0.06 5.15Q0 5.43 0 5.73L0 28.1Q0 28.4 0.06 28.68Q0.11 28.91 0.2 29.13Q0.3 29.35 0.43 29.55Q0.58 29.78 0.77 29.97Q0.96 30.16 1.18 30.31Q1.38 30.44 1.61 30.54Q1.83 30.63 2.06 30.68Q2.34 30.74 2.63 30.74Q2.93 30.74 3.21 30.68Q3.44 30.63 3.66 30.54Q3.89 30.44 4.09 30.31Q4.31 30.16 4.5 29.97Q4.69 29.78 4.84 29.55Q4.97 29.35 5.07 29.13Q5.16 28.91 5.21 28.68Q5.27 28.4 5.27 28.1L5.27 19.24L16.77 19.24L16.77 28.1Q16.77 28.4 16.83 28.68Q16.88 28.91 16.97 29.13Q17.07 29.35 17.2 29.55Q17.35 29.78 17.54 29.97Q17.73 30.16 17.96 30.31Q18.16 30.44 18.38 30.54Q18.6 30.63 18.83 30.68Q19.11 30.74 19.41 30.74Q19.7 30.74 19.98 30.68Q20.21 30.63 20.43 30.54Q20.66 30.44 20.86 30.31Q21.08 30.16 21.27 29.97Q21.47 29.78 21.61 29.55Q21.74 29.35 21.84 29.13Q21.93 28.91 21.98 28.68Q22.05 28.4 22.05 28.1L22.05 5.73Q22.05 5.43 21.98 5.15Q21.93 4.92 21.84 4.7Q21.74 4.48 21.61 4.28Q21.47 4.05 21.27 3.86Q21.08 3.67 20.86 3.52Q20.66 3.39 20.43 3.29Q20.21 3.2 19.98 3.15Q19.7 3.09 19.41 3.09Q19.11 3.09 18.83 3.15Q18.6 3.2 18.38 3.29Q18.16 3.39 17.96 3.52Q17.73 3.67 17.54 3.86Q17.35 4.05 17.2 4.28Q17.07 4.48 16.97 4.7Q16.88 4.92 16.83 5.15Q16.77 5.43 16.77 5.73L16.77 14.29L5.27 14.29L5.27 5.73Q5.27 5.43 5.21 5.15Q5.16 4.92 5.07 4.7Q4.97 4.48 4.84 4.28Q4.69 4.05 4.5 3.86Q4.31 3.67 4.09 3.52Q3.89 3.39 3.66 3.29Q3.44 3.2 3.21 3.15Q2.93 3.09 2.63 3.09Q2.34 3.09 2.06 3.15Q1.83 3.2 1.61 3.29Q1.38 3.39 1.18 3.52Q0.96 3.67 0.77 3.86Q0.58 4.05 0.43 4.28Q0.3 4.48 0.2 4.7Q0.11 4.92 0.06 5.15ZM5.27 14.56L5.01 14.56L5.01 5.73C5.01 4.42 3.95 3.35 2.63 3.35C1.32 3.35 0.26 4.42 0.26 5.73L0.26 28.1C0.26 29.41 1.32 30.48 2.63 30.48C3.95 30.48 5.01 29.41 5.01 28.1L5.01 18.97L17.03 18.97L17.03 28.1C17.03 29.41 18.1 30.48 19.41 30.48C20.72 30.48 21.78 29.41 21.78 28.1L21.78 5.73C21.78 4.42 20.72 3.35 19.41 3.35C18.1 3.35 17.03 4.42 17.03 5.73L17.03 14.56L5.27 14.56ZM43.18 28.78Q43.24 28.52 43.24 28.24L43.24 14.41Q43.24 14.13 43.18 13.86Q43.13 13.64 43.04 13.43Q42.95 13.21 42.83 13.02Q42.69 12.81 42.5 12.62Q42.32 12.44 42.1 12.3Q41.91 12.17 41.7 12.08Q41.49 11.99 41.26 11.94Q41 11.88 40.71 11.88Q40.43 11.88 40.16 11.94Q39.94 11.99 39.73 12.08Q39.51 12.17 39.32 12.3Q39.11 12.44 38.93 12.62Q38.74 12.81 38.6 13.02Q38.47 13.21 38.38 13.43Q38.29 13.64 38.24 13.86Q38.18 14.13 38.18 14.41L38.18 21.76Q38.18 24.28 37.2 25.48Q37.06 25.65 36.9 25.79Q35.94 26.65 34.22 26.65Q33.31 26.65 32.64 26.39Q32.2 26.22 31.86 25.94Q31.68 25.79 31.53 25.6Q30.59 24.48 30.59 22.02L30.59 14.41Q30.59 14.13 30.53 13.86Q30.48 13.64 30.39 13.43Q30.3 13.21 30.17 13.02Q30.03 12.81 29.85 12.62Q29.66 12.44 29.45 12.3Q29.26 12.17 29.04 12.08Q28.83 11.99 28.61 11.94Q28.34 11.88 28.06 11.88Q27.78 11.88 27.51 11.94Q27.29 11.99 27.08 12.08Q26.86 12.17 26.67 12.3Q26.46 12.44 26.27 12.62Q26.09 12.81 25.95 13.02Q25.82 13.21 25.73 13.43Q25.64 13.64 25.59 13.86Q25.53 14.13 25.53 14.41L25.53 23.61Q25.53 25.33 26 26.74Q26.47 28.14 27.37 29.15Q27.72 29.53 28.12 29.85Q28.78 30.36 29.58 30.69Q30.89 31.23 32.51 31.23Q32.7 31.23 32.88 31.22Q33.63 31.18 34.38 31Q35.18 30.82 35.9 30.48Q36 30.43 36.1 30.39Q36.92 29.98 37.57 29.42Q37.97 29.09 38.28 28.71Q38.31 28.89 38.37 29.06Q38.44 29.25 38.54 29.44Q38.64 29.63 38.77 29.79Q38.92 29.97 39.09 30.12Q39.27 30.28 39.47 30.4Q39.65 30.5 39.85 30.58Q40.04 30.65 40.25 30.69Q40.49 30.74 40.74 30.74Q41.02 30.74 41.28 30.68Q41.5 30.63 41.71 30.55Q41.93 30.46 42.11 30.33Q42.33 30.19 42.51 30.01Q42.69 29.83 42.83 29.61Q42.96 29.43 43.05 29.21Q43.13 29 43.18 28.78ZM38.23 28.35C37.04 29.92 34.81 30.96 32.51 30.96C28.28 30.96 25.8 28.1 25.8 23.61L25.8 14.41C25.8 13.16 26.81 12.15 28.06 12.15C29.31 12.15 30.32 13.16 30.32 14.41L30.32 22.02C30.32 25.51 31.7 26.92 34.22 26.92C37.08 26.92 38.45 25.25 38.45 21.76L38.45 14.41C38.45 13.16 39.46 12.15 40.71 12.15C41.96 12.15 42.98 13.16 42.98 14.41L42.98 28.24C42.98 29.48 41.97 30.48 40.74 30.48C39.62 30.48 38.67 29.65 38.52 28.54L38.5 28.42L38.45 28.03C38.38 28.14 38.31 28.24 38.23 28.35ZM68.51 34.83Q68.04 34.93 67.35 34.93L66.77 34.93Q66.51 34.93 66.25 34.98Q66.04 35.03 65.84 35.11Q65.64 35.2 65.46 35.32Q65.25 35.45 65.08 35.63Q64.9 35.8 64.77 36.01Q64.65 36.19 64.56 36.39Q64.48 36.59 64.43 36.8Q64.38 37.06 64.38 37.32Q64.38 37.57 64.42 37.8Q64.45 37.96 64.51 38.11Q64.6 38.38 64.75 38.6Q64.81 38.7 64.88 38.79Q65.06 39 65.27 39.16Q65.37 39.23 65.47 39.29Q65.63 39.38 65.79 39.44Q66 39.52 66.23 39.54Q67.09 39.65 68.02 39.65Q69.19 39.65 70.15 39.36Q70.82 39.17 71.4 38.83Q71.68 38.66 71.94 38.46Q72.75 37.85 73.4 36.9Q74.04 35.97 74.57 34.66L82.37 15.2Q82.5 14.87 82.53 14.53Q82.56 14.27 82.53 14.01Q82.49 13.75 82.41 13.5Q82.31 13.21 82.13 12.94Q81.95 12.68 81.72 12.48Q81.52 12.3 81.29 12.18Q81.06 12.05 80.81 11.98Q80.48 11.88 80.13 11.88Q79.93 11.88 79.73 11.91Q79.56 11.94 79.4 11.99Q79.23 12.05 79.07 12.12Q78.9 12.21 78.75 12.31Q78.59 12.42 78.46 12.55Q78.33 12.67 78.22 12.81Q78.11 12.95 78.03 13.1Q77.93 13.27 77.86 13.46L73.66 24.73L69.72 13.53Q69.65 13.34 69.55 13.16Q69.46 13 69.35 12.86Q69.24 12.71 69.11 12.58Q68.97 12.45 68.81 12.34Q68.65 12.22 68.48 12.14Q68.31 12.06 68.14 12Q67.97 11.94 67.79 11.91Q67.59 11.88 67.38 11.88Q67.02 11.88 66.69 11.98Q66.43 12.05 66.2 12.18Q65.96 12.31 65.76 12.48Q65.52 12.69 65.34 12.96Q65.16 13.23 65.05 13.52Q64.96 13.77 64.93 14.04Q64.89 14.3 64.91 14.56Q64.94 14.91 65.07 15.25L71.26 31.26L70.77 32.54Q70.5 33.3 70.15 33.78Q69.83 34.24 69.42 34.49Q69.04 34.73 68.51 34.83ZM71.54 31.26L71.02 32.63C70.24 34.78 69.13 35.19 67.35 35.19L66.77 35.19C65.6 35.19 64.64 36.15 64.64 37.32C64.64 38.3 65.3 39.16 66.26 39.28C66.81 39.35 67.4 39.38 68.02 39.38C71.02 39.38 72.95 37.97 74.33 34.56L82.12 15.1C82.69 13.69 81.65 12.15 80.13 12.15C79.23 12.15 78.42 12.71 78.11 13.55L73.8 25.12L73.66 25.51L73.52 25.12L69.47 13.62C69.15 12.74 68.32 12.15 67.38 12.15C65.83 12.15 64.76 13.71 65.32 15.15L71.54 31.26Z" fill="#FFFFFF" fill-opacity="1.000000" fill-rule="evenodd"/>
	<path id="®" d="M89.86 12.8C86.18 12.8 83.4 10.02 83.4 6.4C83.4 2.77 86.21 0 89.86 0C93.51 0 96.26 2.74 96.26 6.4C96.26 10.05 93.51 12.8 89.86 12.8ZM89.86 11.74C92.89 11.74 95.14 9.46 95.14 6.4C95.14 3.34 92.89 1.06 89.86 1.06C86.8 1.06 84.55 3.34 84.55 6.4C84.55 9.46 86.8 11.74 89.86 11.74ZM88.49 9.32C88.49 9.63 88.23 9.89 87.91 9.89C87.59 9.89 87.33 9.63 87.33 9.32L87.33 3.26C87.33 2.96 87.58 2.71 87.88 2.71L90.14 2.71C91.7 2.71 92.76 3.52 92.76 4.9C92.76 5.83 92.23 6.61 91.27 6.96L92.41 9.07C92.61 9.44 92.34 9.89 91.92 9.89C91.71 9.89 91.52 9.78 91.42 9.59L90.2 7.27L88.49 7.27L88.49 9.32ZM91.52 4.96C91.52 4.18 90.98 3.8 90.11 3.8L88.49 3.8L88.49 6.18L90.11 6.18C90.98 6.18 91.52 5.74 91.52 4.96Z" fill="#FFFFFF" fill-opacity="1.000000" fill-rule="nonzero"/>
</svg>
