<svg width="135.707031" height="60.000000" viewBox="0 0 135.707 60" fill="none" xmlns="http://www.w3.org/2000/svg" xmlns:xlink="http://www.w3.org/1999/xlink">
	<desc>
			Created with Pixso.
	</desc>
	<defs>
		<clipPath id="clip1_515">
			<rect id="Frame 1" rx="0.000000" width="57.500000" height="57.500000" transform="translate(1.250000 1.250000)" fill="white" fill-opacity="0"/>
		</clipPath>
	</defs>
	<path id="Hutly" d="M109.3 38.3C109.3 39.24 108.55 40 107.61 40C106.67 40 105.92 39.24 105.92 38.3L105.92 29.02L102.89 29.02L102.89 38.29C102.89 39.23 102.12 40 101.18 40C100.24 40 99.47 39.23 99.47 38.29L99.47 29.02L98.24 29.02C97.45 29.02 96.81 28.38 96.81 27.59C96.81 26.8 97.45 26.16 98.24 26.16L99.47 26.16L99.47 23.56C99.47 22.62 100.24 21.85 101.18 21.85C102.12 21.85 102.89 22.62 102.89 23.56L102.89 26.16L105.92 26.16L105.92 20.86C105.92 19.92 106.67 19.16 107.61 19.16C108.55 19.16 109.3 19.92 109.3 20.86L109.3 38.3ZM66.85 38.2C66.85 39.19 66.04 40 65.05 40C64.06 40 63.26 39.19 63.26 38.2L63.26 21.32C63.26 20.33 64.06 19.53 65.05 19.53C66.04 19.53 66.85 20.33 66.85 21.32L66.85 27.98L75.92 27.98L75.92 21.32C75.92 20.33 76.72 19.53 77.71 19.53C78.7 19.53 79.5 20.33 79.5 21.32L79.5 38.2C79.5 39.19 78.7 40 77.71 40C76.72 40 75.92 39.19 75.92 38.2L75.92 31.32L66.85 31.32L66.85 38.2ZM92.08 27.87C92.08 26.93 92.84 26.16 93.79 26.16C94.73 26.16 95.5 26.93 95.5 27.87L95.5 38.31C95.5 39.24 94.74 40 93.81 40C92.96 40 92.25 39.37 92.13 38.53L92.08 38.15C91.24 39.46 89.45 40.36 87.6 40.36C84.41 40.36 82.53 38.2 82.53 34.82L82.53 27.87C82.53 26.93 83.3 26.16 84.24 26.16C85.18 26.16 85.95 26.93 85.95 27.87L85.95 33.61C85.95 36.24 86.98 37.31 88.89 37.31C91.04 37.31 92.08 36.05 92.08 33.41L92.08 27.87ZM111.84 45.16C111.84 45.89 112.34 46.55 113.07 46.64C113.48 46.69 113.92 46.72 114.39 46.72C116.66 46.72 118.12 45.65 119.15 43.08L125.04 28.39C125.46 27.32 124.68 26.16 123.53 26.16C122.85 26.16 122.24 26.58 122.01 27.22L118.65 36.24L115.48 27.28C115.25 26.61 114.62 26.16 113.91 26.16C112.74 26.16 111.93 27.34 112.36 28.43L117.05 40.58L116.66 41.62C116.07 43.24 115.23 43.55 113.89 43.55L113.45 43.55C112.56 43.55 111.84 44.27 111.84 45.16Z" fill="#FFFFFF" fill-opacity="1.000000" fill-rule="evenodd"/>
	<path id="Hutly" d="M105.76 20.44Q105.72 20.65 105.72 20.86L105.72 25.96L103.09 25.96L103.09 23.56Q103.09 23.35 103.04 23.14Q103.01 22.98 102.94 22.82Q102.87 22.65 102.77 22.51Q102.67 22.35 102.53 22.21Q102.39 22.07 102.23 21.96Q102.08 21.87 101.92 21.8Q101.76 21.73 101.6 21.7Q101.39 21.65 101.18 21.65Q100.97 21.65 100.77 21.7Q100.6 21.73 100.44 21.8Q100.28 21.87 100.13 21.96Q99.97 22.07 99.83 22.21Q99.69 22.35 99.59 22.51Q99.49 22.65 99.42 22.82Q99.35 22.98 99.32 23.14Q99.27 23.35 99.27 23.56L99.27 25.96L98.24 25.96Q98.06 25.96 97.89 26Q97.74 26.03 97.61 26.09Q97.47 26.15 97.35 26.23Q97.21 26.32 97.09 26.44Q96.97 26.56 96.88 26.7Q96.8 26.82 96.74 26.96Q96.68 27.09 96.65 27.24Q96.61 27.41 96.61 27.59Q96.61 27.77 96.65 27.94Q96.68 28.09 96.74 28.22Q96.8 28.36 96.88 28.49Q96.97 28.62 97.09 28.74Q97.21 28.86 97.35 28.95Q97.47 29.03 97.61 29.09Q97.74 29.15 97.89 29.18Q98.06 29.22 98.24 29.22L99.27 29.22L99.27 38.29Q99.27 38.5 99.32 38.7Q99.35 38.87 99.42 39.03Q99.49 39.19 99.59 39.34Q99.69 39.5 99.83 39.64Q99.97 39.78 100.13 39.88Q100.28 39.98 100.44 40.04Q100.6 40.11 100.77 40.15Q100.97 40.2 101.18 40.2Q101.39 40.2 101.6 40.15Q101.76 40.11 101.92 40.04Q102.09 39.98 102.23 39.88Q102.39 39.78 102.53 39.64Q102.67 39.5 102.77 39.34Q102.87 39.19 102.94 39.03Q103.01 38.87 103.04 38.7Q103.09 38.5 103.09 38.29L103.09 29.22L105.72 29.22L105.72 38.3Q105.72 38.51 105.76 38.71Q105.8 38.88 105.87 39.04Q105.93 39.2 106.03 39.34Q106.13 39.5 106.27 39.64Q106.41 39.78 106.57 39.88Q106.71 39.98 106.87 40.05Q107.03 40.11 107.2 40.15Q107.4 40.2 107.61 40.2Q107.82 40.2 108.02 40.15Q108.19 40.11 108.35 40.05Q108.51 39.98 108.65 39.88Q108.81 39.78 108.95 39.64Q109.09 39.5 109.19 39.34Q109.29 39.2 109.36 39.04Q109.42 38.88 109.46 38.71Q109.5 38.51 109.5 38.3L109.5 20.86Q109.5 20.65 109.46 20.44Q109.42 20.28 109.36 20.12Q109.29 19.96 109.19 19.82Q109.09 19.66 108.95 19.52Q108.81 19.38 108.65 19.27Q108.51 19.18 108.35 19.11Q108.19 19.04 108.02 19.01Q107.82 18.96 107.61 18.96Q107.4 18.96 107.2 19.01Q107.03 19.04 106.87 19.11Q106.71 19.18 106.57 19.27Q106.41 19.38 106.27 19.52Q106.13 19.66 106.03 19.82Q105.93 19.96 105.87 20.12Q105.8 20.28 105.76 20.44ZM105.72 29.02L105.92 29.02L105.92 38.3C105.92 39.24 106.67 40 107.61 40C108.55 40 109.3 39.24 109.3 38.3L109.3 20.86C109.3 19.92 108.55 19.16 107.61 19.16C106.67 19.16 105.92 19.92 105.92 20.86L105.92 26.16L102.89 26.16L102.89 23.56C102.89 22.62 102.12 21.85 101.18 21.85C100.24 21.85 99.47 22.62 99.47 23.56L99.47 26.16L98.24 26.16C97.45 26.16 96.81 26.8 96.81 27.59C96.81 28.38 97.45 29.02 98.24 29.02L99.47 29.02L99.47 38.29C99.47 39.23 100.24 40 101.18 40C102.12 40 102.89 39.23 102.89 38.29L102.89 29.02L105.72 29.02ZM63.11 20.89Q63.06 21.1 63.06 21.32L63.06 38.2Q63.06 38.43 63.11 38.64Q63.15 38.81 63.22 38.98Q63.29 39.15 63.39 39.3Q63.5 39.47 63.65 39.61Q63.79 39.76 63.96 39.87Q64.11 39.97 64.28 40.04Q64.45 40.11 64.62 40.15Q64.83 40.2 65.05 40.2Q65.28 40.2 65.49 40.15Q65.66 40.11 65.83 40.04Q66 39.97 66.15 39.87Q66.32 39.76 66.46 39.61Q66.61 39.47 66.72 39.3Q66.82 39.15 66.89 38.98Q66.96 38.81 67 38.64Q67.05 38.43 67.05 38.2L67.05 31.52L75.72 31.52L75.72 38.2Q75.72 38.43 75.77 38.64Q75.8 38.81 75.88 38.98Q75.95 39.15 76.05 39.3Q76.16 39.47 76.3 39.61Q76.45 39.76 76.62 39.87Q76.77 39.97 76.93 40.04Q77.1 40.11 77.28 40.15Q77.49 40.2 77.71 40.2Q77.93 40.2 78.14 40.15Q78.32 40.11 78.49 40.04Q78.66 39.97 78.81 39.87Q78.97 39.76 79.12 39.61Q79.26 39.47 79.38 39.3Q79.47 39.15 79.55 38.98Q79.62 38.81 79.66 38.64Q79.7 38.43 79.7 38.2L79.7 21.32Q79.7 21.1 79.66 20.89Q79.62 20.71 79.55 20.54Q79.47 20.37 79.38 20.22Q79.26 20.06 79.12 19.91Q78.97 19.77 78.81 19.65Q78.65 19.56 78.49 19.48Q78.32 19.41 78.14 19.37Q77.93 19.33 77.71 19.33Q77.49 19.33 77.28 19.37Q77.1 19.41 76.93 19.48Q76.77 19.56 76.62 19.65Q76.45 19.77 76.3 19.91Q76.16 20.06 76.05 20.22Q75.95 20.37 75.88 20.54Q75.8 20.71 75.77 20.89Q75.72 21.1 75.72 21.32L75.72 27.78L67.05 27.78L67.05 21.32Q67.05 21.1 67 20.89Q66.96 20.71 66.89 20.54Q66.82 20.37 66.72 20.22Q66.61 20.06 66.46 19.91Q66.32 19.77 66.15 19.65Q66 19.56 65.83 19.48Q65.66 19.41 65.49 19.37Q65.28 19.33 65.05 19.33Q64.83 19.33 64.62 19.37Q64.45 19.41 64.28 19.48Q64.11 19.56 63.96 19.65Q63.79 19.77 63.65 19.91Q63.5 20.06 63.39 20.22Q63.29 20.37 63.22 20.54Q63.15 20.71 63.11 20.89ZM67.05 27.98L66.85 27.98L66.85 21.32C66.85 20.33 66.04 19.53 65.05 19.53C64.06 19.53 63.26 20.33 63.26 21.32L63.26 38.2C63.26 39.19 64.06 40 65.05 40C66.04 40 66.85 39.19 66.85 38.2L66.85 31.32L75.92 31.32L75.92 38.2C75.92 39.19 76.72 40 77.71 40C78.7 40 79.5 39.19 79.5 38.2L79.5 21.32C79.5 20.33 78.7 19.53 77.71 19.53C76.72 19.53 75.92 20.33 75.92 21.32L75.92 27.98L67.05 27.98ZM95.65 38.72Q95.7 38.52 95.7 38.31L95.7 27.87Q95.7 27.66 95.65 27.46Q95.61 27.29 95.55 27.13Q95.48 26.97 95.38 26.82Q95.28 26.66 95.14 26.52Q95 26.38 94.84 26.28Q94.69 26.18 94.53 26.11Q94.37 26.05 94.2 26.01Q94 25.96 93.79 25.96Q93.58 25.96 93.37 26.01Q93.21 26.05 93.05 26.11Q92.88 26.18 92.74 26.28Q92.58 26.38 92.44 26.52Q92.3 26.66 92.19 26.82Q92.1 26.97 92.03 27.13Q91.96 27.29 91.92 27.46Q91.88 27.66 91.88 27.87L91.88 33.41Q91.88 35.32 91.14 36.22Q91.03 36.35 90.91 36.46Q90.19 37.11 88.89 37.11Q87.7 37.11 87.05 36.52Q86.95 36.42 86.86 36.32Q86.15 35.47 86.15 33.61L86.15 27.87Q86.15 27.66 86.1 27.46Q86.07 27.29 86 27.13Q85.93 26.97 85.83 26.82Q85.73 26.66 85.59 26.52Q85.45 26.38 85.29 26.28Q85.14 26.18 84.98 26.11Q84.82 26.05 84.66 26.01Q84.45 25.96 84.24 25.96Q84.03 25.96 83.82 26.01Q83.66 26.05 83.5 26.11Q83.34 26.18 83.19 26.28Q83.03 26.38 82.89 26.52Q82.75 26.66 82.65 26.82Q82.55 26.97 82.48 27.13Q82.41 27.29 82.38 27.46Q82.33 27.66 82.33 27.87L82.33 34.82Q82.33 36.11 82.68 37.17Q83.04 38.24 83.72 38.99Q83.98 39.28 84.29 39.52Q84.78 39.91 85.39 40.15Q86.38 40.56 87.6 40.56Q87.74 40.56 87.88 40.55Q88.45 40.53 89.01 40.39Q89.61 40.25 90.16 40Q90.23 39.96 90.31 39.93Q90.92 39.62 91.42 39.2Q91.71 38.94 91.95 38.66Q91.98 38.8 92.02 38.92Q92.07 39.07 92.15 39.21Q92.23 39.35 92.32 39.48Q92.43 39.61 92.56 39.73Q92.7 39.84 92.85 39.93Q92.98 40.01 93.13 40.07Q93.28 40.13 93.44 40.16Q93.62 40.2 93.81 40.2Q94.02 40.2 94.22 40.15Q94.38 40.11 94.54 40.05Q94.7 39.98 94.85 39.88Q95 39.78 95.14 39.64Q95.28 39.5 95.39 39.34Q95.48 39.2 95.55 39.04Q95.61 38.88 95.65 38.72ZM91.91 38.39C91.02 39.57 89.33 40.36 87.6 40.36C84.41 40.36 82.53 38.2 82.53 34.82L82.53 27.87C82.53 26.93 83.3 26.16 84.24 26.16C85.18 26.16 85.95 26.93 85.95 27.87L85.95 33.61C85.95 36.24 86.98 37.31 88.89 37.31C91.04 37.31 92.08 36.05 92.08 33.41L92.08 27.87C92.08 26.93 92.84 26.16 93.79 26.16C94.73 26.16 95.5 26.93 95.5 27.87L95.5 38.31C95.5 39.24 94.74 40 93.81 40C92.96 40 92.25 39.37 92.13 38.53L92.12 38.44L92.08 38.15C92.03 38.23 91.97 38.31 91.91 38.39ZM114.77 43.28Q114.41 43.35 113.89 43.35L113.45 43.35Q113.25 43.35 113.06 43.39Q112.9 43.43 112.75 43.49Q112.6 43.56 112.46 43.65Q112.31 43.75 112.17 43.88Q112.04 44.01 111.94 44.17Q111.85 44.3 111.79 44.46Q111.72 44.61 111.69 44.77Q111.64 44.96 111.64 45.16Q111.64 45.34 111.68 45.52Q111.7 45.64 111.74 45.75Q111.81 45.95 111.93 46.13Q111.97 46.2 112.03 46.27Q112.16 46.43 112.32 46.55Q112.39 46.6 112.47 46.65Q112.59 46.71 112.71 46.76Q112.87 46.81 113.04 46.84Q113.69 46.92 114.39 46.92Q115.28 46.92 116 46.7Q116.5 46.55 116.94 46.3Q117.16 46.17 117.35 46.02Q117.96 45.56 118.45 44.84Q118.94 44.14 119.34 43.15L125.22 28.47Q125.32 28.22 125.35 27.96Q125.36 27.77 125.34 27.57Q125.32 27.37 125.25 27.18Q125.17 26.96 125.04 26.76Q124.9 26.56 124.73 26.41Q124.58 26.28 124.4 26.19Q124.23 26.09 124.04 26.04Q123.8 25.96 123.53 25.96Q123.24 25.96 122.98 26.04Q122.72 26.13 122.49 26.29Q122.25 26.45 122.09 26.67Q121.92 26.88 121.82 27.15L118.65 35.66L115.67 27.21Q115.57 26.93 115.4 26.7Q115.23 26.48 114.99 26.31Q114.75 26.13 114.48 26.05Q114.21 25.96 113.91 25.96Q113.64 25.96 113.39 26.04Q113.2 26.09 113.02 26.19Q112.84 26.29 112.69 26.42Q112.51 26.57 112.37 26.77Q112.23 26.98 112.15 27.2Q112.08 27.39 112.06 27.59Q112.03 27.79 112.05 27.99Q112.07 28.25 112.17 28.5L116.84 40.58L116.47 41.55Q116.26 42.12 116 42.49Q115.76 42.83 115.45 43.02Q115.16 43.2 114.77 43.28ZM117.05 40.58L112.36 28.43C111.93 27.34 112.74 26.16 113.91 26.16C114.62 26.16 115.25 26.61 115.48 27.28L118.54 35.95L118.65 36.24L118.76 35.95L122.01 27.22C122.24 26.58 122.85 26.16 123.53 26.16C124.68 26.16 125.46 27.32 125.04 28.39L119.15 43.08C118.12 45.65 116.66 46.72 114.39 46.72C113.92 46.72 113.48 46.69 113.07 46.64C112.34 46.55 111.84 45.89 111.84 45.16C111.84 44.27 112.56 43.55 113.45 43.55L113.89 43.55C115.23 43.55 116.07 43.24 116.66 41.62L117.05 40.58Z" fill="#000000" fill-opacity="1.000000" fill-rule="evenodd"/>
	<rect id="Frame 1" rx="0.000000" width="57.500000" height="57.500000" transform="translate(1.250000 1.250000)" fill="#FFFFFF" fill-opacity="0"/>
	<g clip-path="url(#clip1_515)">
		<rect id="Rectangle 781" x="39.820312" y="46.039062" rx="4.464286" width="31.277464" height="8.928572" transform="rotate(-120 39.820312 46.039062)" fill="#FFFFFF" fill-opacity="0.800000"/>
		<rect id="Rectangle 779" x="5.000000" y="35.773438" rx="4.464286" width="50.000000" height="8.928572" fill="#FFFFFF" fill-opacity="1.000000"/>
		<path id="Rectangle 780" d="M9.13 22.28L22.08 44.7L25.16 44.7L30.58 44.7L30.58 41.57L30.58 35.77L27.23 35.77L16.86 17.81C15.63 15.68 12.9 14.94 10.77 16.18C8.63 17.41 7.9 20.14 9.13 22.28Z" fill="#FFFFFF" fill-opacity="0.950000" fill-rule="evenodd"/>
	</g>
	<path id="®" d="M130.87 26.66C128.09 26.66 126 24.56 126 21.83C126 19.09 128.12 17 130.87 17C133.63 17 135.7 19.07 135.7 21.83C135.7 24.58 133.63 26.66 130.87 26.66ZM130.87 25.85C133.16 25.85 134.85 24.13 134.85 21.83C134.85 19.52 133.16 17.8 130.87 17.8C128.56 17.8 126.87 19.52 126.87 21.83C126.87 24.13 128.56 25.85 130.87 25.85ZM129.84 24.03C129.84 24.27 129.64 24.46 129.4 24.46C129.16 24.46 128.96 24.27 128.96 24.03L128.96 19.46C128.96 19.23 129.15 19.04 129.38 19.04L131.08 19.04C132.26 19.04 133.06 19.66 133.06 20.69C133.06 21.4 132.66 21.99 131.93 22.25L132.8 23.84C132.95 24.12 132.74 24.46 132.42 24.46C132.27 24.46 132.12 24.38 132.05 24.24L131.13 22.48L129.84 22.48L129.84 24.03ZM132.12 20.74C132.12 20.15 131.72 19.87 131.06 19.87L129.84 19.87L129.84 21.66L131.06 21.66C131.72 21.66 132.12 21.33 132.12 20.74Z" fill="#FFFFFF" fill-opacity="1.000000" fill-rule="nonzero"/>
</svg>
