<svg width="21.000000" height="18.000015" viewBox="0 0 21 18" fill="none" xmlns="http://www.w3.org/2000/svg" xmlns:xlink="http://www.w3.org/1999/xlink">
	<desc>
			Created with Pixso.
	</desc>
	<defs/>
	<path d="M16.8 6.52C13.83 8.22 14.34 13.18 17.55 13.18C18.94 13.18 20.14 12.14 20.68 10.81C21.91 7.73 19.34 5.06 16.8 6.52Z" fill="#FFFEFD" fill-opacity="1.000000" fill-rule="nonzero"/>
	<path d="M13.75 7.13C17.31 7.13 18.38 1.09 15 0.1C13.46 -0.35 11.71 0.73 11.14 2.72C10.51 4.94 11.75 7.13 13.75 7.13Z" fill="#FFFEFD" fill-opacity="1.000000" fill-rule="nonzero"/>
	<path d="M12.84 17.89C12.34 17.75 11.47 17.66 10.55 17.65C9.58 17.63 8.57 17.7 7.91 17.89C6.13 18.38 3.72 17.18 4.25 14.7C4.74 12.4 6.5 12.53 6.92 10.36C7.34 8.16 8.97 7.1 10.55 7.18C12.02 7.26 13.45 8.31 13.83 10.36C14.25 12.54 16.01 12.4 16.49 14.7C17.03 17.19 14.61 18.38 12.84 17.89Z" fill="#FFFEFD" fill-opacity="1.000000" fill-rule="nonzero"/>
	<path d="M7.49 7.13C8.5 7.13 9.36 6.55 9.84 5.66C11.27 3 8.93 -0.68 6.25 0.1C2.87 1.1 3.94 7.13 7.49 7.13Z" fill="#FFFEFD" fill-opacity="1.000000" fill-rule="nonzero"/>
	<path d="M5.89 11.2C7.03 8.41 4.32 5 1.74 6.07C-1.38 7.36 -0.01 12.94 3.42 12.94C4.52 12.94 5.45 12.27 5.89 11.2Z" fill="#FFFEFD" fill-opacity="1.000000" fill-rule="nonzero"/>
	<path d="M12.84 17.89C12.34 17.75 11.47 17.66 10.55 17.65L10.55 7.18C12.02 7.26 13.45 8.31 13.83 10.36C14.25 12.54 16.01 12.4 16.49 14.7C17.03 17.19 14.61 18.38 12.84 17.89Z" fill="#FFFEFD" fill-opacity="1.000000" fill-rule="nonzero"/>
</svg>
