<?xml version="1.0" encoding="utf-8"?><svg xmlns="http://www.w3.org/2000/svg" xmlns:xlink="http://www.w3.org/1999/xlink"><symbol viewBox="0 0 21 18" id="paw" xmlns="http://www.w3.org/2000/svg">
    <path d="M16.8 6.52c-2.97 1.7-2.46 6.66.75 6.66 1.39 0 2.59-1.04 3.13-2.37 1.23-3.08-1.34-5.75-3.88-4.29zM13.75 7.13c3.56 0 4.63-6.04 1.25-7.03-1.54-.45-3.29.63-3.86 2.62-.63 2.22.61 4.41 2.61 4.41z"/>
    <path d="M12.84 17.89c-.5-.14-1.37-.23-2.29-.24-.97-.02-1.98.05-2.64.24-1.78.49-4.19-.71-3.66-3.19.49-2.3 2.25-2.17 2.67-4.34.42-2.2 2.05-3.26 3.63-3.18 1.47.08 2.9 1.13 3.28 3.18.42 2.18 2.18 2.04 2.66 4.34.54 2.49-1.88 3.68-3.65 3.19zM7.49 7.13c1.01 0 1.87-.58 2.35-1.47C11.27 3 8.93-.68 6.25.1c-3.38 1-2.31 7.03 1.24 7.03z"/>
    <path d="M5.89 11.2C7.03 8.41 4.32 5 1.74 6.07c-3.12 1.29-1.75 6.87 1.68 6.87 1.1 0 2.03-.67 2.47-1.74zM12.84 17.89c-.5-.14-1.37-.23-2.29-.24V7.18c1.47.08 2.9 1.13 3.28 3.18.42 2.18 2.18 2.04 2.66 4.34.54 2.49-1.88 3.68-3.65 3.19z"/>
</symbol></svg>