<svg width="21.309570" height="20.305954" viewBox="0 0 21.3096 20.306" fill="none" xmlns="http://www.w3.org/2000/svg" xmlns:xlink="http://www.w3.org/1999/xlink">
	<desc>
			Created with Pixso.
	</desc>
	<defs/>
	<path id="Star 1" d="M10.27 0.26L7.92 7.03C7.86 7.19 7.72 7.3 7.55 7.3L0.39 7.45C0.01 7.45 -0.15 7.93 0.15 8.16L5.86 12.49C6 12.59 6.05 12.77 6 12.93L3.93 19.78C3.82 20.15 4.23 20.44 4.54 20.23L10.42 16.14C10.56 16.04 10.74 16.04 10.88 16.14L16.76 20.23C17.07 20.44 17.48 20.15 17.37 19.78L15.3 12.93C15.25 12.77 15.3 12.59 15.44 12.49L21.15 8.16C21.45 7.93 21.29 7.45 20.91 7.45L13.75 7.3C13.58 7.3 13.43 7.19 13.38 7.03L11.03 0.26C10.9 -0.09 10.4 -0.09 10.27 0.26Z" fill="#FFC107" fill-opacity="1.000000" fill-rule="evenodd"/>
</svg>
