<svg width="14.879761" height="14.630371" viewBox="0 0 14.8798 14.6304" fill="none" xmlns="http://www.w3.org/2000/svg" xmlns:xlink="http://www.w3.org/1999/xlink">
	<desc>
			Created with Pixso.
	</desc>
	<defs/>
	<path id="Path 639" d="M8.22 0.17C7.72 -0.06 7.15 -0.06 6.65 0.17C6.31 0.33 6.06 0.64 5.85 0.99C5.63 1.34 5.39 1.82 5.1 2.41L5.1 2.41L5.09 2.43L4.85 2.91C4.64 3.32 4.58 3.42 4.51 3.5C4.43 3.58 4.34 3.65 4.24 3.69C4.14 3.73 4.02 3.75 3.57 3.8L3.35 3.83L3.33 3.83L3.33 3.83C2.61 3.91 2.05 3.97 1.62 4.06C1.19 4.14 0.79 4.27 0.52 4.56C0.12 4.96 -0.07 5.53 0.01 6.09C0.07 6.48 0.31 6.82 0.6 7.14C0.89 7.47 1.31 7.86 1.84 8.34L1.86 8.36L2.08 8.57C2.48 8.94 2.58 9.05 2.64 9.16C2.7 9.27 2.73 9.4 2.73 9.53C2.73 9.65 2.69 9.8 2.51 10.32L2.5 10.34L2.5 10.34C2.23 11.11 2.02 11.71 1.9 12.18C1.78 12.64 1.72 13.09 1.87 13.48C2.08 14.03 2.55 14.44 3.12 14.59C3.53 14.69 3.96 14.57 4.4 14.4C4.85 14.22 5.41 13.94 6.13 13.58L6.15 13.57L6.71 13.29C7.08 13.1 7.18 13.06 7.28 13.04C7.38 13.02 7.49 13.02 7.59 13.04C7.69 13.06 7.79 13.1 8.16 13.29L8.72 13.57L8.74 13.58C9.46 13.94 10.02 14.22 10.47 14.4C10.91 14.57 11.34 14.69 11.75 14.59C12.32 14.44 12.79 14.03 13 13.48C13.15 13.09 13.09 12.64 12.97 12.18C12.85 11.71 12.64 11.11 12.37 10.34L12.37 10.34L12.36 10.32C12.18 9.8 12.14 9.65 12.14 9.53C12.14 9.4 12.17 9.27 12.23 9.16C12.29 9.05 12.39 8.94 12.78 8.57L13.01 8.36L13.03 8.34C13.56 7.86 13.98 7.47 14.27 7.14C14.56 6.82 14.8 6.48 14.86 6.09C14.94 5.53 14.75 4.96 14.35 4.56C14.08 4.27 13.68 4.14 13.25 4.06C12.82 3.97 12.25 3.91 11.54 3.83L11.52 3.83L11.3 3.8C10.85 3.75 10.73 3.73 10.63 3.69C10.53 3.65 10.44 3.58 10.36 3.5C10.29 3.42 10.23 3.32 10.02 2.91L9.78 2.43L9.77 2.41C9.48 1.82 9.24 1.34 9.02 0.99C8.81 0.64 8.56 0.33 8.22 0.17Z" fill="#FFC250" fill-opacity="1.000000" fill-rule="evenodd"/>
	<path id="Path 639" d="M6.65 0.17C6.31 0.33 6.06 0.64 5.85 0.99C5.63 1.34 5.39 1.82 5.1 2.41L5.1 2.41L5.09 2.43L4.85 2.91C4.64 3.32 4.58 3.42 4.51 3.5C4.43 3.58 4.34 3.65 4.24 3.69C4.14 3.73 4.02 3.75 3.57 3.8L3.35 3.83L3.33 3.83L3.33 3.83C2.61 3.91 2.05 3.97 1.62 4.06C1.19 4.14 0.79 4.27 0.52 4.56C0.12 4.96 -0.07 5.53 0.01 6.09C0.07 6.48 0.31 6.82 0.6 7.14C0.89 7.47 1.31 7.86 1.84 8.34L1.86 8.36L2.08 8.57C2.48 8.94 2.58 9.05 2.64 9.16C2.7 9.27 2.73 9.4 2.73 9.53C2.73 9.65 2.69 9.8 2.51 10.32L2.5 10.34L2.5 10.34C2.23 11.11 2.02 11.71 1.9 12.18C1.78 12.64 1.72 13.09 1.87 13.48C2.08 14.03 2.55 14.44 3.12 14.59C3.53 14.69 3.96 14.57 4.4 14.4C4.85 14.22 5.41 13.94 6.13 13.58L6.15 13.57L6.71 13.29C7.08 13.1 7.18 13.06 7.28 13.04C7.38 13.02 7.49 13.02 7.59 13.04C7.69 13.06 7.79 13.1 8.16 13.29L8.72 13.57L8.74 13.58C9.46 13.94 10.02 14.22 10.47 14.4C10.91 14.57 11.34 14.69 11.75 14.59C12.32 14.44 12.79 14.03 13 13.48C13.15 13.09 13.09 12.64 12.97 12.18C12.85 11.71 12.64 11.11 12.37 10.34L12.37 10.34L12.36 10.32C12.18 9.8 12.14 9.65 12.14 9.53C12.14 9.4 12.17 9.27 12.23 9.16C12.29 9.05 12.39 8.94 12.78 8.57L13.01 8.36L13.03 8.34C13.56 7.86 13.98 7.47 14.27 7.14C14.56 6.82 14.8 6.48 14.86 6.09C14.94 5.53 14.75 4.96 14.35 4.56C14.08 4.27 13.68 4.14 13.25 4.06C12.82 3.97 12.25 3.91 11.54 3.83L11.52 3.83L11.3 3.8C10.85 3.75 10.73 3.73 10.63 3.69C10.53 3.65 10.44 3.58 10.36 3.5C10.29 3.42 10.23 3.32 10.02 2.91L9.78 2.43L9.77 2.41C9.48 1.82 9.24 1.34 9.02 0.99C8.81 0.64 8.56 0.33 8.22 0.17C7.72 -0.06 7.15 -0.06 6.65 0.17Z" stroke="#707070" stroke-opacity="0" stroke-width="1.000000"/>
</svg>
