<?xml version="1.0"?><svg xmlns="http://www.w3.org/2000/svg" xmlns:xlink="http://www.w3.org/1999/xlink"><symbol viewBox="0 0 24 24" id="instagram" xmlns="http://www.w3.org/2000/svg">
    <path d="M8 3a5 5 0 00-5 5v8a5 5 0 005 5h8a5 5 0 005-5V8a5 5 0 00-5-5H8zm10 2a1 1 0 110 2 1 1 0 010-2zm-6 2a5 5 0 11-.001 10.001A5 5 0 0112 7zm0 2a3 3 0 00-3 3 3 3 0 003 3 3 3 0 003-3 3 3 0 00-3-3z"/>
</symbol><symbol viewBox="0 0 24 24" id="vk" xmlns="http://www.w3.org/2000/svg">
    <path d="M19 3H5a2 2 0 00-2 2v14a2 2 0 002 2h14a2 2 0 002-2V5a2 2 0 00-2-2zm-1.093 12.684l-1.735.024s-.374.073-.864-.265c-.649-.446-1.261-1.606-1.738-1.455-.484.154-.469 1.198-.469 1.198s.004.184-.107.304c-.12.129-.355.116-.355.116h-.777s-1.714.142-3.225-1.433c-1.646-1.717-3.1-5.106-3.1-5.106s-.085-.214.006-.323c.103-.121.381-.124.381-.124l1.857-.009s.175.031.301.123c.103.076.162.219.162.219s.3.761.698 1.45c.776 1.343 1.137 1.637 1.4 1.493.384-.21.269-1.898.269-1.898s.007-.613-.193-.886c-.156-.213-.449-.276-.578-.292-.105-.014.066-.257.289-.367.334-.163.925-.173 1.622-.166.543.006.7.039.912.091.641.155.423.753.423 2.188 0 .46-.083 1.106.248 1.319.143.092.491.014 1.36-1.466.413-.702.722-1.527.722-1.527s.068-.147.173-.21c.108-.065.253-.045.253-.045l1.955-.012s.587-.071.683.196c.1.279-.219.93-1.018 1.995-1.311 1.75-1.457 1.587-.368 2.599 1.04.967 1.255 1.437 1.291 1.496.43.716-.478.773-.478.773z"/>
</symbol><symbol viewBox="0 0 24 24" id="whatsapp" xmlns="http://www.w3.org/2000/svg">
    <path d="M19.077 4.928A9.927 9.927 0 0012.011 2c-5.506 0-9.987 4.479-9.989 9.985a9.962 9.962 0 001.333 4.992L2 22l5.233-1.237a9.98 9.98 0 004.773 1.216h.004c5.505 0 9.986-4.48 9.989-9.985a9.922 9.922 0 00-2.922-7.066zm-2.179 10.626c-.208.583-1.227 1.145-1.685 1.186-.458.042-.887.207-2.995-.624-2.537-1-4.139-3.601-4.263-3.767-.125-.167-1.019-1.353-1.019-2.581s.645-1.832.874-2.081a.916.916 0 01.666-.312c.166 0 .333 0 .478.006.178.007.375.016.562.431.222.494.707 1.728.769 1.853s.104.271.021.437-.125.27-.249.416c-.125.146-.262.325-.374.437-.125.124-.255.26-.11.509.146.25.646 1.067 1.388 1.728.954.85 1.757 1.113 2.007 1.239.25.125.395.104.541-.063.146-.166.624-.728.79-.978s.333-.208.562-.125 1.456.687 1.705.812c.25.125.416.187.478.291.062.103.062.603-.146 1.186z"/>
</symbol><symbol viewBox="0 0 24 24" id="youtube" xmlns="http://www.w3.org/2000/svg">
    <path d="M21.582 6.186a2.506 2.506 0 00-1.768-1.768C18.254 4 12 4 12 4s-6.254 0-7.814.418c-.86.23-1.538.908-1.768 1.768C2 7.746 2 12 2 12s0 4.254.418 5.814c.23.86.908 1.538 1.768 1.768C5.746 20 12 20 12 20s6.254 0 7.814-.418a2.504 2.504 0 001.768-1.768C22 16.254 22 12 22 12s0-4.254-.418-5.814zM10 15.464V8.536L16 12l-6 3.464z"/>
</symbol></svg>