<svg width="86.000000" height="86.000000" viewBox="0 0 86 86" fill="none" xmlns="http://www.w3.org/2000/svg" xmlns:xlink="http://www.w3.org/1999/xlink">
	<desc>
			Created with Pixso.
	</desc>
	<defs>
		<clipPath id="clip11_272">
			<rect id="arrow-27 1" rx="0.000000" width="85.000000" height="85.000000" transform="translate(86.500000 0.500000) rotate(90.000000)" fill="white" fill-opacity="0"/>
		</clipPath>
	</defs>
	<rect id="arrow-27 1" rx="0.000000" width="85.000000" height="85.000000" transform="translate(86.500000 0.500000) rotate(90.000000)" fill="#FFFFFF" fill-opacity="0"/>
	<g clip-path="url(#clip11_272)">
		<path id="Vector" d="M66.16 16.61C67.02 16.6 67.76 16.65 67.44 16.68C69.19 16.61 69.22 16.69 69.45 16.56C70.57 16.5 71.76 16.59 70.49 16.64L73.71 16.56L71.79 16.54C72.05 16.49 72.82 16.5 73.6 16.5L74.19 16.51C74.49 16.51 74.77 16.62 75 16.79C75.2 16.94 75.35 17.14 75.45 17.37C75.53 17.56 75.56 17.74 75.58 17.87L75.57 17.8C75.56 17.46 75.41 17.13 75.17 16.88C74.92 16.63 74.6 16.48 74.25 16.46L74.19 16.46L74.14 16.46L74.06 16.46L73.73 16.46L71.99 16.46L72.16 16.43C71.37 16.47 69.82 16.45 69.28 16.44C69.37 16.42 69.31 16.39 69.93 16.39C65.72 16.38 68.8 16.57 65.3 16.6C65.59 16.6 65.87 16.6 66.16 16.61ZM62.58 16.36L61.11 16.49L58.64 16.46C58.62 16.5 56.82 16.54 58.04 16.57C58.27 16.57 58.74 16.55 59.12 16.56C58.85 16.65 55.84 16.61 56.57 16.7C58.52 16.68 58.82 16.7 60.02 16.62C61.81 16.63 63.11 16.65 63.95 16.69C64.48 16.67 64.55 16.61 65.23 16.6L64.77 16.61L64.7 16.46C64.13 16.49 63.6 16.48 62.98 16.48L65.86 16.31C64.93 16.18 62.1 16.26 60.96 16.2C62.37 16.32 59.84 16.26 62.58 16.36ZM63.93 58.99C63.5 59.42 63.4 59.58 63.35 59.65L68.23 54.76C68.05 54.89 66.61 56.26 67.54 55.31C67.09 55.7 65.83 57 65.68 57.22L66 56.83C64.92 58 64.05 58.67 64.76 57.91L64.66 58L61.74 61.32C62.9 60.19 62.56 60.37 63.93 58.99ZM65.38 18.45C64.48 18.46 64.37 18.47 64.47 18.49C64.77 18.48 65.08 18.47 65.38 18.45ZM61.06 62.1L60.15 63.14C60.52 62.73 60.84 62.36 61.06 62.1ZM66.88 54.38C66.88 54.37 66.88 54.36 66.85 54.38L66.45 54.85L66.46 54.84C66.61 54.67 66.75 54.52 66.88 54.38ZM53.68 41.87C53.6 41.76 53.53 41.67 53.43 41.55C53.51 41.66 53.6 41.76 53.68 41.87ZM64.63 61.9L66.75 59.67C66.49 59.98 67.53 58.93 67.1 59.42C67.26 59.25 68.03 58.46 67.8 58.66L67.36 59.1C68.42 57.87 67.7 58.54 69.53 56.57C68.3 57.7 67.83 58.27 67.24 58.93L66.69 59.51L65 61.43L64.63 61.9ZM22.55 19.12L22.51 19.12C22.55 19.12 22.55 19.12 22.55 19.12ZM22.38 19.16L22.51 19.12C22.35 19.14 21.72 19.16 22.38 19.16ZM61.37 61.68C61.35 61.73 61.25 61.87 61.06 62.1L61.74 61.32L61.37 61.68Z" fill="#202020" fill-opacity="1.000000" fill-rule="nonzero"/>
		<path id="Vector" d="M62.84 59.84L64.66 58L65.29 57.28L62.84 59.84ZM55.1 45.25C55.01 44.81 54.89 44.38 54.73 43.97L54.54 43.45C54.49 43.31 54.6 43.51 54.74 43.8C54.88 44.08 55.02 44.45 55.08 44.62C55.14 44.79 55.16 44.74 55 44.2C54.77 43.56 54.54 43.15 54.34 42.81C54.13 42.48 53.94 42.21 53.68 41.87C53.9 42.16 54.1 42.47 54.27 42.79C54.4 43.02 54.46 43.16 54.49 43.25C54.56 43.43 54.51 43.39 54.46 43.34C54.4 43.3 54.35 43.26 54.42 43.44C54.45 43.53 54.51 43.68 54.59 43.92C54.68 44.16 54.8 44.49 54.92 44.95C54.8 44.7 54.59 44.05 54.24 43.36C53.9 42.67 53.41 41.95 53 41.46C52.78 41.17 52.72 41.09 52.77 41.12C52.82 41.15 52.98 41.3 53.16 41.5C53.34 41.7 53.55 41.95 53.72 42.18C53.89 42.4 54.03 42.6 54.1 42.65C53.69 42 53.47 41.76 53.33 41.61C53.19 41.46 53.11 41.4 52.87 41.18C52.07 40.28 51 39.6 49.97 39.18C48.94 38.75 47.96 38.58 47.25 38.45C47.06 38.44 46.87 38.44 46.68 38.44L46.2 38.45C45.92 38.46 45.72 38.47 45.54 38.48C45.19 38.51 44.94 38.54 44.38 38.57C44.26 38.63 44.99 38.65 45.84 38.66L46.48 38.67L46.78 38.68C46.87 38.68 46.95 38.69 47.04 38.69C47.38 38.72 47.66 38.77 47.81 38.82C47.68 38.79 47.43 38.74 47.51 38.73C47.51 38.73 47.87 38.77 48.23 38.85C48.46 38.9 48.7 38.96 48.93 39.04C48.6 38.93 48.45 38.89 48.41 38.87C48.38 38.85 48.47 38.85 48.63 38.87C48.94 38.92 49.51 39.08 49.85 39.22C50.16 39.35 50.46 39.5 50.75 39.66C51.03 39.83 51.22 39.96 51.15 39.94C51.15 39.94 50.97 39.83 50.79 39.73C50.61 39.64 50.42 39.55 50.42 39.55C50.88 39.8 51.39 40.1 51.86 40.46C52.33 40.81 52.78 41.23 53.1 41.69C53.12 41.75 52.84 41.43 52.78 41.4C53.23 41.83 53.62 42.32 53.97 42.92C54.32 43.51 54.64 44.22 54.88 45.13C54.88 45.13 54.79 44.87 54.68 44.62C54.58 44.37 54.46 44.13 54.46 44.13C54.61 44.46 54.78 44.93 54.9 45.48C54.96 45.77 55 46.06 55.03 46.36C55.06 46.67 55.06 46.97 55.06 47.37C55.05 48.88 55.03 50.52 54.99 51.86C55.01 51.56 55.03 51.02 55.05 51.35C55.08 52.92 55 54.1 54.93 53.38C55.03 54.91 54.85 59.22 54.98 61.32L55.05 62.51L55.06 62.66L55.07 62.73L55.07 62.84L55.09 63.39L55.13 64.47C55.18 65.79 55.23 67.12 55.18 68.69L58.18 65.4L58.85 64.66L59.17 64.3L59.36 64.07L60.15 63.14C59.89 63.42 59.63 63.69 59.36 63.97L59.12 64.16L59.07 64.2L59 64.27L58.87 64.38C58.71 64.51 58.61 64.6 58.59 64.6C58.56 64.61 58.62 64.54 58.76 64.37L59.36 63.7L59.04 64.05L58.74 64.38L58.27 64.92C57.95 65.28 57.51 65.75 56.33 66.93C57.24 65.96 57.44 65.6 55.79 67.21L55.8 66.72L55.75 64.16L55.72 62.9L55.69 61.97C55.64 60.79 55.59 59.68 55.53 58.57C55.43 56.37 55.31 54.21 55.23 51.68C55.27 51.59 55.29 50.55 55.3 49.29L55.3 47.34C55.3 47 55.3 46.73 55.29 46.46C55.28 46.22 55.25 45.98 55.22 45.74C55.27 45.9 55.31 46.1 55.34 46.34C55.36 46.46 55.37 46.58 55.38 46.71C55.39 46.86 55.4 47 55.4 47.14C55.42 47.78 55.43 48.51 55.44 49.25L55.45 47.48L55.45 46.98C55.45 46.54 55.42 46.09 55.35 45.65L55.23 45.45L55.1 45.25Z" fill="#202020" fill-opacity="1.000000" fill-rule="nonzero"/>
		<path id="Vector" d="M55.56 57.6C55.56 57.46 55.57 57.32 55.57 57.19C55.57 57.26 55.56 57.39 55.56 57.6ZM55.44 49.7C55.44 49.72 55.45 49.72 55.45 49.72L55.44 49.25L55.44 49.7ZM60.34 62.45L60.92 61.79L60.45 62.29C60.3 62.46 60.23 62.54 60.34 62.45ZM61.21 61.79L61.11 61.93L61.37 61.68C61.38 61.65 61.34 61.66 61.21 61.79ZM39.3 37.59L38.79 37.6C39.1 37.6 39.23 37.59 39.3 37.59Z" fill="#202020" fill-opacity="1.000000" fill-rule="nonzero"/>
		<path id="Vector" d="M52.6 40.54C52.91 40.83 53.07 41 53.17 41.09C53.27 41.19 53.31 41.21 53.37 41.25C53.42 41.3 53.5 41.36 53.65 41.53C53.79 41.71 54.02 41.99 54.33 42.52C54.33 42.52 54.25 42.36 54.15 42.21C54.06 42.06 53.95 41.91 53.95 41.91C54.48 42.61 55.06 43.7 55.34 44.93C55.49 45.54 55.57 46.16 55.58 46.79L55.58 48.62C55.54 48.37 55.53 49.98 55.45 49.72C55.47 51.26 55.48 52.78 55.56 53.57C55.54 54.53 55.61 55.97 55.57 57.19C55.62 56.67 55.73 58.91 55.67 55.96C55.68 56.2 55.69 56.05 55.7 56.29C55.76 54.39 55.65 53.63 55.65 51.99C55.69 51.01 55.72 53.59 55.74 52.67C55.72 51.65 55.73 50.04 55.73 48.71C55.73 48.05 55.72 47.45 55.71 47.03C55.69 46.63 55.64 46.4 55.61 46.43C55.55 45.74 55.47 45.35 55.43 45.08C55.38 44.81 55.36 44.66 55.32 44.46C55.12 43.94 54.83 43.21 54.38 42.46C53.94 41.72 53.35 40.96 52.7 40.37C52.06 39.76 51.37 39.31 50.85 39.05C50.32 38.78 49.96 38.68 49.95 38.73C50.32 38.88 50.79 39.1 51.28 39.39C51.77 39.68 52.27 40.05 52.71 40.43L52.6 40.54ZM69.15 54.17L69.59 53.51L70.67 52.41L70.92 52.16L70.98 52.1L71.01 52.07L71.03 52.06L71.03 52.05L71.04 52.05L71.04 52.04L71.25 52.26C71.26 52.26 71.26 52.27 71.27 52.27C71.28 52.27 71.25 52.27 71.26 52.27C71.27 52.27 71.27 52.27 71.27 52.27C71.27 52.27 71.26 52.26 71.27 52.29L71.24 52.27L71.24 52.27C71.24 52.28 71.22 52.25 71.25 52.28L71.25 52.28L71.25 52.28L71.26 52.28L71.26 52.27C71.27 52.25 71.26 52.28 71.26 52.28C71.26 52.27 71.26 52.27 71.26 52.27C71.26 52.26 71.25 52.27 71.27 52.27C71.28 52.27 71.29 52.26 71.28 52.27L71.26 52.3L71.26 52.3C71.21 52.26 71.69 52.67 71.49 52.5L71.49 52.5L71.48 52.51L71.47 52.52L71.44 52.54L71.35 52.64L71.16 52.83L67.78 56.19C67.56 56.38 67.88 56.04 68.05 55.86C66.13 57.81 63.22 60.67 61.86 62.13C61.25 62.74 59.6 64.32 60.18 63.68L59.72 64.17L59.47 64.42L59.08 64.81C59.03 64.84 59.09 64.77 59.21 64.64L59.54 64.3C59.74 64.09 59.96 63.87 59.96 63.85C59.68 64.12 59.57 64.22 59.52 64.29C59.94 63.8 58.91 64.64 61.05 62.5C61.97 61.76 59.58 63.99 60.17 63.6C60.88 62.89 60.76 62.94 60.81 62.87C61.71 61.96 61.71 62.01 61.69 62.08C62 61.71 63.18 60.61 63.61 60.09C65.36 58.32 63.59 60.26 64.74 59.11L65.3 58.35L67.23 56.46C69.96 53.66 66.66 56.68 69.76 53.46C69.58 53.7 69.83 53.52 70.31 53.1C70.6 52.84 70.89 52.58 71.18 52.32L71.24 52.26L71.24 52.26L71.24 52.25L71.25 52.25L71.23 52.27L71.24 52.26L71.26 52.24L71.26 52.24L71.26 52.24L71.25 52.25C71.25 52.26 71.26 52.25 71.26 52.25C71.26 52.26 71.26 52.26 71.26 52.26C71.27 52.26 71.26 52.27 71.27 52.27C71.27 52.26 71.27 52.26 71.26 52.27L71.26 52.27L71.26 52.28L71.26 52.28L71.25 52.26L71.25 52.26L71.25 52.27C71.26 52.28 71.28 52.3 71.27 52.29C71.29 52.31 71.23 52.25 71.26 52.28C71.26 52.28 71.26 52.28 71.26 52.28L71.27 52.27C71.27 52.26 71.27 52.27 71.26 52.27C71.26 52.28 71.26 52.27 71.26 52.26L71.26 52.27C71.27 52.27 71.26 52.27 71.27 52.27L71.28 52.27C71.28 52.27 71.29 52.26 71.28 52.27L71.27 52.29L71.27 52.29L71.26 52.3C71.24 52.31 71.29 52.29 71.29 52.29L71.28 52.29L71.28 52.3L71.25 52.32L71.03 52.56L70.55 53.06C69.91 53.73 69.22 54.43 68.64 54.98C70.32 53.46 66.45 57.2 67.37 56.45C68.12 55.62 69.43 54.3 70.48 53.29L70.15 53.64C70.42 53.38 70.68 53.11 70.93 52.84L71.3 52.45L71.35 52.4L71.36 52.38L71.36 52.38L71.37 52.38L71.37 52.37C71.32 52.34 71.47 52.45 71.26 52.3L71.26 52.3L71.28 52.27C71.27 52.28 71.26 52.27 71.26 52.27C71.26 52.26 71.26 52.27 71.26 52.27C71.26 52.28 71.26 52.27 71.27 52.27C71.27 52.26 71.27 52.27 71.26 52.27L71.26 52.28L71.25 52.28L71.25 52.28L71.25 52.28L71.25 52.28C71.22 52.25 71.24 52.28 71.24 52.27L71.24 52.27L71.26 52.28C71.27 52.27 71.27 52.27 71.27 52.27C71.27 52.27 71.26 52.27 71.26 52.27C71.26 52.27 71.27 52.27 71.27 52.27C71.27 52.27 71.27 52.27 71.26 52.27L71.25 52.26L71.19 52.21L71.18 52.22L71.14 52.26L70.86 52.53C70.12 53.28 70.23 53.11 70.34 52.95L69.52 53.81C69.3 54.04 69.16 54.18 69.15 54.17ZM70.76 52.51L70.92 52.36L71.08 52.2L71.12 52.16L71.14 52.14L71.25 52.26L71.26 52.26C71.26 52.27 71.26 52.27 71.27 52.27C71.27 52.27 71.26 52.27 71.26 52.27C71.26 52.27 71.27 52.27 71.27 52.27C71.25 52.27 71.26 52.27 71.27 52.27C71.27 52.27 71.27 52.27 71.26 52.27L71.25 52.26L71.13 52.14L71.11 52.15L71.04 52.22L70.76 52.51ZM42.73 16.38L43.16 16.39C43.07 16.38 42.91 16.38 42.73 16.38ZM44.86 55.38L45.44 55.97C45.25 55.77 45.06 55.57 44.86 55.38ZM53.4 62.08L53.37 60.88C53.37 61.36 53.38 61.73 53.4 62.08ZM32.93 16.37L32.89 16.37L32.7 16.38L32.93 16.37ZM37.2 39.88C36.98 39.86 36.76 39.85 36.53 39.84C36.57 39.86 36.82 39.87 37.2 39.88ZM53.41 62.31L53.41 62.23L53.4 62.08L53.41 62.31ZM37.66 52.74C37.73 52.98 37.84 53.21 37.99 53.42C38.02 53.46 38.04 53.49 38.09 53.54L38.12 53.58L38.15 53.6L38.17 53.63L38.2 53.66L38.21 53.67L38.24 53.7L38.16 53.61L38.14 53.6L38.11 53.56C38.01 53.45 37.93 53.33 37.85 53.21C37.77 53.06 37.71 52.9 37.66 52.74ZM38.91 50.86C38.76 50.93 38.62 51.03 38.5 51.15C38.4 51.25 38.31 51.36 38.24 51.49C38.24 51.49 38.26 51.44 38.32 51.37C38.34 51.33 38.37 51.29 38.41 51.25C38.43 51.23 38.45 51.21 38.46 51.18L38.51 51.13C38.54 51.11 38.57 51.09 38.59 51.07L38.66 51.01C38.7 50.98 38.74 50.95 38.78 50.93C38.83 50.9 38.87 50.88 38.91 50.86ZM58.89 67.24L59.66 66.44C59.27 66.83 59.05 67.06 58.89 67.24ZM39.33 54.37C39.38 54.41 39.43 54.45 39.46 54.47C39.35 54.37 39.3 54.32 39.33 54.37ZM49.77 16.8L49.7 16.8L49.67 16.82L49.77 16.8ZM52.46 16.6L53.43 16.58C53.1 16.58 52.78 16.59 52.46 16.6ZM21.08 39.61C20.77 39.57 20.06 39.44 20.4 39.47C20.1 39.44 19.96 39.44 20.05 39.47C20.14 39.5 20.46 39.58 21.08 39.61ZM44.37 17.69C44.55 17.68 44.77 17.66 44.99 17.65C44.58 17.67 44.22 17.68 44.37 17.69ZM44.99 17.65L45.59 17.61C45.38 17.62 45.17 17.63 44.99 17.65ZM28.58 38.47C28.65 38.48 28.77 38.48 28.92 38.49C28.88 38.47 28.75 38.46 28.58 38.47ZM54.21 16.61C54.39 16.57 58.62 16.5 55.06 16.48C55.2 16.38 57.34 16.43 58.29 16.41C57.6 16.38 58.63 16.34 58.42 16.3C57.95 16.31 57.39 16.34 56.62 16.34C56.26 16.29 57.44 16.26 58.36 16.27C57.23 16.22 59.8 16.19 58.19 16.15C54.76 16.19 52.34 16.22 49.92 16.38C51.88 16.35 54.07 16.32 55.67 16.36L55 16.45C53.18 16.37 52.06 16.43 50.28 16.43L54.29 16.47C56.16 16.55 54.91 16.57 53.43 16.58C53.79 16.59 54.12 16.59 54.21 16.61ZM51.51 17.41L51.58 17.41C51.64 17.41 51.71 17.41 51.75 17.4L51.51 17.41ZM57.44 66.08L57.66 65.81C57.46 66.02 57.41 66.09 57.44 66.08ZM49.12 16.97L49.13 16.97C49.1 16.97 49.09 16.97 49.12 16.97ZM52.35 65.02C52.36 65.03 52.37 65.04 52.39 65.05C52.37 65.03 52.36 65.03 52.35 65.02ZM49.31 64.77C49.32 64.79 49.32 64.79 49.35 64.82C49.48 64.95 49.42 64.88 49.31 64.77ZM52.34 65.03C52.34 65.02 52.34 65.02 52.35 65.02C52.35 65.02 52.33 65.01 52.34 65.03ZM55.1 66.54C55.1 66.54 55.08 66.69 55.06 66.93C55.07 67.06 55.08 66.98 55.1 66.54ZM23.07 40.06C23.48 40.06 23.78 40.06 24.04 40.05C23.72 40.05 23.4 40.05 23.07 40.06ZM52.39 65.05C52.46 65.1 52.55 65.18 52.7 65.32C52.54 65.17 52.45 65.09 52.39 65.05Z" fill="#202020" fill-opacity="1.000000" fill-rule="nonzero"/>
		<path id="Vector" d="M54.63 52.97L54.64 53.22L54.65 53.07L54.63 52.97Z" fill="#202020" fill-opacity="1.000000" fill-rule="nonzero"/>
		<path id="Vector" d="M54.7 48.68C54.71 48.83 54.72 48.89 54.73 48.98C54.72 48.59 54.72 48.13 54.71 47.65C54.71 47.16 54.72 46.65 54.66 46.18C54.56 45.23 54.28 44.47 54.18 44.33C54.26 44.56 54.33 44.79 54.38 45.02C54.45 45.33 54.52 45.7 54.55 46.04C54.61 46.72 54.55 47.28 54.53 47.05C54.55 48.12 54.48 49.7 54.5 50.27C54.55 48.52 54.58 50.08 54.61 51.27C54.58 52.34 54.53 51.06 54.52 51.99L54.53 54.48L54.54 52.31L54.63 52.97L54.62 52.75C54.58 49.08 54.76 52.44 54.7 48.68ZM54.73 48.98C54.74 49.17 54.74 49.37 54.75 49.56C54.75 49.22 54.74 49.08 54.73 48.98ZM66.61 55.99C66.67 55.97 68.22 54.5 68.14 54.47L66.77 55.81L66.61 55.99ZM10.9 28.6C10.91 28.84 10.93 29.08 10.96 29.32L10.98 29.46C10.97 29.31 10.91 28.84 10.9 28.6Z" fill="#202020" fill-opacity="1.000000" fill-rule="nonzero"/>
		<path id="Vector" d="M54.47 46.4C54.51 46.79 54.51 46.96 54.53 47.05C54.52 46.8 54.5 46.57 54.47 46.4ZM11.06 28.46C11.07 28.16 11.11 27.71 11.14 27.65C11.16 27.04 11.17 26.61 11.27 25.99C11.15 26.69 11.06 27.5 11.06 28.46Z" fill="#202020" fill-opacity="1.000000" fill-rule="nonzero"/>
		<path id="Vector" d="M65.69 56.87L65.29 57.28L65.49 57.06L64.43 58.09L64.01 58.52C64.06 58.47 64.11 58.42 64.15 58.36L63.81 58.68C63.04 59.56 61.02 61.66 60.45 62.29C60.05 62.72 59.64 63.14 59.23 63.56C58.82 63.99 58.39 64.42 57.97 64.84C58.15 64.66 58.33 64.48 58.5 64.3C58.66 64.14 58.81 63.99 58.96 63.83C59.18 63.6 59.3 63.46 59.17 63.56L57.76 64.87C57.29 65.31 56.8 65.77 56.08 66.51C56.08 66.11 56.07 65.64 56.05 65.09C56.05 65.59 56.05 66.09 56.05 66.59L56.31 66.33C56.22 66.43 56.13 66.53 56.04 66.61L55.89 62.76C55.91 62.44 55.92 62.39 55.93 62.51C55.94 62.61 55.94 62.71 55.95 62.81L55.96 63.36C55.98 64.18 56 65.23 56.03 65.48C56.01 64.68 56.01 63.86 56.01 63.11L56.03 62.12L56.05 61.26C56.07 60.14 56.09 59.22 56.02 58.56C56.1 58.38 56.24 58.07 56.23 56.2C56.14 57.55 56.17 55.08 56.07 56.19C56.02 55.54 56.1 54.1 56.04 54L56.07 54.17C56.2 50.98 56 49.94 55.93 48.58L55.92 47.24C55.92 46.82 55.91 46.45 55.88 46.08C55.81 45.42 55.68 44.76 55.47 44.13C55.28 43.53 55.03 42.95 54.73 42.41C54.41 41.85 54.02 41.3 53.52 40.74C53.5 40.68 53.38 40.47 53.14 40.18C52.9 39.88 52.53 39.51 52.02 39.16C51.77 39.03 51.05 38.6 50.3 38.32C49.56 38.03 48.81 37.89 48.67 37.91C49.06 38 49.44 38.12 49.82 38.25L50.43 38.47C50.75 38.58 50.97 38.64 51.54 38.97C51.97 39.3 51.97 39.34 52.02 39.4C52.06 39.46 52.17 39.53 52.71 40.03C52.49 39.83 52.12 39.52 51.64 39.21C51.1 38.86 50.52 38.57 49.93 38.35C49.32 38.12 48.7 37.95 48.06 37.85C47.48 37.75 46.98 37.72 46.65 37.69L46.88 37.69L47.11 37.69C46.6 37.65 46.16 37.64 45.77 37.61C45.38 37.58 45.01 37.55 44.6 37.53C43.79 37.48 42.79 37.46 41.01 37.53L39.3 37.59C39.38 37.58 39.39 37.57 39.44 37.56C36.65 37.55 37.41 37.44 34.33 37.52C34.57 37.52 34.42 37.51 34.66 37.5C32.91 37.45 31.14 37.55 29.81 37.58C29 37.5 30 37.5 30.5 37.44C27.41 37.41 24.08 37.55 22.17 37.64L21.85 37.63C21.62 37.63 21.38 37.61 21.15 37.58C20.64 37.53 20.14 37.42 20.14 37.42C20.74 37.52 21.41 37.55 21.88 37.52C22.35 37.49 22.62 37.46 22.44 37.43C21.89 37.44 21.67 37.45 21.39 37.44C21.11 37.43 20.76 37.42 20 37.26C20.27 37.27 20.92 37.34 21.65 37.3C20.86 37.25 20.42 37.15 20.17 37.12C19.93 37.08 19.86 37.08 19.83 37.09C19.8 37.1 19.8 37.12 19.67 37.09C19.54 37.06 19.28 36.98 18.77 36.76C18.3 36.58 17.93 36.42 17.67 36.31C17.4 36.2 17.24 36.14 17.17 36.14C17.17 36.14 16.78 35.89 16.43 35.6C16.07 35.31 15.74 34.99 15.74 34.99C15.64 34.95 15.16 34.56 14.66 33.95C14.15 33.36 13.66 32.55 13.36 31.86C13.3 31.79 13.4 32.07 13.57 32.43C13.74 32.79 14 33.21 14.18 33.43C14.12 33.41 13.86 33.07 13.58 32.59C13.3 32.12 13.04 31.51 12.88 31.02C12.89 30.92 12.75 30.46 12.64 29.84C12.53 29.22 12.45 28.43 12.48 27.69C12.5 26.94 12.63 26.26 12.74 25.84C12.86 25.42 12.93 25.27 12.9 25.58C13.18 24.47 13.72 23.3 14.51 22.26C15.29 21.22 16.32 20.34 17.45 19.71C18.57 19.08 19.78 18.72 20.88 18.58C21.43 18.51 21.96 18.5 22.43 18.5L23.7 18.47C24.68 18.52 26.69 18.52 25.49 18.6C29.14 18.6 31.02 18.43 34.64 18.47C34.94 18.49 33 18.48 33.13 18.53C35.5 18.46 37.44 18.6 41.11 18.56C40.49 18.56 40.31 18.59 40.22 18.61C40.16 18.58 41.73 18.55 42.68 18.53C43.21 18.54 41.97 18.55 42.27 18.57C49.36 18.65 54.76 18.42 61.81 18.43C60.81 18.43 60.11 18.46 59.67 18.49C59.22 18.52 59.03 18.56 59.02 18.58L60.99 18.58C61.75 18.53 63.23 18.53 64.47 18.49C64.62 18.51 65.23 18.53 64.61 18.56C66.56 18.61 68.08 18.56 69.72 18.51C70.53 18.48 71.38 18.45 72.31 18.43C72.81 18.42 73.3 18.41 73.8 18.41L74.19 18.41C74.27 18.4 74.36 18.38 74.44 18.33C74.52 18.28 74.58 18.22 74.63 18.13C74.68 18.05 74.7 17.96 74.7 17.86L74.7 17.92C74.7 17.94 74.7 17.98 74.69 18.03C74.67 18.13 74.6 18.28 74.43 18.38C74.35 18.43 74.26 18.46 74.14 18.47L73.65 18.49L72.59 18.53L69.69 18.63L71.12 18.71L68.58 18.81C70.1 18.87 71.42 18.73 71.6 18.81C71.28 18.84 70.51 18.83 70.49 18.87C71.94 18.91 72.06 18.84 73.16 18.83C70.27 19 64.6 18.99 61.55 19.03C61.08 19.05 61.97 18.99 62.05 18.98C60.81 18.98 60.06 18.93 58.49 18.96C57.52 19.03 59.24 19.01 60.01 19.02C59.9 19.08 59.51 19.08 58.65 19.09C58.47 19 53.94 19.06 52.83 18.96C48.24 18.98 53.56 19.17 49.08 19.13L47.74 19.04C45.14 19.11 41.77 19.18 38.83 19.16L39.45 19.15C39.86 19.11 39.18 19.09 38.88 19.07C36.65 19.03 34.65 19.14 33.3 19.05C30.77 19.15 26.54 19.22 23.63 19.27C22.85 19.15 27.42 19.17 28.63 19.09L25.98 19.09C27.62 19.09 28.26 19.04 29.24 18.97C26.93 18.95 26.16 19.06 23.97 19.09C24.14 19.06 23.85 19.03 22.84 19.03L22.55 19.12C22.53 19.11 22.42 19.1 22.11 19.1L21.94 19.1C21.84 19.1 21.69 19.11 21.52 19.12C20.47 19.19 19.44 19.44 18.48 19.87C18.85 19.73 19.05 19.69 19.28 19.64L20.2 19.44C19.86 19.47 20.64 19.25 21.6 19.21C21.19 19.26 21.42 19.25 21.76 19.25L22.02 19.26L22.28 19.26C22.44 19.27 22.55 19.28 22.55 19.29C22.3 19.29 22.02 19.29 21.78 19.29C21.53 19.3 21.28 19.32 21.03 19.34C20.53 19.4 20.03 19.5 19.56 19.64C18.63 19.91 17.83 20.34 17.32 20.68L17.13 20.76L16.94 20.85C16.19 21.36 15.52 22.03 15 22.72C14.48 23.41 14.12 24.11 13.87 24.68C13.87 24.68 13.9 24.58 13.93 24.49C13.95 24.43 13.97 24.37 13.99 24.31C13.52 25.29 13.25 26.37 13.18 27.42C13.11 28.48 13.22 29.51 13.46 30.46C13.76 31.39 14.28 32.39 14.94 33.21C15.59 34.03 16.37 34.68 17.04 35.09C17.22 35.19 17.6 35.44 18.13 35.72C18.66 35.99 19.34 36.28 20.11 36.46C20.49 36.55 20.89 36.62 21.28 36.65C21.48 36.67 21.68 36.68 21.88 36.69C22.08 36.69 22.3 36.69 22.5 36.69C23.33 36.69 24.08 36.68 24.67 36.64C24.82 36.66 23.07 36.72 22.27 36.75C23.82 36.77 25.05 36.65 25.54 36.75C22.06 36.72 25.72 36.83 24.16 36.86C25.79 36.86 27.5 36.84 28.3 36.81C25.67 36.81 29.23 36.66 26.57 36.71C28.63 36.62 31.45 36.59 33.91 36.62C33.89 36.66 34.19 36.69 35.11 36.7L35.85 36.64C37 36.65 33.62 36.72 35.94 36.74C38.32 36.63 43.12 36.8 44.17 36.6C45.98 36.68 40.71 36.68 43.45 36.78C41.85 36.85 39.65 36.77 39.13 36.87C40.69 36.84 39.7 36.95 40.71 36.96L42.45 36.89L42.06 36.89C42.79 36.86 43.63 36.85 44.54 36.84L45.94 36.83L46.67 36.83C46.93 36.83 47.19 36.84 47.45 36.86C48.51 36.95 49.55 37.2 50.53 37.61C51.51 38.02 52.4 38.58 53.16 39.21C54.46 40.26 55.36 41.4 56.04 42.76C56.37 43.44 56.64 44.18 56.82 45.01C56.91 45.44 56.97 45.88 57 46.32C57.02 46.55 57.03 46.79 57.03 47.03L57.03 47.72C56.97 46.61 56.97 50.87 56.86 48.49C56.84 49.29 56.83 50.09 56.85 50.89C56.87 51.55 56.89 51.99 56.91 52.01C56.93 50.47 56.93 51.47 56.95 50.17C57 51.04 57 53.07 56.97 53.9C56.97 53.51 56.96 53.66 56.94 53.57C56.91 55.42 57 54.46 57.02 55.79C56.94 56.21 57 58.73 56.96 59.95L57.07 61.71C57.03 61.23 57.03 61.65 57.02 62.23L57.02 62.68L57.01 62.83L57.01 62.93C57 63.05 56.99 63.16 56.98 63.2C57.01 63.57 57.05 63.81 57.08 64.11C57.25 63.92 57.42 63.73 57.6 63.56C57.49 63.7 57.61 63.6 57.78 63.45C57.86 63.38 57.96 63.3 58.04 63.24L58.07 63.21L58.12 63.17L58.22 63.09C58.28 63.04 58.31 63.02 58.32 63.02C60.7 60.73 62.05 59.02 64.33 56.88C64.27 56.96 63.86 57.44 64.52 56.81C65.01 56.28 65.91 55.4 66.45 54.85L66.43 54.87L66.46 54.84C66.72 54.57 66.88 54.39 66.88 54.38C67.76 53.39 68.19 52.86 69.98 50.99C69.79 51.06 68.26 52.63 67.61 53.32L67.09 53.96C66.45 54.43 65.45 55.63 65 56.02C65.5 55.42 66.55 54.33 67.7 53.15L69.45 51.36L69.87 50.92L69.95 50.85L70.03 50.77L70.1 50.72C70.19 50.65 70.29 50.59 70.39 50.54C70.59 50.43 70.81 50.37 71.03 50.34C71.3 50.3 71.57 50.32 71.83 50.4C72.09 50.47 72.33 50.6 72.54 50.77C72.58 50.81 72.62 50.84 72.65 50.88L72.7 50.92L72.75 50.98C72.8 51.03 72.82 51.06 72.86 51.11C72.89 51.15 72.92 51.19 72.94 51.23C73 51.32 73.04 51.4 73.08 51.5C72.91 51.04 72.52 50.59 71.93 50.37C71.62 50.25 71.28 50.22 70.96 50.26C70.6 50.31 70.26 50.46 69.98 50.68C69.78 50.85 69.78 50.86 69.71 50.92L69.54 51.09L69.17 51.44L68.4 52.19C67.34 53.22 66.16 54.4 65.07 55.51L66.07 54.57L64.92 55.73L66.1 54.67C65 55.75 64.07 56.71 63.08 57.69C64.23 56.54 64.76 56.17 64.1 56.81C62.75 58.04 62.79 58.18 61.81 59.16C62.36 58.62 63.07 57.91 62.65 58.4C60.64 60.27 60.16 60.84 58.33 62.53C58.41 62.5 58.31 62.62 58.11 62.83L57.87 63.08L57.75 63.21C57.57 63.39 57.39 63.56 57.3 63.73L57.57 63.48C57.42 63.66 57.27 63.83 57.14 63.96C57.13 63.9 57.11 63.83 57.1 63.76C57.12 63.49 57.14 63.41 57.16 63.4C57.18 63.38 57.19 63.44 57.2 63.47C57.22 63.51 57.23 63.53 57.24 63.47C57.25 63.41 57.27 63.28 57.29 63.04C57.29 62.95 57.29 62.86 57.29 62.78L57.27 61.99C57.26 61.51 57.24 61.15 57.23 60.81C57.19 60.12 57.15 59.51 57.15 58.26C57.19 58.67 57.23 59.38 57.25 60.23C57.27 60.65 57.28 61.11 57.28 61.6L57.29 62.84L57.3 62.8C57.3 62.82 57.31 62.62 57.31 62.47L57.33 61.86C57.34 62 57.35 62.25 57.36 62.55L57.36 62.77L57.36 62.82L57.37 62.93C57.37 63.09 57.37 63.26 57.37 63.41L57.45 63.33L57.34 63.48C57.32 63.46 57.32 63.48 57.31 63.54C57.4 63.47 57.64 63.22 57.78 63.14C57.78 63.09 57.72 63.12 57.7 63.13C57.67 63.13 57.69 63.09 57.79 62.96C57.62 63.12 57.56 63.19 57.4 63.33C57.41 63.3 57.41 63.24 57.41 63.17C57.41 63.22 57.41 63.26 57.41 63.3C57.52 63.19 57.61 63.08 57.65 63C57.67 62.97 57.69 62.93 57.7 62.89C57.71 62.88 57.71 62.87 57.71 62.85L57.71 62.85L57.71 62.85L57.72 62.83L57.78 62.77L57.89 62.64C58.47 61.98 59.05 61.33 60.37 60.05C59.12 61.35 60.9 59.68 61.08 59.56C61.67 58.95 62.88 57.72 63.36 57.2L62.83 57.57C64.41 55.93 65.14 55.53 66.92 53.59C67.12 53.3 65.27 55.21 65.59 54.87C66.84 53.57 67.73 52.72 68.59 51.92L69.24 51.33L69.57 51.02L69.74 50.87L69.79 50.83L69.83 50.79L69.85 50.77L69.9 50.73L69.97 50.67C70.01 50.64 70.05 50.61 70.09 50.58C70.73 50.15 71.65 50.1 72.35 50.57C72.44 50.63 72.52 50.7 72.6 50.77L72.66 50.82L72.71 50.87L72.72 50.88L72.75 50.92L72.82 51C73.03 51.27 73.17 51.58 73.23 51.92C73.28 52.25 73.25 52.59 73.14 52.91C73.11 53.02 73.09 53.09 73.06 53.18C73.01 53.31 72.95 53.43 72.88 53.54C72.85 53.58 72.82 53.62 72.79 53.66L72.73 53.73L72.71 53.77C72.67 53.81 72.63 53.86 72.58 53.92C72.44 54.09 72.3 54.25 72.16 54.41C72.36 54.11 71.75 54.68 72.6 53.75C71.83 54.49 70.97 55.42 70.32 56.1C71.92 54.56 69.74 56.82 69.48 57.14C68.66 57.95 69.68 56.84 70.17 56.32C69.5 56.97 68.65 57.67 68.35 58.12C68.31 58.11 68.74 57.61 69.32 56.97C69.91 56.33 70.65 55.54 71.25 54.93L70.42 55.74C70.96 55.15 71.08 55.05 71.9 54.24C71.06 55 71.1 54.88 71.25 54.66C71.36 54.56 71.2 54.73 71.31 54.63C71.97 53.99 72.46 53.48 72.28 53.6C72.8 52.95 71.33 54.47 70.86 54.88L69.87 55.89L66.69 59.51C65.26 60.99 64.56 61.59 63.43 62.65L63.19 63C61.92 64.26 60.71 65.44 61.44 64.55C61.51 64.53 61.67 64.35 61.95 64.08C61.98 64.04 62.04 63.97 62.11 63.88L62.16 63.81L59.92 66.12C62.13 63.74 59.93 65.9 60.21 65.41L57.92 67.77C59.36 66.39 58 67.79 57.51 68.31C57.46 68.33 57.27 68.5 57.03 68.74L56.61 69.16L56.53 69.24C56.5 69.27 56.47 69.3 56.44 69.33C56.37 69.38 56.3 69.44 56.22 69.48L56.17 69.51L56.14 69.53L56.14 69.53L56.14 69.53L56.05 69.57L56.04 69.57L56.03 69.58L56 69.59L55.94 69.61L55.88 69.63C55.78 69.66 55.76 69.67 55.65 69.69L55.58 69.71L55.5 69.71C55.4 69.71 55.34 69.71 55.24 69.7C55.21 69.69 55.18 69.69 55.13 69.69L55.07 69.67L55 69.66L54.88 69.62L54.86 69.61L54.83 69.6C54.77 69.57 54.74 69.56 54.69 69.53L54.64 69.51L54.59 69.48L54.54 69.45L54.5 69.42L54.48 69.41L54.47 69.41L54.47 69.41L54.46 69.4L54.33 69.29L54.33 69.29L54.31 69.27L54.24 69.2L53.95 68.92C53.79 68.76 53.63 68.6 53.47 68.44L53.54 68.49C52.81 67.72 51.48 66.4 50.53 65.48C50.55 65.54 49.25 64.43 48.61 63.91C50.2 65.54 49.22 64.61 49.31 64.77C49.15 64.6 48.85 64.3 48.81 64.27C48.56 64.06 49.1 64.61 49.13 64.67C50.87 66.36 52.64 68.11 53.42 68.73C52.93 68.17 52.49 67.87 51.92 67.26C52.27 67.56 52.64 67.91 53.04 68.3L53.68 68.93L54.02 69.27L54.11 69.36L54.16 69.4L54.18 69.42L54.18 69.43L54.18 69.43L54.18 69.43C54.24 69.48 54.3 69.53 54.35 69.57L54.36 69.58L54.39 69.6L54.45 69.63L54.48 69.65L54.55 69.69C54.64 69.74 54.67 69.75 54.75 69.79L54.78 69.8L54.82 69.81L54.94 69.85L55.02 69.87L55.03 69.88L55.09 69.89C55.15 69.9 55.18 69.9 55.21 69.9C55.33 69.91 55.38 69.92 55.5 69.92L55.6 69.92L55.69 69.9L55.78 69.88L55.85 69.86L55.94 69.84L56.03 69.81L56.07 69.79L56.12 69.78L56.13 69.77L56.13 69.77L56.25 69.71L56.25 69.71L56.25 69.71L56.25 69.72L56.26 69.71L56.35 69.66C56.4 69.63 56.46 69.59 56.51 69.55C56.57 69.5 56.62 69.46 56.67 69.41L56.79 69.29L56.97 69.12L57.48 68.7L58.89 67.24C58.32 67.86 58.73 67.55 57.23 69.07C57.47 68.92 58.71 67.57 59.65 66.66L60.06 66.12C59.91 66.34 61.89 64.38 60.54 65.83L58.31 68.16L58.99 67.57L57.08 69.51L57.5 69.02L56.91 69.62C56.76 69.77 56.59 69.89 56.41 69.99L56.41 69.99L56.26 70.07L56.25 70.07L56.25 70.07L56.24 70.07L56.22 70.08L56.19 70.09L56.15 70.11L56.1 70.12L56.02 70.15L55.96 70.16L55.87 70.19L55.75 70.21L55.63 70.24L55.5 70.24C55.39 70.24 55.27 70.23 55.16 70.22L55.1 70.21C55.06 70.21 55.05 70.21 54.97 70.19L54.91 70.17L54.84 70.15L54.71 70.11L54.67 70.1L54.63 70.08C54.57 70.06 54.54 70.04 54.5 70.02C54.46 70 54.42 69.98 54.33 69.93L54.27 69.89L54.23 69.87L54.21 69.85L54.19 69.84L54.18 69.83L54.18 69.83L53.96 69.65L53.96 69.64L53.81 69.48C53.74 69.4 53.67 69.33 53.6 69.25L53.33 68.91C53.12 68.66 52.74 68.26 51.45 67.03C50.4 66.14 49.34 65.1 47.46 63.17C48.85 64.54 47.65 63.26 48.22 63.73C46.85 62.3 46.3 61.88 45.54 61.18C45.23 60.78 45.01 60.5 46.26 61.76C46.5 61.83 44.59 60.12 44.56 59.92C42.48 57.84 41.57 57.07 40.59 56.21C40.02 55.7 39.46 55.19 38.91 54.66L38.36 54.12L38.06 53.82L38 53.75L37.96 53.71L37.9 53.64C37.83 53.56 37.78 53.49 37.73 53.4C37.51 53.05 37.4 52.64 37.41 52.22C37.42 51.69 37.64 51.18 38.01 50.79L38.04 50.76L38.08 50.72L38.11 50.7L38.19 50.62C38.51 50.36 38.89 50.2 39.3 50.15C39.7 50.1 40.11 50.17 40.48 50.35C40.66 50.43 40.83 50.55 40.98 50.68L41.05 50.75L41.09 50.79L41.08 50.78C41.07 50.78 41.07 50.78 41.05 50.76C41 50.72 40.94 50.67 40.87 50.62C40.73 50.53 40.59 50.46 40.59 50.46C40.73 50.55 40.87 50.65 40.99 50.76L41.16 50.93L41.44 51.2L41.99 51.73L43 52.74L44.85 54.58C46.04 55.77 47.2 56.94 48.65 58.36L50.82 60.71C50.3 60.22 48.87 58.93 49.46 59.61C48.46 58.42 47.26 57.28 46.12 56.05C45.98 55.96 46.44 56.45 46.64 56.68C45.93 55.96 45.61 55.56 44.65 54.64C44.68 54.7 45.68 55.75 44.9 54.99L43.67 53.65C42.8 52.81 42.55 52.63 42.28 52.41C42.1 52.26 41.92 52.11 41.76 51.95C41.64 51.84 41.5 51.71 41.33 51.53L41.04 51.25L40.88 51.08L40.83 51.04L40.76 50.97C40.69 50.91 40.62 50.85 40.55 50.79C40.61 50.83 40.67 50.87 40.73 50.92L40.88 51.04L41.09 51.21C41.26 51.34 41.42 51.48 41.59 51.62C41.99 51.97 42.38 52.32 42.76 52.68C41.85 51.75 44.01 53.88 43.2 53.01C42.5 52.38 42.01 51.9 41.46 51.35L41.04 50.93L40.98 50.87L40.93 50.82C40.61 50.52 40.21 50.34 39.78 50.29C39.35 50.25 38.91 50.35 38.54 50.58C38.43 50.64 38.33 50.72 38.24 50.8L38.21 50.83L38.19 50.85L38.15 50.88L38.13 50.91L38.09 50.95C38.07 50.98 38.04 51.01 38.02 51.04C37.86 51.24 37.75 51.46 37.68 51.7C37.58 52.04 37.58 52.4 37.66 52.74C37.62 52.57 37.6 52.43 37.6 52.3L37.59 52.21C37.59 52.19 37.59 52.18 37.59 52.16L37.6 52.1C37.61 51.83 37.68 51.57 37.8 51.33C37.86 51.22 37.94 51.11 38.02 51L38.09 50.92L38.13 50.88L38.18 50.83L38.2 50.81L38.26 50.76C38.3 50.72 38.33 50.69 38.37 50.66L38.29 50.73L38.24 50.77L38.19 50.81L38.17 50.83L38.1 50.91C37.87 51.15 37.71 51.44 37.62 51.76C37.52 52.15 37.52 52.65 37.74 53.12C37.79 53.23 37.86 53.35 37.93 53.45L37.99 53.53C38.01 53.56 38.04 53.59 38.07 53.62L38.11 53.67L38.16 53.72L38.4 53.96L39.66 55.26C39.07 54.58 41.82 57.32 41.65 57.02C40.3 55.64 39.81 55.16 39.28 54.64L38.34 53.69C38.28 53.63 38.26 53.63 38.11 53.45C37.88 53.16 37.73 52.8 37.7 52.42L37.7 52.34L37.7 52.24L37.7 52.21L37.71 52.11C37.74 51.77 37.86 51.45 38.06 51.17C38.1 51.12 38.14 51.07 38.18 51.03L38.24 50.96L38.29 50.91C38.39 50.82 38.5 50.74 38.61 50.67C38.85 50.53 39.13 50.44 39.41 50.42C39.69 50.4 39.97 50.44 40.23 50.54C39.9 50.42 39.54 50.39 39.19 50.47C38.84 50.55 38.51 50.73 38.26 51C37.98 51.3 37.8 51.69 37.78 52.11L37.77 52.19C37.77 52.22 37.77 52.22 37.77 52.23C37.77 52.59 37.88 52.93 38.08 53.22C38.13 53.3 38.18 53.36 38.24 53.43C38.29 53.48 38.29 53.48 38.31 53.49L38.33 53.52L38.33 53.52L38.34 53.53L38.37 53.55L38.45 53.63L38.78 53.91C38.96 54.07 39.14 54.22 39.33 54.36C39.35 54.39 39.4 54.44 39.49 54.54C40.03 54.95 39.56 54.45 39.69 54.34C39.34 54.03 38.99 53.71 38.65 53.38L38.52 53.26L38.51 53.24L38.48 53.21C38.43 53.16 38.39 53.1 38.35 53.04C38.25 52.88 38.18 52.7 38.15 52.51C38.11 52.33 38.12 52.14 38.16 51.95C38.2 51.77 38.28 51.6 38.39 51.44C38.5 51.28 38.64 51.15 38.8 51.05C38.97 50.94 39.15 50.88 39.34 50.85C39.54 50.81 39.75 50.82 39.94 50.88C40.14 50.93 40.33 51.03 40.48 51.15L41.68 52.31C41.87 52.44 41.65 52.18 41.27 51.78C41.18 51.68 41.08 51.57 40.97 51.46L40.8 51.29L40.71 51.2L40.67 51.16C40.44 50.93 40.15 50.78 39.84 50.73C39.53 50.68 39.2 50.72 38.91 50.86C39.1 50.77 39.3 50.72 39.5 50.7C39.89 50.68 40.27 50.81 40.58 51.05C40.6 51.07 40.63 51.09 40.65 51.11L40.7 51.16L41.46 51.88L41.14 51.62L44.86 55.38C44.15 54.67 43.87 54.47 43.48 54.13C43.96 54.61 44.42 55.11 44.91 55.63C44.86 55.47 44.97 55.49 45.44 55.97C47.84 58.39 49.12 59.78 49.94 60.74L50.23 61.01C50.06 60.78 50.51 61.18 51.11 61.72L52.05 62.59L52.49 62.98L52.69 63.15C52.7 63.17 52.72 63.18 52.73 63.19L52.75 63.21L52.76 63.22L52.8 63.25C52.76 63.27 52.91 63.43 53.11 63.64C53.31 63.85 53.55 64.1 53.75 64.33C53.81 64.32 53.72 64.15 53.61 63.95C53.49 63.74 53.36 63.54 53.22 63.35C53.11 63.26 53.02 63.2 52.95 63.15C52.93 63.14 52.9 63.12 52.87 63.1L52.75 63.01C52.61 62.91 52.57 62.92 52.14 62.58L49.47 60.03L50.11 60.56C48.83 59.23 47.5 58.05 47.67 58.07C48.41 58.71 49.52 59.88 50.25 60.51L49.41 59.62C51.01 61.07 50.12 60.47 52.02 62.27C51.71 61.89 51.75 61.94 51.98 62.16L52.43 62.61L52.71 62.89L52.87 63.03L52.9 63.07L52.91 63.08L52.94 63.09L52.92 63.07C52.92 63.06 52.92 63.06 52.89 63.03L52.71 62.84L52.27 62.39L51.25 61.36C50.59 60.7 50.09 60.17 50.42 60.39C50.92 60.85 51.7 61.69 52.52 62.56C52.62 62.66 52.72 62.77 52.83 62.88L52.9 62.96L52.94 63C52.96 63.02 52.95 63.01 52.96 63.02L53 63.07C53.05 63.13 53.1 63.19 53.16 63.24C53.26 63.35 53.37 63.43 53.41 63.43L53.41 63.45L53.53 63.58C53.53 63.31 53.52 63.1 53.49 62.96C53.48 62.91 53.47 62.85 53.45 62.79L53.44 62.78C53.44 62.77 53.44 62.78 53.44 62.74L53.43 62.57L53.41 62.23C53.46 61.11 53.39 59.55 53.38 58.33L53.43 58.36L53.41 56.64C53.49 57.46 53.41 58.66 53.42 60.14L53.5 59.95C53.45 60.8 53.47 61.51 53.5 62.18L53.53 62.67L53.53 62.73C53.53 62.74 53.53 62.77 53.54 62.77L53.54 62.8L53.56 62.86C53.58 62.95 53.61 63.06 53.62 63.18C53.61 63.1 53.61 63.01 53.6 62.93L53.6 62.8L53.6 62.67L53.59 62.45L53.59 60.62C53.58 59.45 53.56 58.46 53.48 58.23L53.57 57.04L53.54 56.47C53.6 55.59 53.7 56.49 53.71 58.21C53.69 58.51 53.68 58.66 53.67 58.57C53.7 59.37 53.77 60.1 53.75 62.03L53.7 61L53.71 62.56L53.71 62.83L53.71 62.96L53.72 63.23C53.73 63.57 53.76 63.9 53.79 64.19C53.76 64.17 53.73 64.15 53.71 64.14L53.81 64.25L53.83 63.14L53.85 61.1L53.85 56.27C53.66 55.31 53.56 54.17 53.39 53.68C53.37 52.59 53.36 51.3 53.35 50.04L53.36 48.22L53.38 46.68L53.42 46.83C53.42 46.12 53.29 45.41 53.03 44.74C52.91 44.34 52.98 44.47 53.06 44.63C53.14 44.79 53.22 44.98 53.14 44.7C53.14 44.7 53.08 44.54 52.98 44.3C52.85 44.02 52.7 43.75 52.54 43.48C52.37 43.22 52.19 42.97 51.99 42.73C51.83 42.53 51.71 42.41 51.71 42.41C51.79 42.45 52.23 42.89 52.6 43.52C52.8 43.84 52.96 44.18 53.1 44.53C53.22 44.84 53.32 45.16 53.39 45.48C53.34 45.28 53.21 44.89 53.24 45.02C53.32 45.32 53.41 45.69 53.47 46.1C53.5 46.3 53.52 46.51 53.53 46.72C53.54 46.82 53.54 46.92 53.55 47.04L53.55 47.39C53.57 48.33 53.57 49.17 53.52 49.49C53.54 50.2 53.43 48.05 53.43 50.45C53.38 52.05 53.49 52.58 53.52 52.75C53.56 52.77 53.58 50.22 53.63 51.11C53.63 49.86 53.57 49.36 53.61 47.76C53.62 49 53.71 50.68 53.64 51.34C53.72 53.8 53.93 53.44 53.94 52.29C53.88 52.56 53.86 47.81 53.78 51.03C53.74 50.31 53.71 49.29 53.7 48.21L53.68 47.4L53.68 46.99C53.68 46.87 53.67 46.75 53.66 46.63C53.63 46.16 53.55 45.7 53.43 45.3L53.47 45.37C53.47 45.37 53.35 44.87 53.14 44.39C52.95 43.91 52.68 43.46 52.68 43.46C52.76 43.58 52.88 43.78 52.98 43.95C53.08 44.12 53.15 44.27 53.18 44.27C53.18 44.27 53.1 44.1 52.97 43.87C52.66 43.29 52.26 42.75 51.79 42.28C51.61 42.09 51.47 41.97 51.47 41.97C51.77 42.24 51.87 42.34 51.86 42.31C51.84 42.29 51.72 42.13 51.52 41.94C51.33 41.74 51.07 41.52 50.81 41.32C50.59 41.16 50.37 41 50.14 40.86C49.84 40.75 48.81 40.34 49.76 40.83C50.27 41.13 50.41 41.23 50.55 41.3C50.69 41.39 50.83 41.44 51.25 41.8C51.25 41.8 50.94 41.56 50.61 41.36C50.28 41.16 49.94 41 49.94 41L49.83 40.93C49.83 40.93 49.62 40.84 49.4 40.76C49.19 40.69 48.97 40.63 48.97 40.63C48.49 40.46 48.29 40.41 48.24 40.38C48.2 40.35 48.29 40.35 48.37 40.35C48.45 40.35 48.51 40.35 48.39 40.31C48.27 40.27 47.97 40.18 47.3 40.13L47.47 40.21L47.63 40.29C47.44 40.26 47.25 40.24 47.05 40.22C46.95 40.22 46.86 40.21 46.76 40.21L46.43 40.2L45 40.18L42.09 40.14C40.19 40.11 38.41 40.09 37.16 40.12C37.85 40.05 38.16 39.94 37.2 39.87C38.29 39.89 40.47 39.89 42.02 39.88C42.32 39.9 40.08 40.02 38.39 39.99C39.21 40.19 42.64 39.88 42.84 40.07C44.99 40.11 45.8 40.06 46.52 40.02L46.77 40.01C46.85 40 46.93 40 47.01 40C47.18 40 47.36 40.01 47.57 40.04C47.99 40.09 48.53 40.2 49.26 40.52C49.3 40.49 49.52 40.57 49.74 40.67C49.97 40.77 50.2 40.9 50.29 40.91C50.1 40.75 49.76 40.54 49.31 40.35C48.86 40.15 48.29 39.99 47.67 39.9C47.36 39.86 47.04 39.83 46.72 39.83L45.66 39.84C44.96 39.85 44.27 39.85 43.68 39.83C43.91 39.83 44.38 39.81 44.47 39.8C42.78 39.77 42.08 39.79 40.89 39.82L41.04 39.83C38.97 39.92 39.76 39.77 38.54 39.73C38.07 39.74 36.37 39.72 36.65 39.78L34.44 39.7L34.55 39.8C33.3 39.8 33.03 39.74 31.9 39.8L31.85 39.89L34.94 39.92C33.37 39.95 34.5 40 32.78 40.02C34.7 39.92 31.42 39.97 31.23 39.89L29.96 39.94L30.29 39.91C29.3 39.87 29.11 39.95 27.95 39.94C29.31 39.99 30.21 40.05 31.95 39.98C30.68 40.03 28.17 40.09 27.55 40.09C26.22 40.13 25.29 40.06 24.04 40.05C26.43 40.02 23.2 39.78 28 39.85C27.91 39.86 27.52 39.86 27.37 39.85C28.01 39.96 30.24 39.84 31.28 39.8C31.01 39.73 32.1 39.72 30.26 39.68C30.86 39.72 28.71 39.83 26.95 39.77L27.26 39.64L24.71 39.62L24.95 39.61C24.47 39.57 23.79 39.57 23.01 39.58L22.4 39.59C22.2 39.59 21.99 39.59 21.76 39.59C21.3 39.58 20.85 39.54 20.4 39.47C20.07 39.43 19.5 39.34 18.89 39.18C18.28 39.02 17.62 38.77 17.09 38.53C16.55 38.29 16.14 38.05 15.96 37.97C15.79 37.88 15.85 37.96 16.32 38.26C15.61 37.82 14.96 37.37 14.34 36.86C13.72 36.34 13.12 35.76 12.57 35.03C12.57 35.03 12.89 35.5 13.27 35.93C13.65 36.37 14.06 36.77 14.06 36.77C13.68 36.45 13.33 36.1 12.99 35.74C12.76 35.48 12.62 35.3 12.49 35.14C12.34 34.97 12.2 34.79 12.06 34.61C11.82 34.29 11.59 33.96 11.38 33.62C11.31 33.41 11.13 32.95 11.36 33.34C10.91 32.45 10.58 31.5 10.38 30.53C10.16 29.5 10.08 28.43 10.13 27.41C10.18 26.39 10.36 25.43 10.6 24.6C10.84 23.78 11.12 23.1 11.34 22.6C11.59 22.12 11.88 21.66 12.2 21.22C12.48 20.85 12.75 20.54 13.05 20.22C13.39 19.86 13.76 19.51 14.13 19.19C14.58 18.8 15.13 18.36 15.9 17.87C16.22 17.67 16.08 17.72 16.11 17.67C16.13 17.64 16.19 17.59 16.39 17.48C16.59 17.37 16.91 17.2 17.48 16.98C17.55 16.95 17.02 17.2 16.8 17.34C16.69 17.41 16.64 17.44 16.78 17.39C16.91 17.33 17.22 17.17 17.85 16.93C18.72 16.55 19.83 16.28 21.02 16.2C21.32 16.18 21.63 16.17 21.93 16.17L22.79 16.18C23.37 16.18 23.95 16.17 24.52 16.15C25.74 16.19 27.85 16.17 27.41 16.26C25.48 16.24 22.76 16.26 22.34 16.3C22.47 16.27 22.14 16.26 21.93 16.25C21.82 16.24 21.76 16.24 21.81 16.23C21.84 16.23 21.89 16.23 21.99 16.22L22.39 16.21L21.88 16.2C21.72 16.2 21.57 16.2 21.43 16.21C21.16 16.22 20.93 16.24 20.74 16.26C20.36 16.3 20.12 16.34 19.89 16.39C19.66 16.44 19.45 16.49 19.12 16.58C18.79 16.67 18.35 16.79 17.69 17.03C17.61 17.08 17.95 16.96 18.39 16.84C18.83 16.71 19.37 16.59 19.66 16.51C19.67 16.54 19.34 16.62 18.88 16.76C18.43 16.9 17.86 17.1 17.37 17.32C16.89 17.54 16.5 17.77 16.36 17.86C16.22 17.96 16.33 17.91 16.89 17.66C17.45 17.39 18.03 17.15 18.62 16.95C19.13 16.77 19.58 16.64 20.02 16.55C20.47 16.44 20.93 16.38 21.4 16.35C21.52 16.34 21.65 16.34 21.77 16.33C21.9 16.33 22.03 16.33 22.16 16.34C22.42 16.34 22.7 16.35 23 16.37C22.76 16.38 22.48 16.39 22.19 16.4L21.71 16.41C21.54 16.42 21.37 16.43 21.2 16.44C20.51 16.49 19.79 16.63 19.18 16.85C19.18 16.85 19.69 16.73 20.21 16.66C20.72 16.59 21.24 16.57 21.24 16.57C21.24 16.57 21.62 16.52 21.99 16.5L22.72 16.46L22.63 16.48C26.14 16.58 25.88 16.36 29.02 16.3C27.2 16.22 29.44 16.1 28.07 16.05C30.17 16.04 31.71 16.05 31.73 16.17C27.8 16.26 31.5 16.29 27.87 16.41C28.47 16.45 27.01 16.58 29.17 16.59C31.61 16.51 28.44 16.49 30.87 16.45C31.02 16.46 31.17 16.47 31.08 16.49C32.2 16.43 32.39 16.51 33.74 16.45L33.42 16.47C35.09 16.54 35.24 16.39 36.68 16.47C36.11 16.38 37.65 16.4 38.54 16.34C37.08 16.31 36.29 16.19 33.42 16.19C33.07 16.26 33.28 16.3 32.1 16.33L33.97 16.32L32.89 16.37L31.1 16.33C33.37 16.28 32.33 16.21 33.29 16.14C35.38 16.17 35.01 16.12 36.32 16.14C36.19 16.24 40.33 16.31 42.73 16.38L41.62 16.37C39.88 16.44 42.82 16.46 42.88 16.48L44.15 16.43C43.91 16.44 43.58 16.46 44.12 16.48C45.84 16.46 45.74 16.36 47.46 16.34C47.58 16.4 46.13 16.48 47.2 16.51C47.57 16.56 48.74 16.68 51.02 16.64C51.18 16.61 51.77 16.6 52.45 16.59C52.36 16.6 52.24 16.6 52.2 16.6L53.71 16.66C52.42 16.76 51.1 16.62 49.81 16.71L49.7 16.8C48.69 16.8 47.32 16.84 46.69 16.89C48.23 16.9 48.55 16.88 50.27 16.86C50.51 16.92 49.3 16.96 49.12 16.96L49.38 16.91C47.33 16.84 46.32 17 43.76 16.98C43.38 16.98 43.61 16.97 43.7 16.96C41.63 17.04 39.6 16.92 37.59 17.04L38.25 16.99L31.54 17.2L31.51 17.24C31.81 17.26 30.81 17.25 30.27 17.24L30.27 17.24L26.59 17.35C26.93 17.37 27.36 17.39 27.85 17.4C28.27 17.35 30.73 17.39 30.39 17.3C31.53 17.35 33.35 17.27 34.19 17.31C32.67 17.25 35.24 17.22 35.51 17.17C36.02 17.23 37.76 17.16 37.56 17.24C37.86 17.26 36.82 17.19 36.17 17.24C34.58 17.31 39.08 17.3 37.1 17.37C39.62 17.32 42.94 17.34 45.54 17.27L44.08 17.24C45.24 17.25 47.97 17.23 48.18 17.27L45.22 17.29C45.16 17.38 47.86 17.29 47.98 17.35L51.17 17.2L49.77 17.19C50.65 17.14 53.57 17.2 55.74 17.22C54.49 17.34 52.47 17.22 50.19 17.27C48.54 17.32 51.21 17.39 49.65 17.42C50.05 17.44 51.08 17.44 51.58 17.41L52.2 17.43C50.8 17.54 47.67 17.52 45.58 17.61C45.77 17.6 45.93 17.59 45.99 17.58C44.38 17.53 42.75 17.53 41.19 17.56C42.01 17.6 42.34 17.57 42.81 17.56C42.87 17.59 41.4 17.6 40.84 17.63C42.29 17.66 41.11 17.7 42.03 17.71C41.08 17.74 40.31 17.73 39.16 17.72C38.56 17.68 39.65 17.66 39.53 17.61C38.34 17.64 37.8 17.51 36.06 17.57C38.37 17.6 35.45 17.69 34.65 17.73L35.04 17.73C34.3 17.8 33.68 17.8 33.17 17.74C34.12 17.72 35.04 17.73 34.77 17.67C34.14 17.67 33.52 17.67 32.81 17.69L33.45 17.65L30.34 17.66C29.85 17.72 29.02 17.8 28.59 17.88C27.85 17.83 26.81 17.87 26.1 17.89L26.43 17.87C25.74 17.85 24.64 17.84 23.67 17.85C23.19 17.86 22.74 17.87 22.39 17.88C22.22 17.88 22.07 17.89 21.97 17.9C21.86 17.9 21.79 17.91 21.76 17.92C21.65 17.91 21.67 17.9 21.77 17.89C21.84 17.88 21.91 17.87 21.98 17.87L22.31 17.84L23.98 17.74C24.47 17.71 24.78 17.67 24.53 17.65C24.41 17.64 24.14 17.64 23.7 17.63L22.88 17.63L22.35 17.63C22.16 17.63 21.96 17.63 21.76 17.64C21.14 17.66 20.73 17.72 20.45 17.78C20.18 17.84 20.02 17.89 19.91 17.94C19.67 18.04 19.56 18.1 18.91 18.33C18.91 18.33 18.98 18.29 18.84 18.33C18.33 18.49 18.06 18.62 17.83 18.74C17.59 18.87 17.37 19 17 19.22C17.31 19.06 17.63 18.91 17.95 18.77C18.27 18.63 18.55 18.52 18.69 18.46C18.55 18.54 18.03 18.73 17.48 19C16.93 19.27 16.36 19.63 16.05 19.9C16.45 19.55 16.02 19.83 15.59 20.17C15.17 20.51 14.77 20.92 15.04 20.61C14.24 21.31 13.57 22.2 13.11 23.06C12.65 23.92 12.41 24.73 12.3 25.27C12.04 25.94 11.93 26.57 11.89 27.31C11.86 28.05 11.88 28.9 12.07 30.05C12 29.7 11.89 29.06 11.88 28.55C11.82 27.89 11.81 28.5 11.85 29.01C11.87 29.27 11.9 29.5 11.9 29.55C11.9 29.59 11.86 29.44 11.79 28.93C11.85 29.37 11.83 28.96 11.79 28.51C11.74 27.72 11.79 26.98 11.73 27.17C11.73 27.17 11.67 27.65 11.66 28.13C11.64 28.62 11.68 29.1 11.68 29.1C11.68 29.1 11.66 28.93 11.64 28.77C11.62 28.6 11.61 28.43 11.61 28.43C11.61 28.43 11.61 29.17 11.72 29.9C11.77 30.24 11.84 30.57 11.92 30.9C11.99 31.17 12.04 31.35 12.04 31.35C12.08 31.42 12.01 31.15 11.98 31.01C12.23 31.86 12.58 32.68 13.04 33.44C13.51 34.21 14.08 34.92 14.73 35.54C16.02 36.79 17.6 37.62 19.04 38.05C19.19 38.03 19.71 38.15 20.46 38.24C20.83 38.29 21.26 38.32 21.73 38.33L23.29 38.32C25.49 38.3 27.94 38.3 29.22 38.23C28.53 38.3 28.15 38.41 28.58 38.46C28.01 38.47 26.84 38.57 25.54 38.55C25.33 38.51 23.73 38.47 24.76 38.42C21.18 38.45 25.25 38.53 24.19 38.62C28.16 38.59 30.49 38.46 33 38.4L33.06 38.43L34.95 38.37C33.41 38.36 33.48 38.23 35.48 38.27L35.24 38.28C36.37 38.34 38.74 38.27 40.52 38.28L41.72 38.2C43.5 38.21 43.58 38.35 44.15 38.44C44.79 38.44 45.42 38.44 46.05 38.43C46.34 38.42 46.6 38.41 46.9 38.41C47.18 38.41 47.46 38.43 47.73 38.45C48.8 38.56 49.77 38.82 50.74 39.3C50.95 39.43 51.35 39.68 51.77 40C52.19 40.32 52.62 40.73 52.93 41.08C53.25 41.44 53.47 41.75 53.52 41.83C53.56 41.93 53.47 41.79 53.06 41.35C53.52 41.85 53.81 42.23 54.05 42.56C54.29 42.89 54.48 43.17 54.67 43.53C54.86 43.88 55.05 44.31 55.21 44.96C55.29 45.28 55.36 45.66 55.4 46.1C55.42 46.34 55.42 46.58 55.42 46.82L55.42 47.02L55.41 47.2L55.4 47.6L55.37 47.04C55.36 46.9 55.35 46.76 55.34 46.62C55.33 46.5 55.32 46.43 55.32 46.43C55.34 46.71 55.34 47.01 55.34 47.27L55.34 48.09L55.36 49.81L55.4 53.26C55.42 55.49 55.44 57.43 55.4 58.38C55.3 57.62 55.24 58.91 55.19 60.48L55.1 62.85C55.07 63.82 55.03 64.53 54.97 64.7C55 64.6 55.01 65.05 55.03 65.59C55.04 66.13 55.05 66.75 55.06 66.93L55.05 67.23C54.71 66.87 54.29 66.44 53.86 66.06C54.56 66.79 54.45 66.74 54.35 66.7C54.26 66.66 54.23 66.67 55.21 67.62L55.19 66.58L55.25 67.72C54.54 67.09 53.64 66.26 52.47 65.15L50.95 63.68C50.47 63.21 49.99 62.74 49.52 62.26L49.62 62.24L51.51 64.16C51.47 64.1 51.5 64.12 51.58 64.18L51.65 64.24L51.68 64.28L51.75 64.34L52.04 64.62C52.47 65.03 53 65.55 53.3 65.83L51.79 64.29L51.62 64.1L51.49 63.96C51.41 63.88 51.36 63.82 51.32 63.77C51.15 63.58 51.23 63.62 51.29 63.65C51.43 63.73 51.55 63.8 49.74 61.99C49.35 61.68 49.59 61.89 48.63 60.96C49.08 61.4 49.2 61.44 48.49 60.73L47.75 60.09C46.59 58.72 49.91 62.12 48.91 60.96L51.35 63.28C51.52 63.44 51.7 63.6 51.87 63.75C52.03 63.9 52.17 64.03 52.28 64.13C52.51 64.33 52.59 64.38 52.48 64.22L52.04 63.78L51.69 63.43C51.5 63.24 51.3 63.05 51.1 62.87C50.75 62.54 50.47 62.3 50.19 62.06C49.63 61.57 49.05 61.06 47.87 59.85L47.65 59.56C46.79 58.74 46.6 58.66 46.1 58.23C46.08 58.17 45.88 57.94 45.35 57.4C43.85 56.06 42.89 55.13 41.49 53.91C45.04 57.33 44.41 56.95 48.07 60.49C47.48 59.95 44.93 57.44 44.68 57.37L44.78 57.34C43.58 56.2 42.38 55.06 40.93 53.57L41.86 54.44C41.4 53.99 40.95 53.55 40.5 53.09L39.9 52.47L39.64 52.19C39.63 52.18 39.61 52.17 39.6 52.16C39.58 52.15 39.56 52.15 39.54 52.15C39.52 52.15 39.5 52.16 39.48 52.17C39.47 52.18 39.45 52.2 39.45 52.22C39.44 52.23 39.43 52.25 39.44 52.27C39.44 52.29 39.44 52.31 39.46 52.33C39.46 52.33 39.46 52.34 39.47 52.34L39.47 52.35C39.47 52.34 39.46 52.33 39.47 52.34L39.6 52.46C39.79 52.65 39.99 52.83 40.19 53L39.51 52.31C39.5 52.3 39.5 52.29 39.49 52.28L39.49 52.27C39.49 52.27 39.49 52.26 39.49 52.28L39.49 52.25C39.49 52.27 39.49 52.24 39.49 52.24C39.49 52.26 39.49 52.28 39.5 52.29C39.5 52.3 39.51 52.31 39.51 52.31L39.68 52.47L40.53 53.31C41.11 53.89 41.69 54.48 42.23 55.03L44.59 57.19C44.54 57.2 45.97 58.63 45.23 57.99C46.81 59.66 47.67 60.33 48.62 61.26C50.22 62.99 47.15 59.85 46.9 59.77C49.16 62.09 51.62 64.49 52.97 65.73C52.52 65.25 52.3 65.01 52.34 65.02C52.39 65.11 53.32 66.03 53.83 66.55L54.23 66.86C55.06 67.74 54.91 67.65 54.15 66.95C54.39 67.19 54.64 67.43 54.88 67.66L55.27 68.03L55.37 68.12L55.42 68.17L55.44 68.19L55.46 68.2L55.46 68.21L55.46 68.21C55.92 67.81 54.83 68.77 54.96 68.64L55 68.59L55.07 68.48L55.32 68.09L55.36 68.12L55.39 68.13L55.4 68.14L55.41 68.14C55.41 68.14 55.41 68.14 55.37 68.2L55.29 68.35L55.2 68.5C55.14 68.57 55.19 68.51 55.18 68.52L55.2 68.49L55.24 68.41L55.39 68.13L55.39 68.13L55.41 68.14C55.42 68.14 55.43 68.15 55.43 68.15L55.38 68.13C55.41 68.14 55.44 68.15 55.44 68.15L55.44 68.15L55.42 68.21C55.41 68.25 55.4 68.28 55.39 68.32C55.36 68.39 55.34 68.46 55.33 68.53L55.3 68.71L55.3 68.73C55.29 68.73 55.3 68.74 55.29 68.74L55.29 68.72L55.3 68.68L55.32 68.6C55.34 68.47 55.36 68.33 55.37 68.2L55.38 68.14C55.38 68.13 55.38 68.14 55.38 68.13L55.38 68.13L55.38 68.13C55.41 68.13 55.48 68.14 55.5 68.14L55.44 68.65L55.38 68.39L55.33 68.15L55.33 68.15L55.35 68.15L55.38 68.14L55.43 68.13C55.44 68.16 55.4 68 55.52 68.42L55.58 68.6L55.61 68.69L55.62 68.71C55.66 68.85 55.25 67.6 55.42 68.13L55.42 68.13L55.42 68.13L55.44 68.13L55.47 68.12L55.47 68.11L55.47 68.11L55.47 68.11L55.47 68.11L55.48 68.13L55.51 68.23L55.59 68.44L55.65 68.6L55.68 68.67L55.7 68.71L55.7 68.73L55.71 68.74C55 67.6 55.51 68.42 55.35 68.17L55.38 68.16C55.42 68.14 55.45 68.11 55.48 68.08L55.7 67.88L55.93 67.67L55.51 68.11C55.48 68.15 55.45 68.18 55.41 68.2L55.38 68.22L55.38 68.22C55.31 68.11 56 69.21 55.71 68.74L55.7 68.73L55.69 68.69L55.66 68.61L55.6 68.46L55.52 68.25L55.49 68.16L55.49 68.16L55.48 68.17L55.45 68.18L55.44 68.18L55.44 68.18L55.44 68.18C55.52 68.42 55.26 67.65 55.61 68.71L55.61 68.7L55.58 68.62L55.53 68.43L55.46 68.22C55.44 68.16 55.45 68.18 55.45 68.18L55.45 68.18L55.45 68.18L55.39 68.2L55.36 68.21L55.35 68.21L55.34 68.21C55.34 68.22 55.34 68.19 55.35 68.26L55.38 68.39L55.43 68.65L55.5 68.19C55.47 68.2 55.4 68.19 55.38 68.19C55.37 68.19 55.37 68.19 55.37 68.19C55.35 68.35 55.34 68.48 55.32 68.6L55.3 68.68L55.29 68.72L55.29 68.73C55.3 68.74 55.29 68.73 55.3 68.73L55.3 68.71L55.33 68.53C55.34 68.46 55.36 68.39 55.39 68.32C55.4 68.28 55.41 68.25 55.42 68.21C55.43 68.19 55.42 68.21 55.42 68.2L55.36 68.18L55.41 68.2L55.38 68.19L55.37 68.18L55.37 68.18L55.37 68.19L55.35 68.21L55.31 68.29L55.22 68.46L55.19 68.5L55.18 68.52C55.2 68.49 55.13 68.59 55.22 68.47L55.38 68.19L55.38 68.19L55.38 68.19L55.32 68.16L55.3 68.14L55.29 68.14L55.29 68.14L55.04 68.53L54.96 68.65C55.89 67.85 55.22 68.43 55.43 68.25L55.43 68.25L55.42 68.24L55.42 68.24L55.21 68.03L54.8 67.63L54.03 66.86C53.55 66.37 53.14 65.96 52.86 65.7C53.39 66.22 53.92 66.75 54.45 67.29L55.04 67.91L55.31 68.2L55.38 68.28L55.39 68.28L55.39 68.29L55.39 68.29C55.48 68.21 54.57 68.98 54.98 68.62L55.19 68.3L55.24 68.22C55.25 68.21 55.26 68.2 55.27 68.18L55.27 68.18L55.26 68.18L55.28 68.19L55.32 68.22L55.35 68.24L55.35 68.24L55.35 68.24L55.24 68.43C55.19 68.52 55.16 68.55 55.18 68.53L55.19 68.51L55.2 68.49L55.26 68.38C55.3 68.32 55.36 68.2 55.34 68.23C55.34 68.24 55.34 68.24 55.35 68.24L55.39 68.26L55.34 68.25L55.41 68.27L55.41 68.27L55.41 68.27C55.41 68.27 55.41 68.27 55.41 68.27L55.4 68.28L55.39 68.31C55.37 68.38 55.35 68.45 55.33 68.52L55.3 68.7C55.3 68.71 55.3 68.73 55.29 68.74L55.3 68.7L55.32 68.62L55.35 68.43L55.37 68.26C55.37 68.26 55.37 68.27 55.37 68.27C55.4 68.27 55.47 68.28 55.5 68.28L55.44 68.65C55.41 68.53 55.39 68.41 55.36 68.3C55.36 68.29 55.36 68.29 55.36 68.29L55.37 68.29L55.39 68.29L55.44 68.28L55.48 68.27L55.48 68.27L55.48 68.27L55.48 68.29L55.53 68.44C55.56 68.53 55.58 68.61 55.61 68.69C55.55 68.5 55.77 69.17 55.47 68.27L55.47 68.27L55.47 68.27L55.48 68.27L55.5 68.26L55.52 68.26C55.52 68.26 55.53 68.26 55.53 68.26L55.62 68.51C55.65 68.59 55.67 68.66 55.7 68.73C55.96 69.14 55.37 68.21 55.43 68.3L55.43 68.3L55.44 68.3L55.44 68.3L55.44 68.29L55.45 68.29L55.46 68.29C55.48 68.28 55.5 68.27 55.52 68.26C55.53 68.25 55.55 68.23 55.57 68.22L55.62 68.17L55.8 68L56.59 67.25C57.16 66.69 57.86 65.99 58.78 65.05C58.84 65.02 58.25 65.69 58.97 64.97C60.6 63.3 59.31 64.46 59.79 63.9C58.54 65.19 57.92 65.76 57.13 66.45L57.44 66.08C57.51 66.04 58.31 65.24 58.56 65.02L58.7 64.75C58.68 64.92 60.01 63.7 60.99 62.66C59.92 63.63 60.2 63.36 59.84 63.55C61.17 62.05 61.51 62.03 63.01 60.36C62.91 60.5 61.55 61.9 62.76 60.73C63.76 59.74 63.57 59.81 64.21 59.13C63.53 59.94 63.76 59.8 63.03 60.68C61.28 62.45 62.32 61.39 60.63 63.13L62.13 61.73C60.65 63.23 61.12 62.89 61.02 63.03C63.63 60.55 62.84 61.02 64.5 59.4C65.24 58.57 62.96 60.93 64.15 59.65C65.68 58.12 64.45 59.26 66.14 57.51L65.89 57.83C66.45 57.34 66.92 56.77 67.52 56.16C68.17 55.47 66.55 56.7 69.29 53.95C69.18 54.1 69.14 54.16 69.15 54.17L66.99 57.37L71.44 52.94L71.59 52.79C71.63 52.75 71.69 52.69 71.72 52.66C71.82 52.55 71.87 52.4 71.87 52.25C71.86 52.09 71.8 51.95 71.69 51.84C71.56 51.7 71.34 51.63 71.14 51.67C71.04 51.69 70.95 51.74 70.87 51.8C70.83 51.83 70.78 51.89 70.73 51.94L70.58 52.08L68.15 54.47C67.28 55.13 70.36 52.09 70.12 52.24L70.35 52.01L70.59 51.78C70.68 51.69 70.77 51.6 70.88 51.54C71.11 51.43 71.38 51.44 71.55 51.51C71.65 51.55 71.74 51.61 71.82 51.68C71.8 51.68 71.74 51.63 71.64 51.58C71.5 51.51 71.35 51.48 71.2 51.5C71.01 51.52 70.83 51.61 70.7 51.76L70.24 52.23C69.65 52.83 69.24 53.26 69.95 52.63L70.41 52.15L70.64 51.93C70.71 51.86 70.78 51.77 70.84 51.73C71.1 51.51 71.49 51.54 71.71 51.74C71.95 51.93 72.02 52.27 71.91 52.53C71.88 52.59 71.85 52.65 71.8 52.71C71.76 52.76 71.7 52.82 71.64 52.88L71.29 53.23C70.37 54.16 69.47 55.08 68.28 56.35C68.71 56.02 69.52 55.21 70.43 54.28L71.83 52.86C72.08 52.64 72.15 52.28 72.05 51.98C71.95 51.68 71.68 51.47 71.39 51.42C71.51 51.43 71.62 51.48 71.72 51.54C71.82 51.6 71.9 51.68 71.97 51.78C72.1 51.96 72.15 52.19 72.12 52.41C72.09 52.62 71.97 52.81 71.82 52.95L71.42 53.38L71.7 53.1C71.8 53 71.9 52.92 71.99 52.8C72.16 52.57 72.22 52.25 72.12 51.97C72.07 51.82 71.98 51.7 71.87 51.59C71.76 51.49 71.63 51.42 71.48 51.38C71.19 51.31 70.85 51.39 70.63 51.61L68.11 54.08L67.75 54.49L69.83 52.46C68.29 53.98 67.06 55.33 67.03 55.5L67.3 55.23L66.77 55.81C66.41 56.16 66.05 56.52 65.69 56.87ZM60.93 18.59C60.8 18.6 60.7 18.61 60.62 18.62C60.7 18.61 60.61 18.6 60.93 18.59ZM48.45 62.63L54.46 68.73C51.08 65.05 48.7 62.45 54.61 68.36L54.8 68.55L54.94 68.68L54.95 68.69L54.96 68.69L54.96 68.69L54.94 68.68L54.94 68.68L54.94 68.68L54.94 68.68L54.95 68.68L54.97 68.69L54.99 68.71L54.95 68.68L54.94 68.68L54.94 68.68L54.96 68.69L54.96 68.69L54.96 68.69L54.95 68.68L54.93 68.66L54.86 68.58L54.7 68.41L54.34 68.05L53.52 67.22C52.9 66.6 52.28 65.98 51.66 65.37L48.99 62.99L47.69 61.84L47.29 61.5C47.19 61.41 47.14 61.37 47.14 61.38C47.46 61.78 48.03 62.26 48.67 62.92L48.45 62.63ZM47.25 60.94C46.11 59.76 46.34 60.06 46.13 59.91L47.35 61.11C47.21 60.95 47.14 60.87 47.25 60.94ZM46.17 60.01C46.3 60.14 46.41 60.25 46.46 60.31L46.17 60.01ZM68.9 55.84L68.79 55.96L69.63 55.14C69.51 55.24 69.29 55.45 68.9 55.84ZM66.48 58.12L66.26 58.45C66.52 58.19 66.79 57.93 67.05 57.67C66.94 57.74 66.82 57.81 66.48 58.12ZM58.76 65.49C58.35 66.03 56.76 67.62 56.74 67.8C56.65 67.92 57 67.59 57.38 67.22L58.73 65.88C58.73 65.86 58.82 65.75 58.97 65.58C58.49 66.04 58.15 66.34 58.3 66.1C59.61 65 59.31 64.95 60.64 63.67C61 63.2 59.13 65.07 58.76 65.49ZM21.95 17.09C22 17.1 22.18 17.12 22.44 17.15L21.79 17.18C21.47 17.2 21.15 17.24 21.15 17.24C20.02 17.32 19 17.52 18.05 17.86C17.11 18.21 16.23 18.69 15.45 19.36C14.66 19.92 14.26 20.25 13.87 20.58C14.17 20.26 14.48 19.96 14.82 19.69C15.26 19.27 15.75 18.9 16.26 18.58C16.6 18.36 16.96 18.17 17.32 18C17.9 17.75 18.24 17.66 18.55 17.59C18.85 17.52 19.12 17.47 19.6 17.37C20.09 17.29 20.78 17.14 21.95 17.09ZM14.69 36.42C14.5 36.27 14.43 36.22 14.43 36.22C15.37 37.03 16.45 37.68 17.6 38.15C18.63 38.56 19.7 38.82 20.8 38.92C21.32 38.97 21.81 38.97 22.28 38.96L23.66 38.95C24.44 38.94 25.23 38.94 26.02 38.94C25.48 38.86 22.97 38.81 21.79 38.77L22.84 38.68L23.49 38.75L25.32 38.67C24.81 38.61 23.33 38.63 22.35 38.58C22.33 38.59 22.1 38.6 21.8 38.61C21.41 38.61 21.02 38.6 20.63 38.57C20.2 38.53 19.76 38.46 19.33 38.37C19.01 38.3 18.7 38.22 18.38 38.13C18.38 38.13 18.96 38.36 19.56 38.51C20.15 38.66 20.77 38.75 20.77 38.75C20.44 38.7 19.46 38.56 18.45 38.21C17.95 38.03 17.46 37.83 16.99 37.58C16.61 37.39 16.24 37.17 15.89 36.94C15.86 36.95 16.31 37.29 16.83 37.58C17.35 37.88 17.94 38.12 18.09 38.12C18.2 38.2 17.65 38.01 17.28 37.84C17.09 37.76 16.94 37.69 16.93 37.69C16.91 37.7 17.03 37.78 17.4 37.98C16.9 37.76 16.41 37.5 15.95 37.2C15.44 36.86 14.96 36.49 14.52 36.07C13.63 35.23 12.97 34.28 12.62 33.65L12.59 33.38C12.22 32.68 12.1 32.45 11.95 32.18C11.86 32.02 11.78 31.85 11.72 31.67C11.63 31.45 11.53 31.14 11.43 30.68C11.58 31.24 11.68 31.49 11.72 31.58C11.77 31.67 11.76 31.6 11.75 31.52C11.74 31.45 11.72 31.35 11.74 31.39C11.77 31.42 11.82 31.59 11.99 32.01C11.91 31.74 11.93 31.72 11.9 31.57C11.89 31.49 11.86 31.37 11.8 31.17C11.75 30.97 11.66 30.68 11.57 30.24C11.34 29.51 11.33 29.02 11.33 28.56C11.33 28.09 11.35 27.64 11.36 26.92C11.43 26.45 11.43 26.71 11.43 26.85C11.43 26.92 11.43 26.97 11.45 26.87C11.47 26.78 11.5 26.56 11.58 26.1C11.66 25.58 11.75 25.19 11.82 24.91C11.89 24.63 11.94 24.44 11.97 24.32C12.02 24.06 11.99 24.05 11.96 23.97C11.8 24.35 11.67 24.74 11.57 25.14C11.49 25.47 11.45 25.74 11.42 26C11.36 26.52 11.32 26.99 11.28 27.82C11.28 27.82 11.27 27.61 11.28 27.3C11.28 26.93 11.31 26.55 11.35 26.17C11.4 25.79 11.46 25.42 11.55 25.05C11.62 24.74 11.67 24.54 11.67 24.54C11.45 25.12 11.35 25.56 11.28 25.94C11.4 25.28 11.54 24.72 11.68 24.25C11.75 24 11.83 23.75 11.92 23.51C11.53 24.38 11.28 25.26 11.14 25.95C11 26.64 10.96 27.14 10.93 27.29L10.9 27.02C10.84 27.36 10.82 27.81 10.84 28.24C10.85 28.67 10.91 29.07 10.95 29.32C11.05 30.18 11.28 31.02 11.52 31.66C11.76 32.32 12 32.78 12.05 32.97L11.89 32.68C11.81 32.54 11.73 32.39 11.73 32.39C11.91 32.79 12.1 33.18 12.32 33.56C12.49 33.85 12.67 34.13 12.87 34.4C13.39 35.15 14 35.82 14.69 36.42ZM51.38 62.56C51.71 63.01 52.06 63.44 52.42 63.87C52.88 64.4 53.57 65.15 54.64 66.25C54.65 65.74 54.66 65.15 54.66 64.48L54.66 62.23L54.67 62.7C54.79 59.71 54.51 56.86 54.64 53.22C54.71 54.99 54.71 54.89 54.87 56.85L54.82 54.95C54.92 55.48 54.87 53.58 54.87 52.19L54.99 53.42C54.96 54.26 54.94 56.42 54.97 56.36C54.96 55.88 54.82 59.21 54.85 61.02C54.94 60.84 54.9 57.02 55.04 58.72C54.98 57.22 55.06 57.03 55.03 55.46C55.09 56.97 55.15 55.83 55.21 56.96L55.18 54.38C55.21 54.31 55.24 58.13 55.34 56.02C55.3 54.99 55.35 52.23 55.26 52.18L55.29 52.12C55.31 50.18 55.16 51.27 55.22 48.89C55.17 48.87 55.14 49.32 55.15 50.17C55.17 50.89 55.23 51 55.24 52.48C55.17 53.14 55.25 50.69 55.13 51.72C55.08 52.23 55.18 55.63 55.05 54.54L55.07 52.61C54.98 52.56 54.99 51.17 54.92 51.21C54.88 50.03 54.98 48.91 54.91 47.71C54.88 47.46 54.84 47.55 54.81 47.46C54.79 47.41 54.78 47.32 54.78 47.11C54.77 46.91 54.78 46.58 54.74 46.07C54.72 45.67 54.65 45.07 54.44 44.4C54.24 43.73 53.89 42.99 53.44 42.33C52.98 41.65 52.42 41.06 51.86 40.6C51.39 40.22 50.88 39.9 50.35 39.63C50.35 39.63 49.99 39.46 49.62 39.33C49.26 39.2 48.88 39.11 48.88 39.11C48.94 39.15 49.65 39.37 50.18 39.64C50.45 39.77 50.68 39.9 50.78 39.97C50.89 40.04 50.88 40.04 50.66 39.93C50.66 39.93 50.13 39.63 49.57 39.42C49.01 39.2 48.43 39.08 48.43 39.08L48.61 39.09C48.23 38.99 47.83 38.93 47.44 38.9C47.05 38.87 46.66 38.88 46.3 38.89C46.53 38.87 46.76 38.86 46.99 38.86C47.25 38.87 47.51 38.89 47.77 38.92C48.25 38.97 48.59 39.05 48.44 38.96C47.88 38.83 47.55 38.79 47.24 38.75C46.92 38.72 46.61 38.71 46.11 38.72C46.33 38.72 46.52 38.71 46.49 38.7C44.26 38.66 44.34 38.8 43.78 38.83C41.54 38.95 46.04 38.94 45.75 39.04L39.21 39.09C39.77 39.06 40.33 39.03 40.12 38.99C38.51 38.95 40.08 38.92 37.83 38.92C37.99 39.05 34.99 39 33.4 39.07C32.66 39.02 32.5 39.01 34.13 39.01C33.94 38.93 31.76 38.96 30.98 38.95C30.53 38.97 29.77 38.98 29.28 39C29.93 39.04 29.65 39.09 28.24 39.13L28.16 39.15C30.47 39.17 34.07 39.26 35.51 39.18L35.11 39.22C37.78 39.29 40.93 39.07 42.16 39.22C42.05 39.28 42.7 39.24 42.65 39.33L44.62 39.26L44.21 39.3L45.89 39.29C46.31 39.29 46.73 39.28 47.02 39.29C47.33 39.31 47.53 39.33 47.53 39.33L47.44 39.34C48.14 39.38 48.83 39.51 49.49 39.73C50.02 39.91 50.53 40.15 51.01 40.43C51.03 40.41 50.96 40.33 51.4 40.62C51.76 40.87 52.09 41.15 52.39 41.47C52.39 41.47 52.39 41.47 52.39 41.47L52.39 41.47C52.67 41.77 52.87 42.05 53.07 42.36C53.27 42.67 53.47 43 53.68 43.46C53.68 43.46 53.6 43.28 53.45 43.03C53.27 42.73 53.07 42.43 52.85 42.16C52.64 41.88 52.4 41.61 52.14 41.36C51.94 41.16 51.79 41.04 51.79 41.04C51.67 40.98 51.66 41.01 51.8 41.18C51.94 41.35 52.25 41.66 52.7 42.25C52.51 42.01 52.35 41.87 52.31 41.84C52.27 41.82 52.35 41.92 52.58 42.21C52.61 42.23 52.93 42.61 53.14 42.94C53.36 43.26 53.51 43.52 53.36 43.19C53.72 43.81 54.04 44.59 54.21 45.49C54.29 45.95 54.34 46.43 54.33 46.9L54.32 48.45C54.29 50.58 54.28 52.9 54.34 55.15C54.27 51.92 54.25 57.74 54.23 54.15C54.12 56.66 54.33 56.31 54.31 58.86C54.28 59.07 54.32 57.47 54.24 56.88C54.23 58.63 54.25 60.16 54.29 61.63L54.34 63.65C54.36 64.27 54.37 64.93 54.38 65.62C53.96 65.21 53.55 64.8 53.14 64.38L53.04 64.17L51.38 62.56ZM45.57 56.89L43.86 55.21L44.02 55.38L42.3 53.75C43.3 54.8 43.92 55.55 42.45 54.13C42.59 54.23 42.2 53.78 42.72 54.27C41.78 53.27 39.7 51.11 40.16 51.75C42.1 53.53 40.48 52.3 42.01 53.7C41.59 53.33 41.19 52.95 40.8 52.57L40.22 52C40.13 51.92 40.02 51.8 39.95 51.75C39.87 51.69 39.77 51.66 39.67 51.64C39.88 51.67 39.96 51.74 39.98 51.72C39.99 51.71 39.93 51.62 39.76 51.55C39.65 51.52 39.54 51.5 39.44 51.52C39.29 51.53 39.16 51.59 39.04 51.68C38.91 51.79 38.82 51.94 38.78 52.11C38.73 52.3 38.76 52.5 38.85 52.67C38.9 52.75 38.96 52.83 39.05 52.91L39.35 53.2L40.06 53.91C40.57 54.41 41.12 54.96 41.55 55.37C41.31 55.02 42.06 55.71 40.72 54.34C41.45 55.03 42.16 55.75 42.85 56.48C42.5 56.15 41.89 55.55 41.92 55.61C42.43 56.22 43.08 56.87 43.42 57.26L44.29 58.11C44.21 58.02 44.15 57.94 44.1 57.88L45.11 58.79C43.81 57.54 44.54 58.18 44.59 58.16C44.49 58.19 45.4 58.99 45.84 59.43L44.96 58.41C45.45 58.84 46.53 60.08 46.36 59.78C44.37 57.74 43.59 56.97 41.75 55.17L42.43 55.96C41.39 54.95 41.09 54.61 40.77 54.24C40.61 54.05 40.44 53.86 40.17 53.56C40.04 53.42 39.87 53.25 39.67 53.04C39.57 52.94 39.46 52.83 39.34 52.7C39.29 52.64 39.2 52.57 39.2 52.55C39.17 52.51 39.14 52.46 39.12 52.4C39.11 52.36 39.09 52.31 39.09 52.25C39.09 52.18 39.11 52.12 39.13 52.06C39.16 52 39.2 51.94 39.25 51.9C39.3 51.85 39.37 51.82 39.44 51.79C39.51 51.77 39.59 51.77 39.67 51.78C39.75 51.8 39.83 51.84 39.89 51.89C39.91 51.9 39.97 51.96 40.01 52.01L40.16 52.15L40.45 52.44C41.21 53.18 41.86 53.81 41.93 53.79C41.61 53.53 43.28 55.3 44.12 56.05C45.07 56.84 47.73 59.47 46.96 58.63C46.25 57.91 45.25 57 44.73 56.37L46.13 57.74L45.27 56.78C45.72 57.27 45.72 57.18 45.57 56.89ZM63.64 62.33L63.7 62.28L63.64 62.34L63.64 62.33Z" fill="#202020" fill-opacity="1.000000" fill-rule="nonzero"/>
		<path id="Vector" d="M50.92 16.82C51.48 16.79 52.87 16.79 52.6 16.72C52.63 16.8 50.11 16.74 50.92 16.82ZM52.58 16.89C52.68 16.87 52.61 16.84 53.23 16.84L51.51 16.86L52.58 16.89ZM54.32 17.37C55.21 17.32 55.77 17.29 57.16 17.3C57.68 17.47 54.88 17.34 54.25 17.51C56.8 17.52 57.59 17.37 59.68 17.36C58.64 17.28 54.4 17.24 54.32 17.37ZM53.19 17.6L54.61 17.56L54.47 17.55L53.05 17.58L53.19 17.6ZM22.47 16.08C22.44 16.06 22.36 16.06 22.26 16.06C22.14 16.05 22.02 16.05 21.85 16.06C21.53 16.07 21.16 16.11 20.91 16.14C21.15 16.12 21.39 16.11 21.64 16.1L22.06 16.09C22.2 16.09 22.34 16.09 22.47 16.08ZM22.85 39.63L21.82 39.65C21.5 39.65 21.18 39.64 20.86 39.62C20.29 39.58 19.71 39.5 19.15 39.37C18.58 39.25 18.02 39.08 17.48 38.87C16.83 38.61 16.21 38.29 15.62 37.92C16.48 38.51 17.28 38.87 18 39.12C18.72 39.37 19.38 39.51 20.02 39.6C20.66 39.69 21.28 39.72 21.96 39.72C22.6 39.71 23.28 39.71 24.1 39.74L22.85 39.63ZM21.81 40.06C21.35 39.96 24.06 39.94 23.64 39.87C22.67 39.88 22.44 39.91 22.23 39.93C22.13 39.94 22.04 39.95 21.84 39.95C21.64 39.95 21.35 39.95 20.87 39.91C20.87 39.91 21.1 39.95 21.34 39.99C21.57 40.03 21.81 40.06 21.81 40.06ZM12.32 31.66C12.32 31.66 12.4 31.85 12.5 32.03C12.59 32.22 12.69 32.4 12.69 32.4C12.69 32.4 12.61 32.25 12.54 32.1C12.47 31.95 12.41 31.8 12.41 31.8L12.32 31.66ZM35.06 39.97L34.74 40L36.2 40.03L35.06 39.97ZM12.94 32.54C12.94 32.54 12.81 32.26 12.7 31.99C12.58 31.71 12.49 31.42 12.49 31.42L12.37 31.15L12.26 30.87C12.26 30.87 12.39 31.3 12.56 31.72C12.73 32.14 12.94 32.54 12.94 32.54ZM21.37 38.68C21.37 38.68 21.08 38.67 20.8 38.65C20.52 38.62 20.23 38.58 20.23 38.58C20.35 38.6 20.79 38.68 21.12 38.7C21.46 38.73 21.69 38.73 21.37 38.68ZM43.96 40.02L45.38 39.98L45.24 39.97L43.82 40.01L43.96 40.02ZM30.51 38.41C29.71 38.33 32.85 38.39 31.19 38.32C29.71 38.33 30.31 38.38 30.51 38.41ZM47.71 39.02C47.91 39.05 48.11 39.08 48.3 39.12C48.11 39.08 47.91 39.05 47.71 39.02ZM47.71 39.02C47.4 38.98 47.09 38.95 46.8 38.94C46.55 38.93 46.29 38.93 46.04 38.94C46.81 38.98 47.1 38.96 47.71 39.02ZM53.53 42.85C53.53 42.85 53.45 42.73 53.38 42.6C53.3 42.48 53.22 42.37 53.22 42.37C53.4 42.6 53.45 42.66 53.41 42.61C53.38 42.56 53.26 42.39 53.1 42.19C52.73 41.72 52.72 41.77 52.66 41.72C52.57 41.64 52.48 41.56 52.39 41.47C52.51 41.58 52.62 41.7 52.74 41.82C53.34 42.53 53.59 43.05 53.53 42.85ZM53.12 62.9C53.27 63.09 53.36 63.2 53.39 63.32C53.41 63.35 53.44 63.37 53.46 63.39C53.45 63.11 53.37 63 53.34 62.87C53.35 62.98 53.35 63.05 53.34 63.11C53.28 63.05 53.23 62.99 53.12 62.9ZM53.34 62.87L53.34 62.79C53.34 62.82 53.34 62.84 53.34 62.87ZM46.51 38.26L46.72 38.25C46.88 38.24 47.04 38.23 47.21 38.23C47.56 38.23 47.92 38.26 47.92 38.26C47.92 38.26 47.79 38.25 47.66 38.24C47.53 38.22 47.4 38.21 47.4 38.21C47.4 38.21 47.17 38.21 46.95 38.23C46.83 38.23 46.72 38.24 46.64 38.25L46.51 38.26ZM51.16 60.89C51.43 61.17 51.87 61.6 52.07 61.83C52.19 61.87 50.89 60.62 51.16 60.89ZM54.52 64.11C54.56 63.94 54.54 62.64 54.55 62.09C54.55 62.48 54.52 62.84 54.5 63.15C54.48 63.46 54.47 63.75 54.52 64.11ZM46.76 56.86C47.03 57.13 47.42 57.58 47.21 57.44C47.62 57.81 48.24 58.27 46.76 56.86ZM53.25 64.67L53.45 64.9L54.39 65.78L53.25 64.67ZM55.41 62.98L55.41 62.76L55.4 62.66C55.4 62.62 55.39 62.58 55.39 62.54C55.38 62.5 55.37 62.52 55.36 62.58C55.35 62.61 55.35 62.65 55.34 62.69L55.33 62.77L55.32 62.9L55.29 63.46C55.27 63.82 55.25 64.12 55.23 64.07C55.22 64.04 55.21 63.93 55.2 63.71L55.19 63.27L55.18 62.68L55.16 64.08C55.16 64.42 55.16 64.64 55.16 64.77C55.17 65.04 55.18 64.97 55.2 64.85C55.23 64.62 55.27 64.2 55.27 66.16C55.28 65.03 55.31 64.19 55.34 63.64C55.37 63.09 55.4 62.85 55.41 62.98ZM39.29 51.73C39.44 51.64 39.56 51.64 39.67 51.64C39.54 51.63 39.4 51.66 39.29 51.73ZM48.88 61.46L50.65 63.08C49.47 62 46.62 59.14 46.72 59.4C47.63 60.34 48.76 61.43 49.25 61.85L48.88 61.46ZM46.43 62.06L45.67 61.36L46.57 62.28C46.32 62.01 46.85 62.43 46.43 62.06ZM46.75 62.46L46.57 62.28C46.61 62.33 46.66 62.38 46.75 62.46ZM42.5 54.26C43.04 54.81 43.48 55.25 43.99 55.73C43.8 55.51 42.45 54.13 42.5 54.26ZM51.7 67.1L50.47 65.91L51.8 67.22L51.7 67.1ZM59.26 67.25L59.48 67.05L60.45 66.02L60.23 66.22L59.26 67.25ZM51.38 64C50.57 63.18 49.85 62.6 50.05 62.83L51.65 64.42C51.3 63.96 51.2 63.98 50.3 63.04L51.38 64Z" fill="#202020" fill-opacity="1.000000" fill-rule="nonzero"/>
		<path id="Vector" d="M57.35 49C57.41 49.5 57.38 51.96 57.32 52.09C57.3 51.75 57.28 50.42 57.24 51.26L57.38 53.2C57.3 55.79 57.2 51.24 57.15 49.96C57.13 52.6 57.22 53.38 57.22 56.18C57.23 55.58 57.26 54.99 57.3 54.39C57.4 54.3 57.36 56.91 57.36 58.78C57.41 57.59 57.44 58.28 57.48 59.14C57.48 59.25 57.49 59.36 57.5 59.47L57.51 59.77L57.51 59.54C57.52 59.56 57.54 59.51 57.55 59.35C57.52 57.78 57.61 56.59 57.61 55.58C57.45 56.57 57.57 52.14 57.52 50.87L57.51 49.41L57.51 48.86C57.52 48.75 57.55 48.91 57.58 49.74C57.55 49.04 57.56 46.73 57.5 46.93L57.5 46.67C57.49 46.51 57.48 46.27 57.46 45.99C57.41 45.44 57.29 44.69 57.08 43.97C56.87 43.25 56.57 42.56 56.32 42.06C56.06 41.56 55.85 41.25 55.85 41.25L55.6 40.8C55.47 40.64 55.44 40.62 55.45 40.64C55.45 40.64 55.39 40.56 55.28 40.41C55.11 40.19 54.93 39.98 54.75 39.77C54.09 39.03 53.34 38.39 52.51 37.85C51.49 37.19 50.16 36.59 48.66 36.31C48.08 36.2 47.5 36.13 46.91 36.12L46.61 36.11L46.35 36.11L44.19 36.11L32.64 36.12C33.78 36.13 34.76 36.17 35.94 36.19C34.17 36.29 37.87 36.2 37.35 36.31C36.56 36.34 35.4 36.33 34.7 36.31C34.45 36.36 35.43 36.4 35.32 36.46C38.23 36.53 38.68 36.28 41.53 36.32C41.42 36.38 40.53 36.44 42.4 36.43L41.93 36.44C44.91 36.37 44.25 36.58 46.13 36.41L46.08 36.5L46.65 36.48C46.89 36.47 47.13 36.48 47.36 36.49C47.9 36.52 48.43 36.59 48.96 36.7C50.05 36.93 51.1 37.39 51.8 37.79L51.71 37.75C52.72 38.29 53.29 38.76 53.7 39.11C54.01 39.38 54.3 39.67 54.57 39.98C54.8 40.25 55.04 40.54 55.39 41.04C55.59 41.34 55.79 41.66 55.96 41.99C56.22 42.46 56.45 42.96 56.63 43.47C56.63 43.47 56.58 43.33 56.49 43.12C56.38 42.88 56.26 42.63 56.13 42.39C55.85 41.87 55.51 41.39 55.51 41.39C55.96 42.15 56.19 42.64 56.39 43.07C56.59 43.51 56.75 43.9 56.9 44.52C56.88 44.47 56.87 44.53 56.83 44.45C56.78 44.37 56.72 44.15 56.52 43.59C56.52 43.59 56.56 43.68 56.61 43.84C56.69 44.06 56.76 44.28 56.82 44.51C56.97 45.07 57.12 45.83 57.16 46.61C57.19 47.01 57.19 47.35 57.2 47.69L57.23 48.6L57.25 49.48C57.32 50.84 57.32 49.21 57.35 49Z" fill="#202020" fill-opacity="1.000000" fill-rule="nonzero"/>
		<path id="Vector" d="M57.22 56.18C57.22 56.48 57.22 56.82 57.22 57.22L57.22 56.18ZM31.01 36.12L32.64 36.12C32.13 36.11 31.61 36.11 31.01 36.12ZM57.42 63.01C57.44 62.91 57.45 62.93 57.47 62.95C57.48 62.98 57.5 63.01 57.51 62.98L57.51 61.7C57.48 61.72 57.44 61.37 57.41 61.44L57.41 62.78L57.42 63.01Z" fill="#202020" fill-opacity="1.000000" fill-rule="nonzero"/>
		<path id="Vector" d="M57.58 60.68C57.55 60.56 57.53 60.19 57.51 59.77L57.51 61.7C57.54 61.69 57.56 61.47 57.58 60.68ZM55.76 61.05L55.75 60.43L55.73 59.48L55.76 61.05ZM55.91 51.29C55.85 52.04 55.89 53.45 55.91 53.92C55.9 52.29 55.92 53 55.91 51.29ZM55.35 53.3L55.32 51.73L55.31 51.88L55.35 53.3ZM19.34 36.04C19.12 35.97 18.91 35.89 18.69 35.8C18.9 35.89 19.12 35.97 19.34 36.04ZM32.5 36.38C28.75 36.28 34.95 36.3 33.77 36.17L31.73 36.22L31.91 36.18L29.42 36.19C29.93 36.25 30.31 36.25 30.2 36.32C26.88 36.29 29.16 36.24 26.72 36.17L23.01 36.18L23.31 36.16C23 36.16 22.86 36.17 22.75 36.18L22.21 36.18L21.94 36.18C21.61 36.18 21.28 36.16 20.95 36.12C20.37 36.04 19.8 35.91 19.25 35.71C18.62 35.49 18.02 35.19 17.46 34.82C16.9 34.44 16.39 34 15.93 33.51C15.54 33.07 15.19 32.6 14.9 32.09C14.69 31.73 14.51 31.36 14.36 30.97C14.25 30.69 14.2 30.53 14.2 30.53C14.04 30.06 14 29.88 13.98 29.87C13.96 29.86 13.98 30.02 14.01 30.19C14.04 30.36 14.08 30.54 14.08 30.6C14.08 30.66 14.02 30.59 13.9 30.23C14.07 30.85 14.31 31.45 14.61 32.01C14.92 32.6 15.31 33.16 15.71 33.61C16.52 34.51 17.34 35 17.45 35C17.37 34.97 17.22 34.92 17.62 35.19C17.62 35.19 17.92 35.35 18.24 35.48C18.55 35.61 18.88 35.72 18.88 35.72C18.88 35.72 18.58 35.59 18.3 35.43C18.11 35.33 17.92 35.22 17.74 35.11C18.04 35.26 18.52 35.5 19.09 35.71C20.03 36.04 21.01 36.22 22.01 36.23L23.01 36.24C23.63 36.25 24.11 36.26 24.33 36.28C22.92 36.29 22.57 36.33 22.08 36.36C21.84 36.37 21.61 36.38 21.19 36.34C20.78 36.3 20.2 36.23 19.37 35.94C19.5 36.02 20.11 36.26 19.34 36.04C19.83 36.2 20.33 36.31 20.84 36.38C21.22 36.43 21.6 36.45 21.98 36.45L22.39 36.45L25.69 36.45C27.89 36.45 30.12 36.44 32.5 36.38ZM28.33 19.62L28.29 19.63C28.38 19.63 28.4 19.62 28.33 19.62ZM26.79 19.61L24.55 19.73L28.04 19.72L28.29 19.63C27.98 19.65 26.76 19.7 26.28 19.66L26.79 19.61ZM21.95 19.8C23.74 19.76 23.65 19.67 22.67 19.62C24.32 19.57 23.54 19.73 24.68 19.62C24.64 19.55 22.6 19.59 22.13 19.6C22.13 19.61 21.94 19.8 21.95 19.8ZM13.79 26.9C13.79 26.9 13.79 26.79 13.8 26.67C13.81 26.56 13.82 26.45 13.82 26.45C13.82 26.45 13.76 26.72 13.73 27C13.69 27.27 13.67 27.55 13.67 27.55C13.67 27.55 13.69 27.39 13.72 27.22C13.75 27.06 13.79 26.9 13.79 26.9ZM13.82 26.45C13.82 26.45 13.87 26.18 13.95 25.91C14.02 25.64 14.11 25.38 14.11 25.38C14.06 25.44 14.01 25.51 13.93 25.68C13.93 25.68 13.9 25.87 13.87 26.06C13.84 26.25 13.82 26.45 13.82 26.45ZM15.52 22.86C15.86 22.45 16.24 22.07 16.65 21.72C16.65 21.72 16.34 21.98 16.06 22.27C15.87 22.46 15.69 22.66 15.52 22.86ZM14.79 23.89L14.82 23.87C14.82 23.87 14.97 23.6 15.15 23.35C15.33 23.1 15.52 22.86 15.52 22.86C15.25 23.19 15.01 23.53 14.79 23.89Z" fill="#202020" fill-opacity="1.000000" fill-rule="nonzero"/>
		<path id="Vector" d="M14.11 25.38C14.17 25.31 14.24 25.23 14.36 24.98C14.49 24.74 14.66 24.33 15.07 23.66L14.94 23.76L14.82 23.87C14.82 23.87 14.6 24.23 14.43 24.61C14.25 24.99 14.11 25.38 14.11 25.38ZM54.23 42.52C54.23 42.52 54.06 42.25 53.87 41.99C53.74 41.81 53.6 41.64 53.46 41.48L53.54 41.59C53.54 41.59 53.75 41.84 53.94 42.1C54.13 42.37 54.29 42.65 54.29 42.65L54.23 42.52ZM48.3 38.25C48.04 38.21 47.77 38.19 47.51 38.17C47.85 38.2 48.12 38.24 48.3 38.25ZM42.36 38.57C40.69 38.5 44.66 38.47 41.57 38.44C41.3 38.38 42.75 38.29 44.2 38.33C44.09 38.39 42.79 38.36 43.68 38.43C44.65 38.36 45.01 38.4 44.68 38.31C45.49 38.28 45.94 38.25 46.33 38.22L46.87 38.18C47.08 38.17 47.3 38.17 47.51 38.18C47.26 38.16 47 38.14 46.75 38.14L45.77 38.14L43.49 38.13C41.9 38.13 40.25 38.14 39 38.19C37.62 38.31 38.46 38.46 38.45 38.62C38.66 38.65 42.23 38.67 42.36 38.57ZM44.99 38.73C45.76 38.73 46 38.73 46.47 38.71C46.34 38.66 45.61 38.72 44.99 38.73ZM27.23 37.52C27.08 37.54 25.69 37.57 25.99 37.61L28.11 37.58C27.61 37.58 27.43 37.55 27.23 37.52ZM29.04 37.57L28.11 37.58C28.42 37.58 28.73 37.58 29.04 37.57ZM27.13 37.51L27.23 37.52C27.26 37.52 27.26 37.51 27.13 37.51ZM19.2 20.27C19.2 20.3 19.39 20.23 19.63 20.15C19.88 20.08 20.13 20.01 20.39 19.95C20.05 20.01 19.58 20.12 19.2 20.27ZM54.32 19.61L55.16 19.65C54.86 19.63 54.71 19.62 54.32 19.61ZM67.18 18.41C67.2 18.4 67.26 18.4 67.35 18.39C67.26 18.4 67.21 18.4 67.18 18.41ZM67.35 18.39C67.92 18.35 69.68 18.41 70.31 18.36L70.23 18.37L71.41 18.34C70.3 18.34 67.99 18.34 67.35 18.39Z" fill="#202020" fill-opacity="1.000000" fill-rule="nonzero"/>
	</g>
</svg>
