<svg width="5.645752" height="5.633057" viewBox="0 0 5.64575 5.63306" fill="none" xmlns="http://www.w3.org/2000/svg" xmlns:xlink="http://www.w3.org/1999/xlink">
	<desc>
			Created with Pixso.
	</desc>
	<defs/>
	<path id="Vector" d="M3.22 5.47L5.48 3.21C5.58 3.1 5.64 2.96 5.64 2.81C5.64 2.66 5.58 2.52 5.48 2.41L3.22 0.15C3.11 0.05 2.97 -0.01 2.82 0C2.67 0 2.53 0.06 2.43 0.16C2.32 0.27 2.26 0.41 2.26 0.55C2.26 0.7 2.32 0.85 2.42 0.95L3.71 2.25L0.56 2.25C0.41 2.25 0.27 2.31 0.16 2.41C0.05 2.52 0 2.66 0 2.81C0 2.96 0.05 3.1 0.16 3.21C0.27 3.32 0.41 3.38 0.56 3.38L3.71 3.38L2.42 4.67C2.32 4.78 2.26 4.92 2.26 5.07C2.26 5.22 2.32 5.36 2.43 5.46C2.53 5.57 2.67 5.63 2.82 5.63C2.97 5.63 3.11 5.57 3.22 5.47Z" fill="#D2AC69" fill-opacity="1.000000" fill-rule="nonzero"/>
</svg>
