<svg width="9.998169" height="9.975342" viewBox="0 0 9.99817 9.97534" fill="none" xmlns="http://www.w3.org/2000/svg" xmlns:xlink="http://www.w3.org/1999/xlink">
	<desc>
			Created with Pixso.
	</desc>
	<defs/>
	<path id="Vector" d="M5.7 9.69L9.7 5.69C9.89 5.5 9.99 5.25 9.99 4.98C9.99 4.72 9.89 4.46 9.7 4.28L5.7 0.28C5.51 0.09 5.26 -0.01 5 0C4.74 0 4.49 0.1 4.3 0.29C4.11 0.47 4.01 0.72 4.01 0.99C4.01 1.25 4.11 1.5 4.29 1.69L6.58 3.98L1 3.98C0.73 3.98 0.48 4.09 0.29 4.28C0.1 4.46 0 4.72 0 4.98C0 5.25 0.1 5.5 0.29 5.69C0.48 5.88 0.73 5.98 1 5.98L6.58 5.98L4.29 8.28C4.11 8.46 4.01 8.72 4.01 8.98C4.01 9.24 4.11 9.49 4.3 9.68C4.49 9.86 4.74 9.97 5 9.97C5.26 9.97 5.51 9.87 5.7 9.69Z" fill="#D2AC69" fill-opacity="1.000000" fill-rule="nonzero"/>
</svg>
