<svg width="28.000000" height="28.140137" viewBox="0 0 28 28.1401" fill="none" xmlns="http://www.w3.org/2000/svg" xmlns:xlink="http://www.w3.org/1999/xlink">
	<desc>
			Created with Pixso.
	</desc>
	<defs/>
	<path id="Vector" d="M18 5L28 5L28 7L18 7L18 5ZM18 19L28 19L28 21L18 21L18 19ZM18 25L28 25L28 27L18 27L18 25ZM7 0L5 0L5 5L0 5L0 7L5 7L5 12L7 12L7 7L12 7L12 5L7 5L7 0ZM10.34 17.83L6.46 21.71L2.62 17.87L1.37 19.12L5.2 22.97L1.34 26.83L2.63 28.14L6.51 24.27L10.37 28.12L11.62 26.87L7.77 23.02L11.63 19.14L10.34 17.83Z" fill="#D2AC69" fill-opacity="1.000000" fill-rule="nonzero"/>
</svg>
