<svg width="45.750000" height="50.833496" viewBox="0 0 45.75 50.8335" fill="none" xmlns="http://www.w3.org/2000/svg" xmlns:xlink="http://www.w3.org/1999/xlink">
	<desc>
			Created with Pixso.
	</desc>
	<defs/>
	<path id="Vector" d="M32.51 0C33.47 0.06 34.21 0.88 34.19 1.86L34.19 4.49C41.83 5.24 45.75 9.46 45.75 17.06L45.75 38.08C45.75 46.53 40.93 50.83 31.45 50.83L14.29 50.83C4.81 50.83 0 46.53 0 38.08L0 17.06C0 12 1.72 8.38 5.26 6.27L5.5 6.13C6.02 5.89 6.62 5.91 7.12 6.2C7.7 6.54 8.04 7.18 8.01 7.87C7.97 8.55 7.55 9.15 6.93 9.42C4.59 10.81 3.49 13.24 3.49 17.06L3.49 17.74L35.73 17.74C36.7 17.74 37.48 18.53 37.48 19.51C37.48 20.49 36.7 21.29 35.73 21.29L3.49 21.29L3.49 38.08C3.49 44.53 6.63 47.21 14.29 47.25L31.45 47.25C39 47.25 42.23 44.51 42.23 38.06L42.23 17.04C42.23 11.42 39.78 8.7 34.19 8.05L34.19 9.75C34.06 10.66 33.27 11.33 32.37 11.3C31.47 11.26 30.73 10.54 30.67 9.62L30.67 1.71L30.7 1.42C30.78 1.06 30.96 0.72 31.24 0.46C31.58 0.14 32.04 -0.03 32.51 0ZM33.51 36.08L33.79 36.1C34.28 36.16 34.73 36.38 35.08 36.73C35.5 37.15 35.73 37.73 35.73 38.33C35.73 39.57 34.74 40.58 33.52 40.58C32.3 40.58 31.31 39.57 31.31 38.33C31.31 37.09 32.3 36.08 33.52 36.08L33.51 36.08ZM22.91 36.08L23.19 36.1C24.28 36.24 25.12 37.18 25.12 38.33C25.12 39.57 24.13 40.58 22.91 40.58C21.69 40.58 20.7 39.57 20.7 38.33C20.7 37.09 21.69 36.08 22.91 36.08ZM12.32 36.08L12.6 36.1C13.08 36.16 13.53 36.38 13.88 36.73C14.3 37.15 14.54 37.73 14.54 38.33C14.54 39.57 13.55 40.58 12.33 40.58C11.11 40.58 10.12 39.57 10.12 38.33C10.12 37.09 11.11 36.08 12.33 36.08L12.32 36.08ZM33.51 26.98L33.79 26.99C34.28 27.05 34.73 27.27 35.08 27.63C35.5 28.05 35.73 28.62 35.73 29.22C35.73 30.47 34.74 31.47 33.52 31.47C32.3 31.47 31.31 30.47 31.31 29.22C31.31 27.98 32.3 26.98 33.52 26.98L33.51 26.98ZM22.91 26.98L23.19 26.99C24.28 27.13 25.12 28.08 25.12 29.22C25.12 30.47 24.13 31.47 22.91 31.47C21.69 31.47 20.7 30.47 20.7 29.22C20.7 27.98 21.69 26.98 22.91 26.98ZM12.32 26.98L12.6 26.99C13.08 27.05 13.53 27.27 13.88 27.63C14.3 28.05 14.54 28.62 14.54 29.22C14.54 30.47 13.55 31.47 12.33 31.47C11.11 31.47 10.12 30.47 10.12 29.22C10.12 27.98 11.11 26.98 12.33 26.98L12.32 26.98ZM13.31 0.27C14.21 0.27 14.97 0.95 15.07 1.86L15.07 4.31L25.06 4.31C26.02 4.31 26.8 5.11 26.8 6.09C26.8 7.07 26.02 7.87 25.06 7.87L15.02 7.87L15.02 9.64C15.02 10.12 14.84 10.57 14.5 10.91C14.17 11.24 13.72 11.42 13.26 11.42L13 11.39C12.17 11.25 11.54 10.5 11.55 9.62L11.55 1.86L11.6 1.6C11.81 0.82 12.5 0.27 13.31 0.27Z" fill="#FCDFA5" fill-opacity="1.000000" fill-rule="nonzero"/>
</svg>
