<svg width="17.189697" height="17.187500" viewBox="0 0 17.1897 17.1875" fill="none" xmlns="http://www.w3.org/2000/svg" xmlns:xlink="http://www.w3.org/1999/xlink">
	<desc>
			Created with Pixso.
	</desc>
	<defs/>
	<path id="Vector" d="M16.4 12.47C15.69 11.73 13.66 10.36 12.33 10.36C12.02 10.36 11.76 10.43 11.54 10.57C10.89 10.99 10.37 11.31 10.12 11.31C9.98 11.31 9.84 11.19 9.52 10.91L9.46 10.86C8.57 10.08 8.38 9.88 8.03 9.52L7.94 9.43C7.88 9.37 7.83 9.31 7.77 9.25C7.47 8.94 7.25 8.72 6.47 7.84L6.44 7.8C6.07 7.38 5.82 7.1 5.81 6.9C5.79 6.71 5.97 6.39 6.4 5.8C6.93 5.09 6.95 4.21 6.46 3.19C6.08 2.38 5.45 1.61 4.89 0.93L4.84 0.87C4.36 0.29 3.81 0 3.19 0C2.5 0 1.93 0.37 1.62 0.56C1.6 0.58 1.58 0.6 1.55 0.61C0.87 1.04 0.38 1.63 0.19 2.23C-0.08 3.13 -0.27 4.31 1.06 6.74C2.22 8.85 3.26 10.27 4.92 11.97C6.48 13.57 7.18 14.09 8.73 15.21C10.46 16.46 12.12 17.18 13.28 17.18C14.36 17.18 15.21 17.18 16.42 15.72C17.69 14.19 17.16 13.25 16.4 12.47Z" fill="#D2AC69" fill-opacity="1.000000" fill-rule="nonzero"/>
</svg>
