<svg width="35.000000" height="35.000000" viewBox="0 0 35 35" fill="none" xmlns="http://www.w3.org/2000/svg" xmlns:xlink="http://www.w3.org/1999/xlink">
	<desc>
			Created with Pixso.
	</desc>
	<defs>
		<clipPath id="clip15_766">
			<rect id="check-21 1" rx="0.000000" width="34.000000" height="34.000000" transform="translate(0.500000 0.500000)" fill="white" fill-opacity="0"/>
		</clipPath>
	</defs>
	<rect id="check-21 1" rx="0.000000" width="34.000000" height="34.000000" transform="translate(0.500000 0.500000)" fill="#FFFFFF" fill-opacity="0"/>
	<g clip-path="url(#clip15_766)">
		<path id="Vector" d="M18.6 2.2C16.44 2.19 14.31 2.61 12.32 3.44C10.33 4.26 8.52 5.47 6.99 6.99C0.59 13.39 0.59 23.8 7 30.2C13.39 36.59 23.8 36.59 30.2 30.2C36.6 23.8 36.6 13.39 30.2 6.99C28.68 5.47 26.87 4.26 24.88 3.44C22.89 2.61 20.75 2.19 18.6 2.2L18.6 2.2ZM18.6 4.37C22.23 4.37 25.87 5.76 28.65 8.54C29.97 9.86 31.02 11.43 31.74 13.15C32.45 14.88 32.82 16.73 32.82 18.6C32.82 20.46 32.45 22.31 31.74 24.04C31.02 25.76 29.97 27.33 28.65 28.65C27.33 29.97 25.76 31.02 24.04 31.74C22.31 32.45 20.46 32.82 18.6 32.82C16.73 32.82 14.88 32.45 13.15 31.74C11.43 31.02 9.86 29.97 8.54 28.65C7.22 27.33 6.17 25.76 5.45 24.04C4.74 22.31 4.37 20.46 4.37 18.6C4.37 16.73 4.74 14.88 5.45 13.15C6.17 11.43 7.22 9.86 8.54 8.54C9.86 7.22 11.43 6.17 13.15 5.45C14.88 4.74 16.73 4.37 18.6 4.37ZM25.07 14.22C24.87 14.24 24.67 14.32 24.5 14.44L16.51 20.44L12.81 16.74C12.71 16.63 12.59 16.55 12.45 16.49C12.32 16.43 12.18 16.4 12.03 16.4C11.88 16.4 11.74 16.43 11.61 16.48C11.47 16.54 11.35 16.62 11.25 16.72C11.14 16.83 11.06 16.95 11.01 17.08C10.95 17.22 10.93 17.36 10.93 17.51C10.93 17.65 10.96 17.79 11.02 17.93C11.07 18.06 11.16 18.18 11.26 18.28L15.64 22.66C15.82 22.84 16.07 22.96 16.33 22.98C16.59 22.99 16.85 22.92 17.06 22.76L25.81 16.2C26 16.06 26.14 15.87 26.21 15.65C26.28 15.44 26.28 15.2 26.21 14.98C26.14 14.76 26.01 14.57 25.82 14.44C25.64 14.3 25.42 14.22 25.19 14.22C25.15 14.22 25.11 14.22 25.07 14.22L25.07 14.22Z" fill="#FADB9E" fill-opacity="1.000000" fill-rule="nonzero"/>
	</g>
</svg>
