<svg width="70.000000" height="70.000000" viewBox="0 0 70 70" fill="none" xmlns="http://www.w3.org/2000/svg" xmlns:xlink="http://www.w3.org/1999/xlink">
	<desc>
			Created with Pixso.
	</desc>
	<defs>
		<clipPath id="clip15_738">
			<rect id="color-palette 1" rx="0.000000" width="69.000000" height="69.000000" transform="translate(0.500000 0.500000)" fill="white" fill-opacity="0"/>
		</clipPath>
	</defs>
	<rect id="color-palette 1" rx="0.000000" width="69.000000" height="69.000000" transform="translate(0.500000 0.500000)" fill="#FFFFFF" fill-opacity="0"/>
	<g clip-path="url(#clip15_738)">
		<path id="Vector" d="M10.63 62.68C11.41 62.68 12.17 62.42 12.78 61.93C13.38 61.44 13.8 60.75 13.96 59.99C14.11 59.23 14 58.43 13.63 57.74C13.27 57.05 12.67 56.51 11.95 56.21C11.23 55.91 10.43 55.87 9.68 56.1C8.94 56.33 8.29 56.81 7.86 57.46C7.43 58.11 7.24 58.89 7.32 59.66C7.4 60.44 7.75 61.16 8.31 61.71C8.61 62.02 8.97 62.26 9.37 62.42C9.77 62.59 10.2 62.68 10.63 62.68ZM9.87 58.62C10.04 58.44 10.27 58.33 10.52 58.3C10.77 58.27 11.02 58.33 11.23 58.47C11.44 58.6 11.59 58.81 11.67 59.04C11.74 59.28 11.73 59.54 11.64 59.77C11.54 60 11.37 60.19 11.15 60.31C10.93 60.43 10.68 60.47 10.43 60.42C10.19 60.37 9.97 60.24 9.81 60.05C9.65 59.85 9.57 59.61 9.57 59.36C9.57 59.09 9.68 58.82 9.87 58.62ZM64.35 48.91L54.68 48.91L54.65 48.91L48.24 48.91L55.79 44.54L64.17 39.71C64.29 39.64 64.39 39.55 64.49 39.48C65.59 38.75 66.38 37.66 66.72 36.39C66.86 35.84 66.91 35.27 66.87 34.7C66.87 34.56 66.87 34.42 66.85 34.28C66.84 34.17 66.8 34.07 66.78 33.97C66.68 33.36 66.47 32.78 66.17 32.24L61.18 23.6C61 23.28 60.78 22.98 60.54 22.71C59.7 21.77 58.57 21.15 57.32 20.95C56.08 20.75 54.81 20.99 53.72 21.61L45.35 26.45L41.02 28.95L43.51 24.63L43.52 24.62L48.36 16.24C48.5 15.99 48.62 15.72 48.72 15.45C48.74 15.38 48.78 15.32 48.8 15.26C48.84 15.14 48.86 15.02 48.89 14.9C48.96 14.66 49.02 14.42 49.05 14.18C49.18 13.15 49.02 12.11 48.57 11.17C48.13 10.23 47.42 9.45 46.54 8.9C46.47 8.86 46.42 8.81 46.36 8.77L37.72 3.78C37.01 3.34 36.21 3.09 35.38 3.03C34.55 2.97 33.72 3.12 32.96 3.47C32.83 3.52 32.7 3.55 32.57 3.61C32.45 3.67 32.28 3.79 32.13 3.88C31.97 3.97 31.82 4.07 31.67 4.17C31.55 4.26 31.45 4.37 31.35 4.46C31.19 4.6 31.03 4.75 30.88 4.9C30.68 5.14 30.49 5.4 30.33 5.68C30.31 5.71 30.28 5.74 30.26 5.78L25.4 14.15L21.08 21.65L21.08 5.64C21.08 4.19 20.51 2.8 19.48 1.77C18.46 0.74 17.06 0.17 15.61 0.17L5.64 0.17C4.19 0.17 2.8 0.74 1.77 1.77C0.74 2.8 0.17 4.19 0.17 5.64L0.17 64.31C0.17 65.09 0.34 65.86 0.67 66.57C1 67.28 1.47 67.91 2.07 68.42C2.16 68.49 2.25 68.57 2.34 68.64C2.66 68.88 3.01 69.09 3.37 69.26C3.44 69.3 3.49 69.35 3.56 69.38C4.23 69.66 4.95 69.81 5.68 69.81L64.35 69.81C65.8 69.81 67.19 69.23 68.21 68.21C69.24 67.18 69.81 65.79 69.82 64.34L69.82 54.37C69.82 52.92 69.24 51.53 68.22 50.5C67.19 49.48 65.8 48.9 64.35 48.9L64.35 48.91ZM18.9 64.31C18.9 65.18 18.55 66.01 17.93 66.63C17.32 67.24 16.48 67.59 15.61 67.59L5.64 67.59C5.16 67.59 4.68 67.48 4.25 67.27C4.05 67.17 3.85 67.06 3.67 66.92C3.62 66.88 3.57 66.84 3.51 66.79C3.3 66.61 3.11 66.41 2.95 66.18L2.93 66.16C2.56 65.62 2.35 64.97 2.35 64.31L2.35 44.49L18.9 44.49L18.9 64.31ZM18.9 42.3L2.36 42.3L2.36 30.45L18.9 30.45L18.9 42.3ZM18.9 28.25L2.36 28.25L2.36 16.4L18.9 16.4L18.9 28.25ZM18.9 14.21L2.36 14.21L2.36 5.64C2.36 4.77 2.7 3.93 3.32 3.32C3.93 2.7 4.77 2.36 5.64 2.36L15.61 2.36C16.48 2.36 17.32 2.7 17.93 3.32C18.55 3.93 18.9 4.77 18.9 5.64L18.9 14.21ZM54.81 23.5C55.37 23.17 56.01 23.02 56.66 23.06C57.3 23.1 57.92 23.33 58.44 23.71L58.47 23.74C58.8 24 59.07 24.31 59.28 24.67L59.28 24.68L64.27 33.32C64.58 33.86 64.73 34.48 64.7 35.1C64.7 35.13 64.7 35.16 64.7 35.19C64.7 35.29 64.67 35.4 64.65 35.51C64.64 35.62 64.61 35.73 64.59 35.84C64.48 36.24 64.3 36.61 64.05 36.94C64.03 36.96 64.01 36.97 64 36.99C63.74 37.31 63.43 37.59 63.07 37.79L55.64 42.08L54.5 40.12L47.39 27.78L54.81 23.5ZM45.5 28.87L53.76 43.18L43.49 49.11L36.42 36.89L38.83 32.72L45.5 28.87ZM30.49 9.71L32.14 6.87C32.35 6.5 32.63 6.17 32.97 5.91L32.98 5.9C33.5 5.51 34.12 5.27 34.76 5.23C35.41 5.19 36.05 5.34 36.61 5.67L45.26 10.65C45.62 10.86 45.93 11.14 46.19 11.47C46.2 11.49 46.22 11.5 46.24 11.52C46.74 12.2 46.97 13.04 46.87 13.88L46.87 13.9C46.86 14.01 46.83 14.12 46.8 14.22C46.73 14.54 46.61 14.85 46.45 15.13L42.16 22.57L34.79 18.31L27.85 14.29L30.49 9.71ZM21.09 26.01L26.75 16.18L33.62 20.15L41.07 24.45L38.73 28.5L35.14 34.72L27.1 30.07L21.08 26.6L21.09 26.01ZM21.09 29.13L34.05 36.62L28.12 46.9L21.08 42.83L21.09 29.13ZM21.09 45.35L27.03 48.78L21.08 59.09L21.09 45.35ZM25.51 67.63L19.93 67.63C20.6 66.76 20.99 65.7 21.05 64.6L25.5 62.03L25.51 67.63ZM26.11 59.16L22.3 61.36L27.06 53.11L29.44 57.24L26.19 59.12C26.16 59.13 26.13 59.15 26.11 59.16L26.11 59.16ZM39.55 67.63L27.69 67.63L27.69 60.77L39.55 53.93L39.55 67.63ZM31.33 56.14L28.33 50.92L35.16 39.09L41.6 50.21L31.33 56.14ZM53.59 67.63L41.73 67.63L41.73 52.67L44.45 51.1L53.59 51.1L53.59 67.63ZM67.63 64.35C67.63 65.22 67.29 66.06 66.67 66.67C66.06 67.29 65.22 67.63 64.35 67.63L55.78 67.63L55.78 51.1L64.35 51.1C65.22 51.1 66.05 51.44 66.67 52.06C67.28 52.67 67.63 53.51 67.63 54.38L67.63 64.35Z" fill="#FADB9E" fill-opacity="1.000000" fill-rule="nonzero"/>
	</g>
</svg>
