<svg width="64.000000" height="64.000000" viewBox="0 0 64 64" fill="none" xmlns="http://www.w3.org/2000/svg" xmlns:xlink="http://www.w3.org/1999/xlink">
	<desc>
			Created with Pixso.
	</desc>
	<defs>
		<clipPath id="clip11_291">
			<rect id="delivery-tracking 1" rx="0.000000" width="63.000000" height="63.000000" transform="translate(0.500000 0.500000)" fill="white" fill-opacity="0"/>
		</clipPath>
	</defs>
	<rect id="delivery-tracking 1" rx="0.000000" width="63.000000" height="63.000000" transform="translate(0.500000 0.500000)" fill="#FFFFFF" fill-opacity="0"/>
	<g clip-path="url(#clip11_291)">
		<path id="Vector" d="M55 7C55 6.08 54.81 5.17 54.46 4.32C54.11 3.47 53.59 2.69 52.94 2.04C52.29 1.39 51.52 0.88 50.67 0.53C49.82 0.18 48.91 -0.01 47.99 0L17.99 0C16.14 0 14.36 0.73 13.04 2.05C11.73 3.36 10.99 5.14 10.99 7L10.99 9C10.99 9.26 11.1 9.51 11.29 9.7C11.47 9.89 11.73 10 11.99 10L53.99 10C54.26 10 54.51 9.89 54.7 9.7C54.89 9.51 54.99 9.26 54.99 9L54.99 7L55 7ZM52.99 7L52.99 8L12.99 8L12.99 7C12.99 5.67 13.52 4.4 14.46 3.46C15.4 2.52 16.67 2 17.99 2L47.99 2C49.32 2 50.59 2.52 51.53 3.46C52.47 4.4 52.99 5.67 52.99 7Z" fill="#D2AC69" fill-opacity="1.000000" fill-rule="evenodd"/>
		<path id="Vector" d="M44.97 1.24C45 1.09 45 0.94 44.97 0.79C44.94 0.64 44.88 0.5 44.78 0.38C44.69 0.26 44.57 0.16 44.43 0.1C44.3 0.03 44.15 0 44 0L22 0C21.84 0 21.69 0.03 21.56 0.1C21.42 0.16 21.3 0.26 21.21 0.38C21.11 0.5 21.05 0.64 21.02 0.79C20.99 0.94 20.99 1.09 21.03 1.24L21.64 3.72C21.81 4.37 22.18 4.95 22.71 5.36C23.24 5.77 23.89 6 24.56 6L41.43 6C42.1 5.99 42.75 5.77 43.28 5.36C43.81 4.95 44.18 4.37 44.34 3.72L44.97 1.24ZM42.71 2L42.4 3.24C42.35 3.45 42.22 3.65 42.05 3.78C41.87 3.92 41.66 4 41.43 4L24.56 4C24.33 4 24.12 3.92 23.94 3.78C23.77 3.65 23.64 3.45 23.59 3.24L23.28 2L42.71 2L42.71 2ZM22.99 37C22.99 36.73 22.89 36.48 22.7 36.29C22.51 36.1 22.26 36 21.99 36L9.99 36C9.73 36 9.47 36.1 9.29 36.29C9.1 36.48 8.99 36.73 8.99 37L8.99 45C8.99 45.79 9.31 46.55 9.87 47.12C10.44 47.68 11.2 48 11.99 48L19.99 48C20.79 48 21.55 47.68 22.12 47.12C22.68 46.55 22.99 45.79 22.99 45L22.99 37ZM21 38L21 45C21 45.26 20.89 45.51 20.7 45.7C20.51 45.89 20.26 46 20 46L12 46C11.73 46 11.48 45.89 11.29 45.7C11.1 45.51 11 45.26 11 45L11 38L21 38ZM40.5 46L27 46C26.73 46 26.48 46.1 26.29 46.29C26.1 46.48 26 46.73 26 47C26 47.26 26.1 47.51 26.29 47.7C26.48 47.89 26.73 48 27 48L40.5 48C40.76 48 41.01 47.89 41.2 47.7C41.39 47.51 41.5 47.26 41.5 47C41.5 46.73 41.39 46.48 41.2 46.29C41.01 46.1 40.76 46 40.5 46ZM10.5 54C7.74 54 5.5 56.24 5.5 59C5.5 61.76 7.74 64 10.5 64C13.26 64 15.5 61.76 15.5 59C15.5 56.24 13.26 54 10.5 54L10.5 54ZM10.5 56C12.15 56 13.5 57.34 13.5 59C13.5 60.65 12.15 62 10.5 62C9.7 62 8.94 61.68 8.37 61.12C7.81 60.55 7.5 59.79 7.5 59C7.5 58.2 7.81 57.44 8.37 56.87C8.94 56.31 9.7 56 10.5 56L10.5 56ZM35 54C32.24 54 30 56.24 30 59C30 61.76 32.24 64 35 64C37.75 64 40 61.76 40 59C40 56.24 37.75 54 35 54ZM35 56C35.79 56 36.55 56.31 37.12 56.87C37.68 57.44 38 58.2 38 59C38 59.79 37.68 60.55 37.12 61.12C36.55 61.68 35.79 62 35 62C34.2 62 33.44 61.68 32.87 61.12C32.31 60.55 32 59.79 32 59C32 58.2 32.31 57.44 32.87 56.87C33.44 56.31 34.2 56 35 56Z" fill="#D2AC69" fill-opacity="1.000000" fill-rule="evenodd"/>
		<path id="Vector" d="M9 38L23 38C23.26 38 23.51 37.89 23.7 37.7C23.89 37.51 24 37.26 24 37C24 36.73 23.89 36.48 23.7 36.29C23.51 36.1 23.26 36 23 36L9 36C8.73 36 8.48 36.1 8.29 36.29C8.1 36.48 8 36.73 8 37C8 37.26 8.1 37.51 8.29 37.7C8.48 37.89 8.73 38 9 38Z" fill="#D2AC69" fill-opacity="1.000000" fill-rule="evenodd"/>
		<path id="Vector" d="M19 37C19 36.73 18.89 36.48 18.7 36.29C18.51 36.1 18.26 36 18 36L14 36C13.73 36 13.48 36.1 13.29 36.29C13.1 36.48 13 36.73 13 37L13 40.5C13 41.16 13.26 41.79 13.73 42.26C14.2 42.73 14.83 43 15.5 43L16.5 43C17.16 43 17.79 42.73 18.26 42.26C18.73 41.79 19 41.16 19 40.5L19 37ZM17 38L17 40.5C16.99 40.63 16.94 40.75 16.85 40.85C16.75 40.94 16.63 40.99 16.5 41L15.5 41C15.36 40.99 15.24 40.94 15.14 40.85C15.05 40.75 15 40.63 15 40.5L15 38L17 38ZM53.83 63.97C54.07 64.02 54.33 63.98 54.54 63.85C54.75 63.72 54.91 63.52 54.98 63.28C56.4 58.59 58.56 54.15 61.38 50.13L61.38 50.13C62.43 48.62 63 46.83 63 44.99C63 40.02 58.96 35.99 54 35.99C49.03 35.99 45 40.02 45 44.99C45 46.9 45.6 48.68 46.64 50.12C49.46 54.14 51.62 58.58 53.04 63.27C53.2 63.8 53.6 63.94 53.83 63.97ZM54.01 59.9C52.58 56.02 50.65 52.35 48.28 48.96L48.27 48.95C47.43 47.8 46.99 46.41 47 44.99C47 41.12 50.13 37.99 54 37.99C57.86 37.99 61 41.12 61 44.99C61 46.42 60.56 47.81 59.74 48.99C57.37 52.36 55.44 56.03 54.01 59.9Z" fill="#D2AC69" fill-opacity="1.000000" fill-rule="evenodd"/>
		<path id="Vector" d="M53.99 41C51.79 41 49.99 42.79 49.99 45C49.99 47.2 51.79 49 53.99 49C56.2 49 57.99 47.2 57.99 45C57.99 42.79 56.2 41 53.99 41ZM53.99 43C54.52 43 55.03 43.21 55.41 43.58C55.78 43.96 55.99 44.47 55.99 45C55.99 45.53 55.78 46.03 55.41 46.41C55.03 46.78 54.52 47 53.99 47C53.46 47 52.95 46.78 52.58 46.41C52.2 46.03 51.99 45.53 51.99 45C51.99 44.46 52.2 43.96 52.58 43.58C52.95 43.21 53.46 43 53.99 43L53.99 43ZM40 13C34.48 13 30 17.48 30 23C30 28.51 34.48 33 40 33C45.51 33 50 28.51 50 23C50 17.48 45.51 13 40 13ZM40 15C44.41 15 48 18.58 48 23C48 27.41 44.41 30.99 40 30.99C35.58 30.99 32 27.41 32 22.99C32 18.58 35.58 14.99 40 14.99L40 15Z" fill="#D2AC69" fill-opacity="1.000000" fill-rule="evenodd"/>
		<path id="Vector" d="M39 14L39 16C39 16.26 39.1 16.51 39.29 16.7C39.48 16.89 39.73 17 40 17C40.26 17 40.51 16.89 40.7 16.7C40.89 16.51 41 16.26 41 16L41 14C41 13.73 40.89 13.48 40.7 13.29C40.51 13.1 40.26 13 40 13C39.73 13 39.48 13.1 39.29 13.29C39.1 13.48 39 13.73 39 14ZM45.65 15.92L44.24 17.34C44.05 17.53 43.95 17.78 43.96 18.04C43.96 18.3 44.06 18.55 44.25 18.74C44.43 18.93 44.69 19.03 44.95 19.03C45.21 19.04 45.46 18.93 45.65 18.75L47.07 17.34C47.25 17.15 47.35 16.9 47.35 16.63C47.34 16.37 47.24 16.12 47.05 15.94C46.87 15.75 46.62 15.65 46.35 15.64C46.09 15.64 45.84 15.74 45.65 15.92ZM49 22L47 22C46.73 22 46.48 22.1 46.29 22.29C46.1 22.48 46 22.73 46 23C46 23.26 46.1 23.51 46.29 23.7C46.48 23.89 46.73 24 47 24L49 24C49.26 24 49.51 23.89 49.7 23.7C49.89 23.51 50 23.26 50 23C50 22.73 49.89 22.48 49.7 22.29C49.51 22.1 49.26 22 49 22ZM47.07 28.65L45.65 27.24C45.46 27.06 45.21 26.96 44.95 26.96C44.69 26.96 44.43 27.06 44.25 27.25C44.06 27.44 43.96 27.69 43.96 27.95C43.95 28.21 44.05 28.46 44.24 28.65L45.65 30.07C45.84 30.25 46.09 30.36 46.36 30.36C46.62 30.36 46.88 30.25 47.07 30.07C47.25 29.88 47.36 29.62 47.36 29.36C47.36 29.09 47.25 28.84 47.07 28.65L47.07 28.65ZM39 30L39 32C39 32.26 39.1 32.51 39.29 32.7C39.48 32.89 39.73 33 40 33C40.26 33 40.51 32.89 40.7 32.7C40.89 32.51 41 32.26 41 32L41 30C41 29.73 40.89 29.48 40.7 29.29C40.51 29.1 40.26 29 40 29C39.73 29 39.48 29.1 39.29 29.29C39.1 29.48 39 29.73 39 30ZM34.34 27.24L32.92 28.65C32.74 28.84 32.63 29.09 32.63 29.36C32.63 29.62 32.74 29.88 32.92 30.07C33.11 30.25 33.37 30.36 33.63 30.36C33.9 30.36 34.15 30.25 34.34 30.07L35.75 28.65C35.93 28.46 36.03 28.21 36.03 27.95C36.03 27.69 35.93 27.44 35.74 27.25C35.55 27.06 35.3 26.96 35.04 26.96C34.78 26.96 34.53 27.06 34.34 27.24ZM33 22L31 22C30.73 22 30.48 22.1 30.29 22.29C30.1 22.48 30 22.73 30 23C30 23.26 30.1 23.51 30.29 23.7C30.48 23.89 30.73 24 31 24L33 24C33.26 24 33.51 23.89 33.7 23.7C33.89 23.51 34 23.26 34 23C34 22.73 33.89 22.48 33.7 22.29C33.51 22.1 33.26 22 33 22ZM35.75 17.34L34.34 15.93C34.15 15.74 33.9 15.64 33.63 15.64C33.37 15.65 33.12 15.75 32.94 15.94C32.75 16.12 32.64 16.37 32.64 16.64C32.64 16.9 32.74 17.15 32.92 17.34L34.34 18.75C34.53 18.94 34.78 19.04 35.04 19.03C35.3 19.03 35.55 18.93 35.74 18.74C35.92 18.56 36.03 18.3 36.03 18.04C36.03 17.78 35.93 17.53 35.75 17.34Z" fill="#D2AC69" fill-opacity="1.000000" fill-rule="evenodd"/>
		<path id="Vector" d="M41 23C41 23.55 40.55 24 40 24C39.44 24 39 23.55 39 23C39 22.44 39.44 22 40 22C40.55 22 41 22.44 41 23Z" fill="#D2AC69" fill-opacity="1.000000" fill-rule="evenodd"/>
		<path id="Vector" d="M11 9L11 29C11 29.26 11.1 29.51 11.29 29.7C11.48 29.89 11.73 30 12 30C12.26 30 12.51 29.89 12.7 29.7C12.89 29.51 13 29.26 13 29L13 9C13 8.73 12.89 8.48 12.7 8.29C12.51 8.1 12.26 8 12 8C11.73 8 11.48 8.1 11.29 8.29C11.1 8.48 11 8.73 11 9ZM53 9L53 37C53 37.26 53.1 37.51 53.29 37.7C53.48 37.89 53.73 38 54 38C54.26 38 54.51 37.89 54.7 37.7C54.89 37.51 55 37.26 55 37L55 9C55 8.73 54.89 8.48 54.7 8.29C54.51 8.1 54.26 8 54 8C53.73 8 53.48 8.1 53.29 8.29C53.1 8.48 53 8.73 53 9Z" fill="#D2AC69" fill-opacity="1.000000" fill-rule="evenodd"/>
		<path id="Vector" d="M7.85 57C8.09 57 8.33 56.91 8.51 56.75C9.06 56.26 9.76 55.99 10.5 56C11.26 56 11.95 56.28 12.48 56.75C12.66 56.91 12.9 57 13.14 57L27 57C27.26 57 27.51 56.89 27.7 56.7C27.89 56.51 28 56.26 28 56L28 31C28 30.2 27.68 29.44 27.12 28.87C26.84 28.6 26.51 28.37 26.14 28.22C25.78 28.07 25.39 27.99 25 28L7 28C6.2 28 5.44 28.31 4.87 28.87C4.6 29.15 4.37 29.48 4.22 29.85C4.07 30.21 3.99 30.6 4 31L4 56C4 56.26 4.1 56.51 4.29 56.7C4.48 56.89 4.73 57 5 57L7.85 57ZM7.5 55L6 55L6 31C5.99 30.86 6.02 30.73 6.07 30.61C6.12 30.49 6.19 30.38 6.29 30.29C6.38 30.19 6.49 30.12 6.61 30.07C6.73 30.02 6.86 29.99 7 30L25 30C25.13 29.99 25.26 30.02 25.38 30.07C25.5 30.12 25.61 30.19 25.7 30.29C25.8 30.38 25.87 30.49 25.92 30.61C25.97 30.73 26 30.86 26 31L26 55L13.49 55C12.63 54.34 11.58 53.99 10.5 54C9.41 53.99 8.36 54.34 7.5 55Z" fill="#D2AC69" fill-opacity="1.000000" fill-rule="evenodd"/>
		<path id="Vector" d="M32.35 57C32.59 57 32.83 56.91 33.01 56.75C33.56 56.26 34.26 55.99 35 56C35.75 56 36.45 56.28 36.98 56.75C37.16 56.91 37.4 57 37.64 57L41 57C41.26 57 41.51 56.89 41.7 56.7C41.89 56.51 42 56.26 42 56L42 47.51C42 47 41.87 46.5 41.62 46.06L37.44 38.54C37.18 38.07 36.8 37.68 36.34 37.41C35.88 37.14 35.35 36.99 34.82 37L27 37C26.73 37 26.48 37.1 26.29 37.29C26.1 37.48 26 37.73 26 38L26 56C26 56.26 26.1 56.51 26.29 56.7C26.48 56.89 26.73 57 27 57L32.35 57ZM32 55L28 55L28 39L34.82 39C35 39 35.17 39.04 35.33 39.13C35.48 39.22 35.61 39.35 35.69 39.51L39.87 47.03C39.95 47.18 40 47.34 40 47.51L40 55L37.99 55C37.13 54.34 36.08 53.99 35 54C33.91 53.99 32.86 54.34 32 55ZM10.5 54C7.74 54 5.5 56.24 5.5 59C5.5 61.76 7.74 64 10.5 64C13.26 64 15.5 61.76 15.5 59C15.5 56.24 13.26 54 10.5 54L10.5 54ZM10.5 56C12.15 56 13.5 57.34 13.5 59C13.5 60.65 12.15 62 10.5 62C9.7 62 8.94 61.68 8.37 61.12C7.81 60.55 7.5 59.79 7.5 59C7.5 58.2 7.81 57.44 8.37 56.87C8.94 56.31 9.7 56 10.5 56L10.5 56Z" fill="#D2AC69" fill-opacity="1.000000" fill-rule="evenodd"/>
		<path id="Vector" d="M37.64 55C37.44 54.99 37.24 55.06 37.07 55.17C36.9 55.29 36.78 55.45 36.7 55.64C36.63 55.83 36.62 56.04 36.67 56.24C36.72 56.43 36.83 56.61 36.98 56.75C37.39 57.11 37.7 57.58 37.86 58.11C38.03 58.64 38.04 59.21 37.9 59.75C37.86 59.89 37.86 60.05 37.89 60.2C37.92 60.35 37.99 60.49 38.08 60.61C38.17 60.73 38.29 60.83 38.43 60.89C38.57 60.96 38.72 60.99 38.87 61L42.03 61C42.82 60.99 43.57 60.68 44.13 60.13C44.68 59.57 44.99 58.82 45 58.03L45 58.03C45 57.63 44.92 57.23 44.76 56.87C44.61 56.5 44.39 56.16 44.11 55.88C43.83 55.6 43.49 55.38 43.12 55.23C42.76 55.07 42.36 54.99 41.96 55L37.64 55ZM13.14 55C12.94 54.99 12.74 55.06 12.57 55.17C12.4 55.29 12.28 55.45 12.2 55.64C12.13 55.83 12.12 56.04 12.17 56.24C12.22 56.43 12.33 56.61 12.48 56.75C12.89 57.11 13.2 57.58 13.36 58.11C13.53 58.64 13.54 59.21 13.4 59.74C13.36 59.89 13.36 60.05 13.39 60.19C13.42 60.34 13.49 60.48 13.58 60.6C13.67 60.72 13.79 60.82 13.93 60.89C14.07 60.96 14.22 60.99 14.37 60.99L31.12 60.99C31.27 60.99 31.42 60.96 31.56 60.89C31.7 60.82 31.82 60.73 31.91 60.61C32 60.49 32.07 60.35 32.1 60.2C32.13 60.05 32.13 59.89 32.09 59.75C31.95 59.21 31.96 58.64 32.13 58.11C32.29 57.58 32.6 57.11 33.01 56.75C33.16 56.61 33.27 56.43 33.32 56.24C33.37 56.04 33.36 55.83 33.29 55.64C33.21 55.45 33.09 55.29 32.92 55.17C32.75 55.06 32.55 54.99 32.35 55L13.14 55ZM8.51 56.75C8.66 56.61 8.77 56.43 8.82 56.24C8.87 56.04 8.86 55.83 8.79 55.64C8.71 55.45 8.59 55.29 8.42 55.17C8.25 55.06 8.05 54.99 7.85 55L4 55C3.6 54.99 3.21 55.07 2.85 55.22C2.48 55.37 2.15 55.6 1.88 55.88C1.6 56.15 1.37 56.48 1.22 56.85C1.07 57.21 0.99 57.6 1 58L1 58C0.99 58.39 1.07 58.78 1.22 59.15C1.37 59.51 1.59 59.84 1.87 60.12C2.15 60.39 2.48 60.61 2.84 60.76C3.2 60.91 3.59 60.99 3.98 60.99L6.62 60.99C6.77 60.99 6.92 60.96 7.06 60.89C7.2 60.82 7.32 60.72 7.41 60.6C7.5 60.48 7.57 60.34 7.6 60.19C7.63 60.05 7.63 59.89 7.59 59.74C7.45 59.21 7.46 58.64 7.63 58.11C7.79 57.58 8.1 57.11 8.51 56.75ZM40 59C40 58.28 39.85 57.61 39.58 57L39.58 57L41.96 57C42.24 57 42.5 57.1 42.69 57.3C42.89 57.49 42.99 57.75 43 58.03L43 58.03C42.99 58.29 42.89 58.53 42.71 58.71C42.53 58.89 42.29 58.99 42.03 59L40 59ZM30 58.99L15.5 58.99C15.5 58.28 15.35 57.61 15.08 57L15.08 57L30.41 57C30.14 57.63 29.99 58.31 30 58.99ZM5.5 58.99L3.98 58.99C3.72 58.99 3.47 58.89 3.29 58.7C3.1 58.52 3 58.26 3 58L3 58C3 57.73 3.1 57.48 3.29 57.29C3.48 57.1 3.73 57 4 57L5.91 57C5.64 57.62 5.49 58.3 5.5 58.99Z" fill="#D2AC69" fill-opacity="1.000000" fill-rule="evenodd"/>
	</g>
</svg>
