<svg width="92.000000" height="92.000000" viewBox="0 0 92 92" fill="none" xmlns="http://www.w3.org/2000/svg" xmlns:xlink="http://www.w3.org/1999/xlink">
	<desc>
			Created with Pixso.
	</desc>
	<defs>
		<clipPath id="clip15_732">
			<rect id="delivery-truck-7 1" rx="0.000000" width="91.000000" height="91.000000" transform="translate(0.500000 0.500000)" fill="white" fill-opacity="0"/>
		</clipPath>
	</defs>
	<rect id="delivery-truck-7 1" rx="0.000000" width="91.000000" height="91.000000" transform="translate(0.500000 0.500000)" fill="#FFFFFF" fill-opacity="0"/>
	<g clip-path="url(#clip15_732)">
		<path id="Vector" d="M68.87 44.11L79.57 45.9C79.64 45.92 79.8 45.93 79.88 45.93C80.37 45.93 80.83 45.74 81.19 45.39C81.54 45.04 81.74 44.57 81.74 44.07L81.74 42.77C81.74 37.33 77.31 32.9 71.87 32.9L70.58 32.9C68.43 32.9 66.68 34.65 66.68 36.8L66.68 41.52C66.68 42.81 67.6 43.9 68.87 44.11ZM69.39 36.8C69.39 36.14 69.92 35.61 70.58 35.61L71.87 35.61C75.82 35.61 79.03 38.82 79.03 42.77L79.03 43.08L69.39 41.52L69.39 36.8Z" fill="#FADB9E" fill-opacity="1.000000" fill-rule="nonzero"/>
		<path id="Vector" d="M87.92 56.65L87.46 56.65C87.86 52.19 87.74 49.33 87.75 49.47C87.36 28.87 75.18 28.28 73.79 28.28C73.66 28.28 73.57 28.28 73.55 28.28L64.32 28.28L64.32 23.2C64.32 20.94 62.48 19.1 60.22 19.1L5.45 19.1C3.19 19.1 1.35 20.94 1.35 23.2C1.35 27.39 1.36 8.02 1.35 64.18C1.35 64.92 1.95 65.53 2.7 65.53L8.18 65.53C8.56 69.65 12.04 72.89 16.26 72.89C20.48 72.89 23.95 69.65 24.34 65.53L66.61 65.53C67 69.65 70.47 72.89 74.69 72.89C78.91 72.89 82.39 69.65 82.77 65.53L87.92 65.53C89.42 65.53 90.64 64.31 90.64 62.81L90.64 59.37C90.64 57.87 89.42 56.65 87.92 56.65ZM85.05 50.85C85.04 51.3 85.06 51 85.02 52.2L82.24 52.2L82.24 50.85L85.05 50.85ZM73.58 30.99C73.61 30.99 73.76 30.99 73.79 30.98C75.56 30.98 84.22 31.84 84.99 48.14C84.25 48.31 79.53 47.22 79.53 50.85L79.53 52.2C79.53 53.69 80.75 54.91 82.24 54.91L84.88 54.91C84.84 55.49 84.81 56.09 84.75 56.65L74.69 56.65L64.32 56.65L64.32 30.99L73.58 30.99ZM66.82 62.82L24.13 62.82C23.85 61.68 23.16 60.33 22.29 59.36C34.61 59.36 57.28 59.36 68.66 59.36C67.78 60.34 67.11 61.65 66.82 62.82ZM4.06 23.2C4.06 22.43 4.68 21.81 5.45 21.81L60.22 21.81C60.99 21.81 61.61 22.43 61.61 23.2C61.61 26.62 61.62 10.81 61.61 56.65L4.06 56.65L4.06 23.2ZM4.05 59.36L10.23 59.36C9.35 60.34 8.67 61.67 8.39 62.82L4.05 62.82L4.05 59.36ZM16.26 70.18C13.27 70.18 10.85 67.76 10.85 64.77C10.85 64.63 10.86 64.5 10.88 64.29C11.11 61.52 13.47 59.36 16.26 59.36C19.27 59.36 21.67 61.88 21.67 64.77C21.67 67.76 19.24 70.18 16.26 70.18ZM74.69 70.18C71.71 70.18 69.28 67.76 69.28 64.77C69.28 61.8 71.72 59.36 74.69 59.36C77.68 59.36 80.1 61.85 80.1 64.77C80.1 67.76 77.68 70.18 74.69 70.18ZM87.94 62.81C87.94 62.82 87.93 62.82 87.92 62.82L82.56 62.82C82.25 61.57 81.54 60.27 80.73 59.37L87.94 59.37L87.94 62.81Z" fill="#FADB9E" fill-opacity="1.000000" fill-rule="nonzero"/>
		<path id="Vector" d="M74.69 61.39C72.82 61.39 71.31 62.91 71.31 64.77C71.31 66.64 72.82 68.15 74.69 68.15C76.55 68.15 78.07 66.64 78.07 64.77C78.07 62.91 76.55 61.39 74.69 61.39ZM74.69 65.45C74.32 65.45 74.01 65.14 74.01 64.77C74.01 64.4 74.32 64.09 74.69 64.09C75.06 64.09 75.37 64.4 75.37 64.77C75.37 65.14 75.06 65.45 74.69 65.45ZM16.26 61.39C14.4 61.39 12.88 62.91 12.88 64.77C12.88 66.64 14.4 68.15 16.26 68.15C18.12 68.15 19.64 66.64 19.64 64.77C19.64 62.91 18.12 61.39 16.26 61.39ZM16.26 65.45C15.89 65.45 15.58 65.14 15.58 64.77C15.58 64.4 15.89 64.09 16.26 64.09C16.63 64.09 16.94 64.4 16.94 64.77C16.94 65.14 16.63 65.45 16.26 65.45ZM12.15 24.55L8.77 24.55C8.02 24.55 7.42 25.16 7.42 25.9C7.42 26.65 8.02 27.26 8.77 27.26L12.15 27.26C12.9 27.26 13.51 26.65 13.51 25.9C13.51 25.16 12.9 24.55 12.15 24.55ZM22.98 24.55L16.89 24.55C16.14 24.55 15.54 25.16 15.54 25.9C15.54 26.65 16.14 27.26 16.89 27.26L22.98 27.26C23.72 27.26 24.33 26.65 24.33 25.9C24.33 25.16 23.72 24.55 22.98 24.55Z" fill="#FADB9E" fill-opacity="1.000000" fill-rule="nonzero"/>
	</g>
</svg>
