<svg width="78.000000" height="78.000000" viewBox="0 0 78 78" fill="none" xmlns="http://www.w3.org/2000/svg" xmlns:xlink="http://www.w3.org/1999/xlink">
	<desc>
			Created with Pixso.
	</desc>
	<defs>
		<clipPath id="clip14_723">
			<rect id="document-7 1" rx="0.000000" width="77.000000" height="77.000000" transform="translate(0.500000 0.500000)" fill="white" fill-opacity="0"/>
		</clipPath>
		<linearGradient x1="32.732838" y1="1.218750" x2="32.732838" y2="61.059372" id="paint_linear_14_724_0" gradientUnits="userSpaceOnUse">
			<stop stop-color="#FADB9E"/>
			<stop offset="1.000000" stop-color="#F0CB85"/>
		</linearGradient>
		<linearGradient x1="32.155251" y1="12.431152" x2="32.155251" y2="54.843651" id="paint_linear_14_725_0" gradientUnits="userSpaceOnUse">
			<stop stop-color="#FADB9E"/>
			<stop offset="1.000000" stop-color="#F0CB85"/>
		</linearGradient>
		<linearGradient x1="43.021935" y1="1.706055" x2="43.021935" y2="48.262302" id="paint_linear_14_726_0" gradientUnits="userSpaceOnUse">
			<stop stop-color="#FADB9E"/>
			<stop offset="1.000000" stop-color="#F0CB85"/>
		</linearGradient>
		<linearGradient x1="48.241589" y1="6.459473" x2="48.241589" y2="76.781349" id="paint_linear_14_727_0" gradientUnits="userSpaceOnUse">
			<stop stop-color="#FADB9E"/>
			<stop offset="1.000000" stop-color="#F0CB85"/>
		</linearGradient>
		<linearGradient x1="41.559353" y1="51.796875" x2="41.559353" y2="65.934372" id="paint_linear_14_728_0" gradientUnits="userSpaceOnUse">
			<stop stop-color="#FADB9E"/>
			<stop offset="1.000000" stop-color="#F0CB85"/>
		</linearGradient>
	</defs>
	<rect id="document-7 1" rx="0.000000" width="77.000000" height="77.000000" transform="translate(0.500000 0.500000)" fill="#FFFFFF" fill-opacity="0"/>
	<g clip-path="url(#clip14_723)">
		<path id="Vector" d="M54.72 61.05L51.43 61.05C50.82 61.05 50.33 60.57 50.33 59.96C50.33 59.35 50.82 58.86 51.43 58.86L53.5 58.86L53.5 3.41L11.94 3.41L11.94 58.74L31.93 58.74C32.54 58.74 33.02 59.23 33.02 59.84C33.02 60.45 32.54 60.93 31.93 60.93L10.72 60.93C10.23 60.93 9.75 60.45 9.75 59.84L9.75 2.31C9.75 1.7 10.23 1.21 10.72 1.21L54.6 1.21C55.2 1.21 55.69 1.7 55.69 2.31L55.69 59.96C55.81 60.45 55.33 61.05 54.72 61.05Z" fill="url(#paint_linear_14_724_0)" fill-opacity="1.000000" fill-rule="nonzero"/>
		<path id="Vector" d="M40.09 29.49L15.6 29.49C14.99 29.49 14.5 29 14.5 28.39C14.5 27.78 14.99 27.29 15.6 27.29L40.09 27.29C40.7 27.29 41.19 27.78 41.19 28.39C41.19 29 40.7 29.49 40.09 29.49ZM40.09 34.49L15.6 34.49C14.99 34.49 14.5 34 14.5 33.39C14.5 32.78 14.99 32.29 15.6 32.29L40.09 32.29C40.7 32.29 41.19 32.78 41.19 33.39C41.19 34 40.7 34.49 40.09 34.49ZM49.35 39.6L15.6 39.6C14.99 39.6 14.5 39.12 14.5 38.51C14.5 37.9 14.99 37.41 15.6 37.41L49.35 37.41C49.96 37.41 50.45 37.9 50.45 38.51C50.45 39.12 49.96 39.6 49.35 39.6ZM49.35 44.6L15.6 44.6C14.99 44.6 14.5 44.11 14.5 43.5C14.5 42.89 14.99 42.41 15.6 42.41L49.35 42.41C49.96 42.41 50.45 42.89 50.45 43.5C50.45 44.11 49.96 44.6 49.35 44.6ZM30.1 49.72L15.6 49.72C14.99 49.72 14.5 49.23 14.5 48.62C14.5 48.01 14.99 47.53 15.6 47.53L30.1 47.53C30.71 47.53 31.2 48.01 31.2 48.62C31.2 49.23 30.71 49.72 30.1 49.72ZM30.1 54.84L15.6 54.84C14.99 54.84 14.5 54.35 14.5 53.74C14.5 53.13 14.99 52.64 15.6 52.64L30.1 52.64C30.71 52.64 31.2 53.13 31.2 53.74C31.2 54.35 30.71 54.84 30.1 54.84ZM37.29 21.57L36.68 21.32C36.19 21.2 35.58 21.08 33.27 16.2L35.22 15.23C35.83 16.57 36.68 17.91 37.17 18.76C39.6 17.18 46.8 12.67 47.16 12.43L48.38 14.38C45.58 16.2 38.02 20.96 37.65 21.2L37.29 21.57ZM28.88 23.76L14.38 23.76L14.25 22.79C13.52 19.5 13.77 17.06 15.11 15.35C16.69 13.4 18.76 13.4 18.89 13.4L19.5 13.4L19.86 14.13C20.59 15.72 21.32 17.18 21.81 18.52C22.3 17.3 23.03 15.72 23.64 14.13L24 13.4L24.86 13.52C26.81 13.77 28.27 14.5 29.12 15.84C30.95 18.64 29.25 22.91 29.12 23.03L28.88 23.76ZM22.79 21.57L27.17 21.57C27.54 20.35 27.9 18.28 27.05 17.06C26.69 16.45 26.08 16.08 25.22 15.84C23.88 19.25 23.15 20.84 22.79 21.57ZM16.2 21.57L20.84 21.57C20.47 20.96 19.86 19.5 18.28 15.84C17.79 15.96 17.3 16.33 16.81 16.81C15.96 17.79 15.84 19.37 16.2 21.57Z" fill="url(#paint_linear_14_725_0)" fill-opacity="1.000000" fill-rule="nonzero"/>
		<path id="Vector" d="M21.81 14.01C19.13 14.01 17.54 10.23 17.54 8.28C17.54 5.97 19.5 4.02 21.81 4.02C24.13 4.02 26.2 5.97 26.2 8.4C26.08 10.35 24.49 14.01 21.81 14.01ZM21.81 6.33C20.59 6.33 19.86 7.31 19.86 8.28C19.86 9.75 21.08 11.82 21.81 11.82C22.54 11.82 23.76 9.75 23.76 8.28C23.88 7.06 22.91 6.33 21.81 6.33ZM58.74 48.26C58.13 48.26 57.64 47.77 57.64 47.16L57.52 6.94C57.52 5.48 58.01 4.26 59.1 3.29C60.08 2.31 61.3 1.7 62.76 1.7L63.13 1.7C64.59 1.7 65.81 2.31 66.78 3.29C67.76 4.26 68.37 5.48 68.37 6.94L68.49 47.04C68.49 47.4 68.37 47.65 68.12 47.89C67.88 48.14 67.64 48.26 67.27 48.26L58.74 48.26ZM63 3.89L62.64 3.89C61.79 3.89 61.05 4.26 60.57 4.75C59.84 5.36 59.71 6.09 59.71 6.94L59.84 46.06L66.05 46.06L65.93 6.94C65.93 6.09 65.56 5.36 65.08 4.87C64.47 4.14 63.74 3.89 63 3.89Z" fill="url(#paint_linear_14_726_0)" fill-opacity="1.000000" fill-rule="nonzero"/>
		<path id="Vector" d="M63 60.57C62.52 60.57 62.03 60.2 61.91 59.84L57.64 47.53C57.52 47.16 57.52 46.8 57.76 46.43C58.01 46.06 58.37 45.94 58.74 45.94L67.27 45.94C67.64 45.94 68 46.06 68.25 46.43C68.49 46.67 68.49 47.16 68.37 47.53L64.1 59.96C63.86 60.2 63.49 60.57 63 60.57ZM60.2 48.26L62.88 56.06L65.44 48.14L60.2 48.26ZM63 44.24C62.4 44.24 61.91 43.75 61.91 43.14L61.91 7.55C61.91 6.94 62.4 6.45 63 6.45C63.61 6.45 64.1 6.94 64.1 7.55L64.1 43.14C63.98 43.75 63.61 44.24 63 44.24ZM49.35 76.78L44.85 69.22C44.6 69.22 44.36 69.34 44.24 69.71C43.75 70.8 42.77 71.54 41.55 71.54C40.34 71.54 39.36 70.8 38.87 69.71C38.75 69.46 38.63 69.34 38.39 69.34L34 76.78L32.66 72.14L28.03 73.24L32.54 65.69C31.44 65.69 30.59 64.95 30.1 63.86C29.61 62.76 29.85 61.66 30.71 60.81C30.83 60.69 30.95 60.57 30.95 60.32C30.95 60.2 30.95 59.96 30.59 59.71C29.61 59.23 29.12 58.25 29.12 57.28C29.12 55.81 29.98 54.84 31.32 54.47C31.68 54.35 31.8 54.11 31.8 53.86C31.8 53.74 31.8 53.62 31.68 53.5C31.44 53.01 31.32 52.64 31.32 52.16C31.32 51.18 31.8 50.33 32.54 49.84C33.27 49.23 34.36 49.11 35.09 49.48C35.46 49.6 35.95 49.35 35.95 48.87C36.07 47.28 37.41 46.31 38.75 46.31C39.73 46.31 40.46 46.67 40.95 47.4C41.07 47.65 41.31 47.65 41.43 47.65C41.55 47.65 41.8 47.65 41.92 47.4C42.65 46.43 43.75 46.06 44.97 46.43C46.19 46.8 46.8 47.77 46.92 48.87C46.92 49.35 47.4 49.6 47.77 49.48C49.11 48.99 50.45 49.6 51.18 50.7C51.67 51.55 51.79 52.52 51.3 53.5C51.18 53.62 51.18 53.74 51.18 53.74C51.18 53.99 51.3 54.35 51.67 54.35C53.01 54.72 53.86 55.94 53.86 57.15C53.86 58.25 53.25 59.1 52.4 59.59C52.16 59.71 52.04 59.96 52.04 60.2C52.04 60.32 52.04 60.45 52.16 60.69C52.65 61.3 53.01 62.03 53.01 62.64C53.01 63.49 52.65 64.22 52.04 64.71C51.55 65.2 50.94 65.44 50.33 65.44L54.84 73L50.21 71.9L49.35 76.78ZM34.24 69.59L34.73 71.29L37.05 67.27L37.41 67.15C37.65 67.03 38.02 67.03 38.26 67.03C39.48 67.03 40.46 67.76 40.95 68.85C41.07 69.22 41.43 69.22 41.55 69.22C41.68 69.22 42.04 69.22 42.16 68.85C42.65 67.76 43.75 67.03 44.85 67.03C45.33 67.03 45.82 67.15 46.19 67.39L46.43 67.51L48.62 71.29L49.11 69.59L50.82 69.95L47.77 64.71L48.5 64.1C48.99 63.61 49.72 63.37 50.33 63.37L50.45 63.37C50.7 63.37 50.82 63.37 50.94 63.25C51.06 63.13 51.18 62.88 51.18 62.76C51.18 62.64 51.06 62.39 50.94 62.27C50.45 61.79 50.09 61.05 50.09 60.32C50.09 59.23 50.7 58.37 51.55 57.89C51.79 57.76 51.91 57.52 51.91 57.28C51.91 57.03 51.79 56.67 51.43 56.67C50.09 56.3 49.23 55.08 49.23 53.86C49.23 53.38 49.35 53.01 49.6 52.52C49.72 52.28 49.72 52.04 49.6 51.91C49.48 51.67 49.11 51.55 48.87 51.67C48.62 51.79 48.26 51.79 47.89 51.79C46.31 51.79 45.21 50.57 45.09 49.23C45.09 48.87 44.72 48.75 44.6 48.62C44.48 48.62 44.11 48.5 43.87 48.87C43.26 49.6 42.41 49.96 41.68 49.96C40.82 49.96 39.97 49.6 39.48 48.87C39.36 48.75 39.24 48.62 39 48.62C38.75 48.62 38.39 48.75 38.39 49.23C38.26 50.82 36.92 51.79 35.58 51.79C35.22 51.79 34.85 51.79 34.61 51.67C34.36 51.55 34.24 51.67 34 51.79C33.75 51.91 33.75 52.16 33.75 52.4C33.75 52.52 33.75 52.64 33.88 52.77C34.12 53.25 34.24 53.62 34.24 54.11C34.24 55.45 33.27 56.55 32.05 56.91C31.56 57.03 31.56 57.52 31.56 57.52C31.56 57.76 31.68 58.01 31.93 58.13C32.9 58.62 33.39 59.59 33.39 60.57C33.39 61.3 33.15 62.03 32.54 62.52C32.29 62.76 32.29 63.13 32.41 63.25C32.41 63.37 32.66 63.61 33.02 63.61C34 63.61 34.85 63.98 35.34 64.59L35.83 65.2L32.9 70.2L34.24 69.59Z" fill="url(#paint_linear_14_727_0)" fill-opacity="1.000000" fill-rule="nonzero"/>
		<path id="Vector" d="M41.55 65.93C37.65 65.93 34.49 62.76 34.49 58.86C34.49 54.96 37.65 51.79 41.55 51.79C45.45 51.79 48.62 54.96 48.62 58.86C48.62 62.76 45.45 65.93 41.55 65.93ZM41.55 54.11C38.87 54.11 36.68 56.18 36.68 58.98C36.68 61.66 38.75 63.86 41.55 63.86C44.36 63.86 46.43 61.79 46.43 58.98C46.43 56.18 44.36 54.11 41.55 54.11Z" fill="url(#paint_linear_14_728_0)" fill-opacity="1.000000" fill-rule="nonzero"/>
	</g>
</svg>
