<svg width="24.000000" height="24.000000" viewBox="0 0 24 24" fill="none" xmlns="http://www.w3.org/2000/svg" xmlns:xlink="http://www.w3.org/1999/xlink">
	<desc>
			Created with Pixso.
	</desc>
	<defs>
		<clipPath id="clip16_246">
			<rect id="location-13 3" rx="0.000000" width="23.000000" height="23.000000" transform="translate(0.500000 0.500000)" fill="white" fill-opacity="0"/>
		</clipPath>
	</defs>
	<rect id="location-13 3" rx="0.000000" width="23.000000" height="23.000000" transform="translate(0.500000 0.500000)" fill="#FFFFFF" fill-opacity="0"/>
	<g clip-path="url(#clip16_246)">
		<path id="Vector" d="M12 2C9.87 2 7.84 2.84 6.34 4.34C4.84 5.84 4 7.87 4 10C4 13.25 6.36 15.95 8.86 18.81C9.65 19.72 10.47 20.66 11.2 21.61C11.3 21.73 11.42 21.82 11.55 21.89C11.69 21.96 11.84 21.99 12 21.99C12.15 21.99 12.3 21.96 12.44 21.89C12.57 21.82 12.69 21.73 12.79 21.61C13.52 20.66 14.34 19.72 15.13 18.81C17.63 15.95 20 13.25 20 10C19.99 7.87 19.15 5.84 17.65 4.34C16.15 2.84 14.12 2 12 2ZM12 13C11.4 13 10.82 12.82 10.33 12.49C9.83 12.16 9.45 11.69 9.22 11.14C9 10.59 8.94 9.99 9.05 9.41C9.17 8.83 9.45 8.29 9.87 7.87C10.29 7.45 10.83 7.17 11.41 7.05C11.99 6.94 12.59 7 13.14 7.22C13.69 7.45 14.16 7.83 14.49 8.33C14.82 8.82 15 9.4 15 10C15 10.79 14.68 11.55 14.12 12.12C13.55 12.68 12.79 13 12 13Z" fill="#D2AC69" fill-opacity="1.000000" fill-rule="nonzero"/>
	</g>
</svg>
