<svg width="25.000000" height="25.000000" viewBox="0 0 25 25" fill="none" xmlns="http://www.w3.org/2000/svg" xmlns:xlink="http://www.w3.org/1999/xlink">
	<desc>
			Created with Pixso.
	</desc>
	<defs>
		<clipPath id="clip16_243">
			<rect id="mail-6 2" rx="0.000000" width="24.000000" height="24.000000" transform="translate(0.500000 0.500000)" fill="white" fill-opacity="0"/>
		</clipPath>
	</defs>
	<rect id="mail-6 2" rx="0.000000" width="24.000000" height="24.000000" transform="translate(0.500000 0.500000)" fill="#FFFFFF" fill-opacity="0"/>
	<g clip-path="url(#clip16_243)">
		<path id="Vector" d="M1.72 6.39L1.72 18.61L7.83 12.5L1.72 6.39ZM2.93 5.17L10.67 12.9C11.64 13.88 13.35 13.88 14.32 12.9L22.06 5.17L2.93 5.17Z" fill="#D2AC69" fill-opacity="1.000000" fill-rule="nonzero"/>
		<path id="Vector" d="M15.54 14.12C14.73 14.93 13.65 15.38 12.5 15.38C11.34 15.38 10.26 14.93 9.45 14.12L9.05 13.72L2.94 19.82L22.05 19.82L15.94 13.72L15.54 14.12ZM17.16 12.5L23.27 18.61L23.27 6.39L17.16 12.5Z" fill="#D2AC69" fill-opacity="1.000000" fill-rule="nonzero"/>
	</g>
</svg>
