<svg width="70.000000" height="70.000000" viewBox="0 0 70 70" fill="none" xmlns="http://www.w3.org/2000/svg" xmlns:xlink="http://www.w3.org/1999/xlink">
	<desc>
			Created with Pixso.
	</desc>
	<defs>
		<clipPath id="clip11_310">
			<rect id="money-security 1" rx="0.000000" width="69.000000" height="69.000000" transform="translate(0.500000 0.500000)" fill="white" fill-opacity="0"/>
		</clipPath>
	</defs>
	<rect id="money-security 1" rx="0.000000" width="69.000000" height="69.000000" transform="translate(0.500000 0.500000)" fill="#FFFFFF" fill-opacity="0"/>
	<g clip-path="url(#clip11_310)">
		<path id="Vector" d="M33.9 29.53L36.09 29.53C36.67 29.53 37.23 29.76 37.64 30.17C38.05 30.58 38.28 31.13 38.28 31.71C38.28 32 38.39 32.28 38.6 32.49C38.8 32.69 39.08 32.81 39.37 32.81C39.66 32.81 39.94 32.69 40.14 32.49C40.35 32.28 40.46 32 40.46 31.71C40.46 30.55 40 29.44 39.18 28.62C38.36 27.8 37.25 27.34 36.09 27.34L36.09 26.25C36.09 25.96 35.97 25.68 35.77 25.47C35.56 25.27 35.29 25.15 35 25.15C34.7 25.15 34.43 25.27 34.22 25.47C34.02 25.68 33.9 25.96 33.9 26.25L33.9 27.34C32.74 27.34 31.63 27.8 30.81 28.62C29.99 29.44 29.53 30.55 29.53 31.71C29.53 32.87 29.99 33.99 30.81 34.81C31.63 35.63 32.74 36.09 33.9 36.09L36.09 36.09C36.67 36.09 37.23 36.32 37.64 36.73C38.05 37.14 38.28 37.7 38.28 38.28C38.28 38.86 38.05 39.41 37.64 39.82C37.23 40.23 36.67 40.46 36.09 40.46L33.9 40.46C33.32 40.46 32.76 40.23 32.35 39.82C31.94 39.41 31.71 38.86 31.71 38.28C31.71 37.99 31.6 37.71 31.39 37.5C31.19 37.3 30.91 37.18 30.62 37.18C30.33 37.18 30.05 37.3 29.85 37.5C29.64 37.71 29.53 37.99 29.53 38.28C29.53 39.44 29.99 40.55 30.81 41.37C31.63 42.19 32.74 42.65 33.9 42.65L33.9 43.75C33.9 44.04 34.02 44.31 34.22 44.52C34.43 44.72 34.7 44.84 35 44.84C35.29 44.84 35.56 44.72 35.77 44.52C35.97 44.31 36.09 44.04 36.09 43.75L36.09 42.65C37.25 42.65 38.36 42.19 39.18 41.37C40 40.55 40.46 39.44 40.46 38.28C40.46 37.12 40 36 39.18 35.18C38.36 34.36 37.25 33.9 36.09 33.9L33.9 33.9C33.32 33.9 32.76 33.67 32.35 33.26C31.94 32.85 31.71 32.29 31.71 31.71C31.71 31.13 31.94 30.58 32.35 30.17C32.76 29.76 33.32 29.53 33.9 29.53ZM54.23 17.5C50.65 16.79 47.19 15.58 43.95 13.89C41.47 12.59 39.15 11.03 37.02 9.23C36.45 8.75 35.74 8.47 34.99 8.46C34.25 8.44 33.53 8.69 32.94 9.15C30.76 10.84 28.42 12.34 25.97 13.61C22.69 15.3 19.21 16.59 15.62 17.45C14.9 17.62 14.27 18.03 13.81 18.6C13.36 19.18 13.12 19.9 13.12 20.63L13.12 33.84C13.15 40.11 15.3 46.19 19.21 51.09C23.12 55.99 28.57 59.43 34.68 60.86C34.86 60.91 35.05 60.92 35.23 60.88C41.36 59.47 46.83 56.03 50.76 51.12C54.68 46.21 56.84 40.12 56.87 33.84L56.87 20.71C56.87 19.95 56.61 19.22 56.13 18.63C55.64 18.04 54.97 17.64 54.23 17.5ZM54.68 33.84C54.65 39.58 52.7 45.16 49.13 49.66C45.56 54.16 40.58 57.34 35 58.68C29.41 57.34 24.43 54.16 20.86 49.66C17.29 45.15 15.34 39.58 15.31 33.84L15.31 20.63C15.31 20.39 15.38 20.15 15.53 19.96C15.68 19.77 15.89 19.63 16.13 19.58C19.89 18.68 23.53 17.33 26.97 15.55C29.55 14.22 32 12.65 34.29 10.88C34.47 10.73 34.71 10.65 34.95 10.66C35.19 10.66 35.42 10.75 35.6 10.9C37.86 12.81 40.31 14.46 42.93 15.83C46.36 17.61 50.02 18.9 53.81 19.64C54.06 19.69 54.28 19.82 54.44 20.01C54.6 20.21 54.68 20.45 54.68 20.71L54.68 33.84ZM35 20.78C32.18 20.78 29.43 21.61 27.1 23.17C24.76 24.73 22.93 26.96 21.86 29.55C20.78 32.15 20.5 35.01 21.05 37.77C21.6 40.53 22.95 43.06 24.94 45.05C26.93 47.04 29.46 48.39 32.22 48.94C34.98 49.49 37.84 49.21 40.44 48.13C43.03 47.06 45.26 45.23 46.82 42.89C48.38 40.56 49.21 37.81 49.21 35C49.21 31.23 47.71 27.61 45.04 24.95C42.38 22.28 38.76 20.78 35 20.78ZM35 47.03C32.62 47.03 30.29 46.32 28.31 45C26.33 43.68 24.79 41.8 23.88 39.6C22.97 37.4 22.73 34.98 23.2 32.65C23.66 30.31 24.8 28.17 26.49 26.49C28.17 24.81 30.31 23.66 32.65 23.2C34.98 22.73 37.4 22.97 39.6 23.88C41.8 24.79 43.68 26.33 45 28.31C46.32 30.29 47.03 32.62 47.03 35C47.02 38.18 45.75 41.24 43.5 43.5C41.24 45.75 38.18 47.02 35 47.03ZM60.77 12.61C55.84 11.7 51.07 10.05 46.62 7.73C43.65 6.18 40.85 4.34 38.25 2.23C37.3 1.48 36.14 1.07 34.93 1.06C33.72 1.04 32.54 1.43 31.58 2.16C28.96 4.12 26.18 5.86 23.27 7.36C18.77 9.68 14.01 11.43 9.07 12.56C8.35 12.73 7.71 13.13 7.26 13.71C6.8 14.29 6.55 15.01 6.56 15.75L6.56 33.68C6.6 41.86 9.4 49.79 14.51 56.18C19.61 62.57 26.72 67.05 34.69 68.9C34.79 68.93 34.89 68.94 35 68.94C35.08 68.94 35.16 68.93 35.23 68.92C43.22 67.08 50.35 62.6 55.47 56.21C60.58 49.81 63.39 41.87 63.43 33.68L63.43 15.83C63.43 15.07 63.17 14.33 62.68 13.74C62.2 13.15 61.52 12.76 60.77 12.61ZM61.25 33.68C61.2 41.33 58.59 48.75 53.83 54.74C49.07 60.73 42.44 64.95 35 66.71C27.55 64.94 20.92 60.73 16.16 54.74C11.4 48.75 8.79 41.33 8.75 33.68L8.75 15.75C8.74 15.5 8.82 15.26 8.97 15.07C9.12 14.88 9.33 14.74 9.57 14.69C14.68 13.52 19.62 11.71 24.28 9.31C27.29 7.75 30.17 5.94 32.89 3.92C33.46 3.48 34.16 3.24 34.88 3.24C35.6 3.24 36.3 3.49 36.87 3.93C39.58 6.13 42.51 8.05 45.6 9.67C50.24 12.09 55.22 13.81 60.37 14.76C60.62 14.81 60.84 14.94 61 15.14C61.16 15.33 61.25 15.58 61.25 15.83L61.25 33.68Z" fill="#D2AC69" fill-opacity="1.000000" fill-rule="nonzero"/>
	</g>
</svg>
