<svg width="64.000000" height="64.000000" viewBox="0 0 64 64" fill="none" xmlns="http://www.w3.org/2000/svg" xmlns:xlink="http://www.w3.org/1999/xlink">
	<desc>
			Created with Pixso.
	</desc>
	<defs>
		<clipPath id="clip11_287">
			<rect id="money-26 1" rx="0.000000" width="63.000000" height="63.000000" transform="translate(0.500000 0.500000)" fill="white" fill-opacity="0"/>
		</clipPath>
	</defs>
	<rect id="money-26 1" rx="0.000000" width="63.000000" height="63.000000" transform="translate(0.500000 0.500000)" fill="#FFFFFF" fill-opacity="0"/>
	<g clip-path="url(#clip11_287)">
		<path id="Vector" d="M61 7L3 7C2.2 7 1.44 7.31 0.87 7.87C0.31 8.44 0 9.2 0 10L0 44C0 44.79 0.31 45.55 0.87 46.12C1.44 46.68 2.2 47 3 47L3.5 47L3.5 49C3.5 49.79 3.81 50.55 4.37 51.12C4.94 51.68 5.7 52 6.5 52L7 52L7 54C7 54.79 7.31 55.55 7.87 56.12C8.44 56.68 9.2 57 10 57L54 57C54.79 57 55.55 56.68 56.12 56.12C56.68 55.55 57 54.79 57 54L57 52L57.5 52C58.29 52 59.05 51.68 59.62 51.12C60.18 50.55 60.5 49.79 60.5 49L60.5 47L61 47C61.79 47 62.55 46.68 63.12 46.12C63.68 45.55 64 44.79 64 44L64 10C64 9.2 63.68 8.44 63.12 7.87C62.55 7.31 61.79 7 61 7ZM55 54C55 54.26 54.89 54.51 54.7 54.7C54.51 54.89 54.26 55 54 55L10 55C9.73 55 9.48 54.89 9.29 54.7C9.1 54.51 9 54.26 9 54L9 52L55 52L55 54ZM58.5 49C58.5 49.26 58.39 49.51 58.2 49.7C58.01 49.89 57.76 50 57.5 50L6.5 50C6.23 50 5.98 49.89 5.79 49.7C5.6 49.51 5.5 49.26 5.5 49L5.5 47L58.5 47L58.5 49ZM62 44C62 44.26 61.89 44.51 61.7 44.7C61.51 44.89 61.26 45 61 45L3 45C2.73 45 2.48 44.89 2.29 44.7C2.1 44.51 2 44.26 2 44L2 10C2 9.73 2.1 9.48 2.29 9.29C2.48 9.1 2.73 9 3 9L61 9C61.26 9 61.51 9.1 61.7 9.29C61.89 9.48 62 9.73 62 10L62 44Z" fill="#D2AC69" fill-opacity="1.000000" fill-rule="nonzero"/>
		<path id="Vector" d="M56 21C54.4 21 52.88 20.36 51.75 19.24C50.63 18.11 50 16.59 50 15C50 14.73 49.89 14.48 49.7 14.29C49.51 14.1 49.26 14 49 14L15 14C14.73 14 14.48 14.1 14.29 14.29C14.1 14.48 14 14.73 14 15C14 16.59 13.36 18.11 12.24 19.24C11.11 20.36 9.59 21 8 21C7.73 21 7.48 21.1 7.29 21.29C7.1 21.48 7 21.73 7 22L7 32C7 32.26 7.1 32.51 7.29 32.7C7.48 32.89 7.73 33 8 33C9.59 33 11.11 33.63 12.24 34.75C13.36 35.88 14 37.4 14 39C14 39.26 14.1 39.51 14.29 39.7C14.48 39.89 14.73 40 15 40L49 40C49.26 40 49.51 39.89 49.7 39.7C49.89 39.51 50 39.26 50 39C50 37.4 50.63 35.88 51.75 34.75C52.88 33.63 54.4 33 56 33C56.26 33 56.51 32.89 56.7 32.7C56.89 32.51 57 32.26 57 32L57 22C57 21.73 56.89 21.48 56.7 21.29C56.51 21.1 56.26 21 56 21ZM55 31.06C53.23 31.28 51.59 32.08 50.34 33.34C49.08 34.59 48.28 36.23 48.06 38L15.93 38C15.71 36.23 14.91 34.59 13.65 33.34C12.4 32.08 10.76 31.28 9 31.06L9 22.94C10.76 22.71 12.4 21.91 13.65 20.65C14.91 19.4 15.71 17.76 15.93 16L48.06 16C48.28 17.76 49.08 19.4 50.34 20.65C51.59 21.91 53.23 22.71 55 22.94L55 31.06Z" fill="#D2AC69" fill-opacity="1.000000" fill-rule="nonzero"/>
		<path id="Vector" d="M32 18C30.22 18 28.47 18.52 26.99 19.51C25.51 20.5 24.36 21.91 23.68 23.55C23 25.2 22.82 27.01 23.17 28.75C23.52 30.5 24.37 32.1 25.63 33.36C26.89 34.62 28.49 35.47 30.24 35.82C31.99 36.17 33.79 35.99 35.44 35.31C37.08 34.63 38.49 33.48 39.48 32C40.47 30.52 41 28.78 41 27C41 24.61 40.05 22.32 38.36 20.63C36.67 18.94 34.38 18 32 18ZM32 34C30.61 34 29.26 33.58 28.11 32.82C26.95 32.05 26.06 30.95 25.53 29.67C25 28.39 24.86 26.99 25.13 25.63C25.4 24.27 26.07 23.02 27.05 22.05C28.02 21.07 29.27 20.4 30.63 20.13C31.99 19.86 33.39 20 34.67 20.53C35.95 21.06 37.05 21.95 37.82 23.11C38.58 24.26 39 25.61 39 27C39 28.85 38.26 30.63 36.94 31.94C35.63 33.26 33.85 34 32 34Z" fill="#D2AC69" fill-opacity="1.000000" fill-rule="nonzero"/>
	</g>
</svg>
