<svg width="29.994446" height="29.925781" viewBox="0 0 29.9944 29.9258" fill="none" xmlns="http://www.w3.org/2000/svg" xmlns:xlink="http://www.w3.org/1999/xlink">
	<desc>
			Created with Pixso.
	</desc>
	<defs/>
	<path id="Vector" d="M17.12 29.08L29.12 17.08C29.68 16.51 29.99 15.75 29.99 14.96C29.99 14.16 29.68 13.4 29.12 12.84L17.12 0.84C16.55 0.29 15.79 -0.01 15.01 0C14.22 0 13.47 0.32 12.91 0.87C12.35 1.43 12.04 2.18 12.03 2.97C12.03 3.76 12.33 4.51 12.87 5.08L19.75 11.96L3 11.96C2.2 11.96 1.44 12.27 0.87 12.84C0.31 13.4 0 14.16 0 14.96C0 15.75 0.31 16.52 0.87 17.08C1.44 17.64 2.2 17.96 3 17.96L19.75 17.96L12.87 24.84C12.33 25.4 12.03 26.16 12.03 26.95C12.04 27.73 12.35 28.49 12.91 29.04C13.47 29.6 14.22 29.91 15.01 29.92C15.79 29.93 16.55 29.63 17.12 29.08Z" fill="#D2AC69" fill-opacity="1.000000" fill-rule="nonzero"/>
</svg>
