<svg width="34.000000" height="34.000000" viewBox="0 0 34 34" fill="none" xmlns="http://www.w3.org/2000/svg" xmlns:xlink="http://www.w3.org/1999/xlink">
	<desc>
			Created with Pixso.
	</desc>
	<defs>
		<clipPath id="clip16_119">
			<rect id="photo-2 2" rx="0.000000" width="33.000000" height="33.000000" transform="translate(0.500000 0.500000)" fill="white" fill-opacity="0"/>
		</clipPath>
	</defs>
	<rect id="photo-2 2" rx="0.000000" width="33.000000" height="33.000000" transform="translate(0.500000 0.500000)" fill="#FFFFFF" fill-opacity="0"/>
	<g clip-path="url(#clip16_119)">
		<path id="Vector" d="M29.24 26.51L33.32 26.51L33.32 2.71L5.44 2.71L5.44 6.79L0.68 6.79L0.68 31.27L29.24 31.27L29.24 26.51ZM6.8 4.08L31.96 4.08L31.96 25.16L29.24 25.16L29.24 6.79L6.8 6.79L6.8 4.08ZM5.44 8.16L27.88 8.16L27.88 13.31L25.16 10.59L13.6 22.15L6.8 15.35L2.04 20.11L2.04 8.16L5.44 8.16ZM27.88 29.91L2.04 29.91L2.04 22.04L6.8 17.28L13.6 24.08L25.16 12.52L27.88 15.24L27.88 29.91Z" fill="#000000" fill-opacity="1.000000" fill-rule="nonzero"/>
		<path id="Vector" d="M13.6 17C15.47 17 17 15.47 17 13.6C17 11.72 15.47 10.2 13.6 10.2C11.72 10.2 10.2 11.72 10.2 13.6C10.2 15.47 11.72 17 13.6 17ZM13.6 11.56C14.72 11.56 15.63 12.47 15.63 13.6C15.63 14.72 14.72 15.64 13.6 15.64C12.47 15.64 11.55 14.72 11.55 13.6C11.55 12.47 12.47 11.56 13.6 11.56Z" fill="#000000" fill-opacity="1.000000" fill-rule="nonzero"/>
	</g>
</svg>
