<svg width="29.994385" height="29.925781" viewBox="0 0 29.9944 29.9258" fill="none" xmlns="http://www.w3.org/2000/svg" xmlns:xlink="http://www.w3.org/1999/xlink">
	<desc>
			Created with Pixso.
	</desc>
	<defs/>
	<path id="Vector" d="M12.87 0.84L0.87 12.84C0.31 13.4 0 14.16 0 14.96C0 15.75 0.31 16.51 0.87 17.08L12.87 29.08C13.43 29.62 14.19 29.93 14.98 29.92C15.77 29.91 16.52 29.6 17.07 29.04C17.63 28.49 17.95 27.73 17.95 26.95C17.96 26.16 17.66 25.4 17.11 24.84L10.23 17.96L26.99 17.96C27.79 17.96 28.55 17.64 29.11 17.08C29.67 16.52 29.99 15.75 29.99 14.96C29.99 14.16 29.67 13.4 29.11 12.84C28.55 12.27 27.79 11.96 26.99 11.96L10.23 11.96L17.11 5.08C17.66 4.51 17.96 3.75 17.95 2.97C17.95 2.18 17.63 1.43 17.07 0.87C16.52 0.32 15.77 0 14.98 0C14.19 -0.01 13.43 0.29 12.87 0.84Z" fill="#D2AC69" fill-opacity="1.000000" fill-rule="nonzero"/>
</svg>
