<svg width="78.000000" height="78.000000" viewBox="0 0 78 78" fill="none" xmlns="http://www.w3.org/2000/svg" xmlns:xlink="http://www.w3.org/1999/xlink">
	<desc>
			Created with Pixso.
	</desc>
	<defs>
		<clipPath id="clip14_729">
			<rect id="quality-4 1" rx="0.000000" width="77.000000" height="77.000000" transform="translate(0.500000 0.500000)" fill="white" fill-opacity="0"/>
		</clipPath>
	</defs>
	<rect id="quality-4 1" rx="0.000000" width="77.000000" height="77.000000" transform="translate(0.500000 0.500000)" fill="#FFFFFF" fill-opacity="0"/>
	<g clip-path="url(#clip14_729)">
		<path id="Vector" d="M69.33 32.07L72.74 23.75C72.88 23.43 72.86 23.07 72.72 22.76C72.57 22.46 72.29 22.21 71.96 22.12L63.32 19.6L62.78 10.62C62.76 10.28 62.6 9.96 62.33 9.75C62.07 9.53 61.71 9.44 61.37 9.49L52.5 10.95L48.12 3.09C47.95 2.79 47.67 2.58 47.33 2.49C47 2.41 46.64 2.49 46.36 2.69L39.01 7.88L31.66 2.69C31.38 2.49 31.02 2.42 30.68 2.49C30.34 2.57 30.06 2.79 29.89 3.09L25.52 10.95L16.64 9.48C16.31 9.42 15.96 9.51 15.68 9.73C15.41 9.95 15.24 10.27 15.23 10.61L14.69 19.59L6.05 22.1C5.72 22.2 5.44 22.43 5.3 22.75C5.15 23.07 5.14 23.42 5.27 23.74L8.68 32.06L1.98 38.09C1.73 38.32 1.58 38.65 1.58 39C1.58 39.34 1.73 39.67 1.98 39.9L8.66 45.92L5.25 54.24C5.11 54.56 5.13 54.92 5.27 55.23C5.42 55.53 5.7 55.78 6.03 55.87L14.67 58.39L15.21 67.37C15.23 67.71 15.39 68.03 15.66 68.25C15.92 68.46 16.28 68.55 16.62 68.5L25.49 67.04L29.87 74.9C30.04 75.2 30.32 75.41 30.66 75.5C30.99 75.58 31.35 75.5 31.63 75.3L38.98 70.11L46.33 75.3C46.54 75.45 46.78 75.52 47.04 75.52C47.12 75.52 47.22 75.52 47.31 75.48C47.65 75.41 47.93 75.19 48.1 74.89L52.47 67.03L61.35 68.5C61.68 68.56 62.03 68.46 62.31 68.25C62.58 68.03 62.75 67.71 62.76 67.37L63.3 58.39L71.94 55.87C72.27 55.78 72.55 55.55 72.69 55.23C72.84 54.91 72.85 54.56 72.72 54.24L69.31 45.92L75.98 39.9C76.24 39.67 76.39 39.34 76.39 39C76.39 38.65 76.24 38.32 75.98 38.09L69.31 32.07L69.33 32.07ZM67.06 44.69C66.68 45.03 66.55 45.58 66.76 46.05L69.99 53.91L61.82 56.29C61.32 56.44 60.98 56.87 60.94 57.39L60.43 65.87L52.05 64.48C51.54 64.39 51.04 64.64 50.78 65.09L46.65 72.51L39.7 67.61C39.49 67.46 39.25 67.39 39 67.39C38.74 67.39 38.51 67.46 38.29 67.61L31.34 72.51L27.21 65.09C26.97 64.64 26.45 64.39 25.94 64.48L17.56 65.87L17.05 57.39C17.01 56.87 16.67 56.44 16.17 56.29L8.01 53.91L11.23 46.05C11.43 45.58 11.3 45.03 10.93 44.69L4.61 39L10.93 33.3C11.3 32.96 11.44 32.41 11.23 31.94L8 24.08L16.17 21.7C16.67 21.55 17.01 21.12 17.05 20.6L17.56 12.12L25.94 13.51C26.45 13.61 26.95 13.35 27.21 12.9L31.34 5.48L38.29 10.38C38.71 10.67 39.28 10.67 39.69 10.38L46.64 5.48L50.77 12.9C51.02 13.35 51.52 13.6 52.04 13.51L60.42 12.12L60.93 20.6C60.97 21.12 61.31 21.55 61.81 21.7L69.96 24.08L66.75 31.94C66.55 32.41 66.67 32.96 67.05 33.3L73.36 39L67.05 44.69L67.06 44.69Z" fill="#FADB9E" fill-opacity="1.000000" fill-rule="nonzero"/>
		<path id="Vector" d="M39 14.62C25.55 14.62 14.62 25.55 14.62 39C14.62 42.79 15.51 46.36 17.06 49.55L17.06 49.96L17.25 49.96C21.27 57.9 29.5 63.37 39 63.37C52.44 63.37 63.37 52.44 63.37 39C63.37 25.55 52.44 14.62 39 14.62ZM17.06 39C17.06 37.75 17.19 36.53 17.39 35.34L26.81 35.34L26.81 47.53L18.79 47.53C17.68 44.91 17.06 42.02 17.06 39ZM39 60.93C30.9 60.93 23.82 56.51 20.03 49.96L28.03 49.96C28.55 49.96 28.99 49.63 29.16 49.17L29.76 49.55C31.41 50.62 33.33 51.18 35.3 51.18L48.5 51.18C51.33 51.18 53.62 48.89 53.62 46.08L53.62 36.59C53.62 34.14 51.62 32.15 49.16 32.15L42.88 32.15C42.44 32.15 42.08 31.79 42.08 31.35L42.08 25.61C42.08 23.58 40.42 21.93 38.39 21.93L36.92 21.93C34.89 21.93 33.23 23.59 33.23 25.61L33.23 30.63C33.23 31.68 32.51 32.61 31.49 32.88L29.07 33.51C28.87 33.14 28.49 32.88 28.03 32.88L17.93 32.88C20.58 23.74 29.01 17.03 39 17.03C51.09 17.03 60.93 26.88 60.93 38.97C60.93 51.06 51.09 60.91 39 60.91L39 60.93ZM42.88 34.58L49.16 34.58C50.27 34.58 51.16 35.46 51.18 36.56L45.09 36.56L45.09 39L51.18 39L51.18 40.21L45.09 40.21L45.09 42.65L51.18 42.65L51.18 43.87L45.09 43.87L45.09 46.31L51.16 46.31C51.04 47.67 49.9 48.75 48.5 48.75L35.3 48.75C33.8 48.75 32.34 48.32 31.09 47.5L29.26 46.32L29.26 36.01L32.12 35.25C34.21 34.69 35.67 32.8 35.67 30.65L35.67 25.63C35.67 24.94 36.23 24.38 36.92 24.38L38.39 24.38C39.08 24.38 39.64 24.94 39.64 25.63L39.64 31.37C39.64 33.14 41.09 34.6 42.88 34.6L42.88 34.58Z" fill="#FADB9E" fill-opacity="1.000000" fill-rule="nonzero"/>
	</g>
</svg>
