<svg width="62.000000" height="62.000000" viewBox="0 0 62 62" fill="none" xmlns="http://www.w3.org/2000/svg" xmlns:xlink="http://www.w3.org/1999/xlink">
	<desc>
			Created with Pixso.
	</desc>
	<defs>
		<clipPath id="clip11_308">
			<rect id="shield-18 1" rx="0.000000" width="61.000000" height="61.000000" transform="translate(0.500000 0.500000)" fill="white" fill-opacity="0"/>
		</clipPath>
	</defs>
	<rect id="shield-18 1" rx="0.000000" width="61.000000" height="61.000000" transform="translate(0.500000 0.500000)" fill="#FFFFFF" fill-opacity="0"/>
	<g clip-path="url(#clip11_308)">
		<path id="Vector" d="M30.95 1.43L29.55 3C23.62 9.66 15.39 12.8 5.57 14L3.87 14.2L3.87 15.92C3.87 25.91 5.99 35.61 10.36 43.57C14.74 51.52 21.46 57.72 30.44 60.4L31.02 60.57L31.59 60.38C48.94 54.77 58.12 36.5 58.12 15.92L58.12 14.38L56.61 14.02C47.06 11.82 38.25 9.14 32.4 2.96L30.95 1.42L30.95 1.43ZM31.04 6.58C37.32 12.44 45.55 15.26 54.09 17.3C53.68 35.83 45.57 51.28 30.98 56.37C23.38 53.91 17.64 48.73 13.76 41.69C9.98 34.84 8.11 26.26 7.9 17.35C16.87 15.99 24.88 12.78 31.04 6.58L31.04 6.58ZM41.34 23.17L27.21 35.54L20.74 29.08L18 31.82L27.03 40.85L43.9 26.09L41.34 23.17Z" fill="#D2AC69" fill-opacity="1.000000" fill-rule="nonzero"/>
	</g>
</svg>
