<svg width="71.000000" height="71.000000" viewBox="0 0 71 71" fill="none" xmlns="http://www.w3.org/2000/svg" xmlns:xlink="http://www.w3.org/1999/xlink">
	<desc>
			Created with Pixso.
	</desc>
	<defs>
		<clipPath id="clip15_736">
			<rect id="shield-19 1" rx="0.000000" width="70.000000" height="70.000000" transform="translate(0.500000 0.500000)" fill="white" fill-opacity="0"/>
		</clipPath>
	</defs>
	<rect id="shield-19 1" rx="0.000000" width="70.000000" height="70.000000" transform="translate(0.500000 0.500000)" fill="#FFFFFF" fill-opacity="0"/>
	<g clip-path="url(#clip15_736)">
		<path id="Vector" d="M35.5 0C15.9 0 0 15.9 0 35.5C0 55.09 15.9 71 35.5 71C55.09 71 71 55.09 71 35.5C71 15.9 55.09 0 35.5 0ZM35.5 2.73C53.61 2.73 68.26 17.38 68.26 35.5C68.26 53.61 53.61 68.26 35.5 68.26C17.38 68.26 2.73 53.61 2.73 35.5C2.73 17.38 17.38 2.73 35.5 2.73ZM35.46 15.66L34.48 16.77C30.3 21.46 24.5 23.67 17.58 24.52L16.38 24.66L16.38 25.87C16.38 32.92 17.87 39.75 20.96 45.36C24.04 50.96 28.78 55.33 35.1 57.22L35.51 57.34L35.92 57.2C48.14 53.25 54.61 40.37 54.61 25.87L54.61 24.78L53.55 24.53C46.82 22.98 40.61 21.1 36.49 16.74L35.46 15.66ZM35.53 19.3C39.95 23.43 45.75 25.41 51.77 26.85C51.48 39.91 45.77 50.8 35.48 54.38C30.13 52.65 26.08 49 23.35 44.04C20.69 39.21 19.36 33.17 19.22 26.89C25.54 25.93 31.19 23.66 35.53 19.3L35.53 19.3ZM42.79 30.99L32.83 39.7L28.27 35.15L26.34 37.08L32.7 43.44L44.59 33.04L42.79 30.99Z" fill="#FCDFA5" fill-opacity="1.000000" fill-rule="nonzero"/>
	</g>
</svg>
