<svg width="93.000000" height="93.000000" viewBox="0 0 93 93" fill="none" xmlns="http://www.w3.org/2000/svg" xmlns:xlink="http://www.w3.org/1999/xlink">
	<desc>
			Created with Pixso.
	</desc>
	<defs>
		<clipPath id="clip15_747">
			<rect id="shield-20 1" rx="0.000000" width="92.000000" height="92.000000" transform="translate(0.500000 0.500000)" fill="white" fill-opacity="0"/>
		</clipPath>
	</defs>
	<rect id="shield-20 1" rx="0.000000" width="92.000000" height="92.000000" transform="translate(0.500000 0.500000)" fill="#FFFFFF" fill-opacity="0"/>
	<g clip-path="url(#clip15_747)">
		<path id="Vector" d="M46.97 83.61C46.74 83.53 46.51 83.51 46.27 83.55C46.04 83.59 45.82 83.68 45.64 83.83C45.45 83.98 45.31 84.17 45.23 84.39C45.14 84.61 45.11 84.85 45.14 85.08C45.18 85.32 45.27 85.54 45.41 85.72C45.56 85.91 45.75 86.06 45.96 86.15C46.18 86.24 46.42 86.28 46.65 86.25C46.89 86.22 47.11 86.13 47.3 85.99C47.5 85.85 47.65 85.65 47.75 85.42C47.84 85.2 47.87 84.95 47.84 84.7C47.8 84.46 47.7 84.23 47.55 84.04C47.39 83.85 47.19 83.7 46.96 83.62L46.97 83.61ZM21.26 49.83C21.09 49.87 20.93 49.95 20.78 50.06C20.64 50.17 20.52 50.3 20.43 50.46C20.34 50.61 20.28 50.78 20.25 50.96C20.23 51.13 20.24 51.32 20.28 51.49C20.28 51.5 20.28 51.51 20.28 51.51C20.38 51.86 20.6 52.16 20.91 52.34C21.22 52.52 21.59 52.57 21.94 52.48C22.28 52.37 22.57 52.15 22.75 51.84C22.92 51.53 22.97 51.16 22.88 50.82C22.79 50.48 22.57 50.18 22.27 49.99C21.96 49.81 21.6 49.75 21.25 49.83L21.26 49.83ZM24.71 59.97C24.55 60.04 24.4 60.15 24.28 60.28C24.16 60.41 24.07 60.57 24.01 60.74C23.95 60.91 23.92 61.09 23.93 61.26C23.93 61.44 23.98 61.62 24.06 61.78L24.07 61.81C24.18 62.04 24.35 62.24 24.57 62.37C24.78 62.51 25.03 62.58 25.29 62.58C25.49 62.58 25.69 62.53 25.88 62.44C26.06 62.35 26.22 62.22 26.35 62.07C26.48 61.91 26.57 61.72 26.61 61.52C26.66 61.32 26.66 61.12 26.62 60.92C26.57 60.72 26.49 60.53 26.36 60.37C26.23 60.21 26.07 60.08 25.89 59.99C25.71 59.9 25.51 59.85 25.3 59.85C25.1 59.84 24.9 59.89 24.71 59.97L24.71 59.97ZM21.26 40.51L21.26 40.47C21.25 40.29 21.2 40.12 21.12 39.96C21.04 39.8 20.93 39.66 20.79 39.54C20.66 39.42 20.5 39.33 20.33 39.28C20.16 39.22 19.98 39.2 19.8 39.21C19.62 39.22 19.45 39.27 19.29 39.35C19.13 39.43 18.98 39.54 18.87 39.68C18.75 39.82 18.66 39.97 18.6 40.14C18.55 40.31 18.52 40.49 18.54 40.67L19.9 40.59L18.54 40.68C18.56 41.02 18.71 41.35 18.96 41.59C19.21 41.82 19.55 41.96 19.9 41.96L19.98 41.96C20.15 41.95 20.33 41.9 20.49 41.82C20.65 41.75 20.8 41.64 20.92 41.5C21.04 41.37 21.13 41.21 21.19 41.04C21.25 40.87 21.27 40.69 21.26 40.51L21.26 40.51ZM30.02 69.27C29.88 69.38 29.76 69.51 29.67 69.67C29.57 69.82 29.51 69.99 29.49 70.17C29.46 70.34 29.47 70.52 29.51 70.7C29.56 70.87 29.63 71.03 29.74 71.18L29.75 71.19C29.88 71.36 30.04 71.5 30.23 71.6C30.42 71.69 30.63 71.74 30.84 71.74C31.06 71.74 31.27 71.69 31.46 71.59C31.65 71.49 31.82 71.35 31.95 71.17C32.07 71 32.15 70.79 32.19 70.58C32.22 70.37 32.2 70.15 32.14 69.94C32.07 69.74 31.95 69.55 31.8 69.4C31.65 69.25 31.46 69.14 31.25 69.07C31.05 69.01 30.83 68.99 30.62 69.02C30.4 69.06 30.2 69.14 30.03 69.27L30.02 69.27ZM54.22 14.53C54.54 14.68 54.91 14.7 55.24 14.58C55.58 14.46 55.86 14.22 56.01 13.9C56.17 13.58 56.2 13.22 56.09 12.88C55.99 12.54 55.75 12.26 55.44 12.09L55.42 12.09C55.26 12.01 55.09 11.96 54.91 11.95C54.73 11.94 54.56 11.96 54.39 12.02C54.22 12.08 54.06 12.17 53.93 12.28C53.79 12.4 53.68 12.54 53.61 12.7C53.45 13.03 53.42 13.4 53.54 13.74C53.65 14.08 53.9 14.36 54.22 14.53ZM46.04 9.67C46.19 9.73 46.35 9.76 46.5 9.76C46.72 9.76 46.93 9.71 47.12 9.61C47.31 9.52 47.47 9.38 47.6 9.21C47.73 9.04 47.81 8.85 47.85 8.64C47.89 8.43 47.88 8.21 47.82 8.01C47.76 7.8 47.65 7.62 47.51 7.46C47.36 7.31 47.18 7.19 46.99 7.11C46.79 7.04 46.57 7.01 46.36 7.04C46.15 7.06 45.95 7.13 45.77 7.25C45.55 7.39 45.38 7.58 45.27 7.81C45.16 8.04 45.12 8.3 45.15 8.55C45.18 8.81 45.28 9.04 45.44 9.24C45.6 9.44 45.81 9.59 46.05 9.68L46.04 9.67ZM38.17 14.67C38.38 14.67 38.58 14.63 38.77 14.54C38.95 14.45 39.12 14.32 39.24 14.16C39.37 14 39.46 13.81 39.51 13.61C39.55 13.41 39.55 13.2 39.5 13C39.46 12.8 39.36 12.61 39.23 12.45C39.1 12.29 38.94 12.16 38.75 12.08C38.57 11.99 38.36 11.94 38.16 11.95C37.95 11.95 37.75 12 37.57 12.09L37.55 12.09C37.28 12.23 37.06 12.46 36.93 12.73C36.8 13.01 36.77 13.33 36.85 13.62C36.92 13.92 37.09 14.19 37.33 14.37C37.57 14.56 37.87 14.67 38.17 14.66L38.17 14.67ZM19.79 20.5C20 20.5 20.2 20.45 20.38 20.36C20.57 20.27 20.73 20.15 20.86 19.99C20.98 19.83 21.07 19.65 21.12 19.45C21.17 19.25 21.17 19.05 21.13 18.85C21.06 18.52 20.87 18.23 20.6 18.03C20.33 17.83 19.99 17.74 19.66 17.78C19.32 17.81 19.01 17.97 18.79 18.22C18.56 18.47 18.43 18.79 18.43 19.13C18.43 19.31 18.47 19.49 18.53 19.65C18.6 19.82 18.7 19.97 18.83 20.1C18.95 20.22 19.11 20.32 19.27 20.39C19.44 20.46 19.61 20.5 19.79 20.5ZM29.21 18.26C29.34 18.25 29.47 18.24 29.6 18.2C29.77 18.15 29.94 18.07 30.08 17.96C30.23 17.85 30.35 17.71 30.44 17.55C30.53 17.39 30.58 17.21 30.6 17.03C30.62 16.85 30.61 16.67 30.55 16.49C30.5 16.32 30.41 16.16 30.3 16.01C30.18 15.87 30.04 15.76 29.88 15.67C29.72 15.59 29.54 15.54 29.36 15.52C29.18 15.51 28.99 15.53 28.82 15.59L28.79 15.59C28.45 15.69 28.16 15.93 27.99 16.25C27.83 16.57 27.79 16.94 27.9 17.28C27.98 17.56 28.16 17.81 28.39 17.98C28.63 18.16 28.91 18.25 29.2 18.26L29.21 18.26ZM19.79 31.22C20.06 31.23 20.33 31.15 20.55 31C20.78 30.85 20.96 30.63 21.06 30.39C21.17 30.14 21.19 29.86 21.14 29.59C21.09 29.33 20.96 29.08 20.77 28.89C20.58 28.7 20.34 28.57 20.07 28.52C19.81 28.46 19.53 28.49 19.28 28.59C19.03 28.69 18.82 28.87 18.66 29.09C18.51 29.32 18.43 29.58 18.43 29.85L18.43 29.87C18.43 30.05 18.47 30.23 18.54 30.39C18.6 30.56 18.7 30.71 18.83 30.83C18.96 30.96 19.11 31.06 19.27 31.12C19.44 31.19 19.62 31.23 19.79 31.22ZM38.94 77.29C38.67 77.07 38.33 76.97 37.98 77C37.64 77.03 37.31 77.19 37.08 77.45C36.85 77.7 36.73 78.04 36.73 78.39C36.74 78.73 36.88 79.06 37.12 79.31L38.05 78.31L37.13 79.31C37.4 79.53 37.74 79.64 38.09 79.62C38.43 79.6 38.76 79.44 38.99 79.18C39.23 78.93 39.36 78.59 39.35 78.25C39.35 77.9 39.21 77.57 38.97 77.32L38.94 77.29ZM50.55 36.32C50.55 35.96 50.4 35.62 50.15 35.36L47.58 32.79C47.33 32.54 46.98 32.4 46.62 32.4C46.26 32.4 45.91 32.54 45.66 32.79L43.1 35.36C42.84 35.61 42.7 35.96 42.7 36.32L42.7 40.21L38.68 40.21C38.32 40.21 37.98 40.35 37.72 40.61L35.16 43.17C34.91 43.43 34.76 43.77 34.76 44.13C34.76 44.49 34.91 44.84 35.16 45.1L37.72 47.66C37.98 47.91 38.32 48.06 38.69 48.06L42.7 48.06L42.7 51.94C42.7 52.31 42.84 52.65 43.1 52.91L45.66 55.47C45.92 55.73 46.26 55.87 46.62 55.87C46.99 55.87 47.33 55.73 47.59 55.47L50.15 52.91C50.4 52.65 50.55 52.31 50.55 51.94L50.55 48.06L54.31 48.06C54.67 48.06 55.01 47.91 55.27 47.66L57.83 45.09C58.09 44.84 58.23 44.49 58.23 44.13C58.23 43.77 58.09 43.42 57.83 43.17L55.27 40.61C55.01 40.35 54.67 40.21 54.31 40.21L50.55 40.21L50.55 36.32ZM53.74 42.94L54.94 44.14L53.74 45.34L49.19 45.34C48.82 45.34 48.48 45.48 48.22 45.74C47.97 45.99 47.82 46.34 47.82 46.7L47.82 51.39L46.62 52.59L45.42 51.39L45.42 46.7C45.42 46.34 45.28 45.99 45.02 45.74C44.77 45.48 44.42 45.34 44.06 45.34L39.25 45.34L38.05 44.13L39.25 42.93L44.06 42.93C44.42 42.93 44.77 42.79 45.02 42.54C45.28 42.28 45.42 41.93 45.42 41.57L45.42 36.88L46.62 35.68L47.82 36.88L47.82 41.57C47.82 41.93 47.97 42.28 48.22 42.54C48.48 42.79 48.82 42.93 49.19 42.93L53.74 42.94ZM47.22 13.71C47 13.57 46.75 13.5 46.49 13.5C46.23 13.5 45.98 13.57 45.76 13.71C43.77 14.97 41.71 16.12 39.6 17.16C34.94 19.44 30.02 21.13 24.95 22.21C24.65 22.27 24.37 22.44 24.17 22.68C23.98 22.92 23.87 23.23 23.87 23.54L23.87 37.1C23.87 53.38 31.66 68.85 44.7 78.49L45.68 79.21C45.91 79.39 46.2 79.48 46.49 79.48C46.78 79.48 47.07 79.39 47.3 79.21L48.28 78.49C61.32 68.86 69.11 53.38 69.11 37.1L69.11 23.54C69.11 23.23 69 22.93 68.81 22.69C68.61 22.44 68.33 22.28 68.03 22.21C62.96 21.13 58.05 19.44 53.4 17.16C51.28 16.13 49.21 14.97 47.22 13.71ZM66.38 37.11C66.38 52.53 59.01 67.18 46.66 76.3L46.48 76.43L46.3 76.3C33.95 67.18 26.58 52.53 26.58 37.11L26.58 24.64C31.5 23.51 36.27 21.83 40.8 19.61C42.74 18.66 44.65 17.61 46.5 16.47C48.34 17.61 50.24 18.66 52.19 19.61C56.72 21.82 61.48 23.51 66.39 24.64L66.38 37.11ZM71.04 52.49C71.16 52.52 71.27 52.53 71.39 52.53C71.69 52.53 71.98 52.43 72.22 52.25C72.46 52.06 72.63 51.8 72.7 51.51L71.39 51.15L72.71 51.5C72.8 51.15 72.75 50.77 72.57 50.46C72.39 50.15 72.09 49.92 71.74 49.83C71.39 49.74 71.02 49.79 70.7 49.97C70.39 50.15 70.16 50.45 70.07 50.8C70.07 50.8 70.07 50.82 70.07 50.82C70.03 51 70.01 51.18 70.04 51.35C70.06 51.53 70.12 51.7 70.21 51.86C70.3 52.01 70.42 52.15 70.56 52.26C70.71 52.37 70.87 52.44 71.04 52.49ZM78.72 12.64C71.58 12.3 64.59 10.51 58.17 7.38C54.3 5.48 50.67 3.11 47.37 0.32C47.13 0.11 46.82 0 46.5 0C46.17 0 45.86 0.11 45.62 0.32C42.32 3.1 38.69 5.47 34.82 7.37C28.4 10.5 21.41 12.3 14.27 12.64C13.92 12.66 13.59 12.81 13.35 13.06C13.11 13.31 12.98 13.65 12.98 14L12.98 37.11C12.97 46.86 15.25 56.47 19.64 65.18C24.02 73.89 30.39 81.45 38.22 87.26L45.63 92.73C45.88 92.91 46.19 93.01 46.5 93L46.55 93C46.84 93 47.12 92.9 47.35 92.73L54.76 87.26C62.59 81.46 68.95 73.9 73.34 65.2C77.72 56.48 80 46.86 80.01 37.1L80.01 14.01C80.01 13.66 79.88 13.32 79.64 13.07C79.4 12.81 79.07 12.66 78.72 12.64ZM77.29 37.11C77.29 55.97 68.26 73.9 53.14 85.06L46.5 89.96L39.85 85.06C24.73 73.89 15.7 55.96 15.7 37.11L15.7 15.29C22.76 14.78 29.65 12.93 36.01 9.82C39.75 7.99 43.26 5.74 46.5 3.12C49.73 5.74 53.24 7.99 56.98 9.82C63.34 12.93 70.23 14.78 77.29 15.29L77.29 37.11ZM63.39 18.19L63.42 18.19C63.76 18.29 64.13 18.25 64.45 18.08C64.76 17.91 65 17.62 65.1 17.28C65.21 16.93 65.17 16.56 65 16.24C64.83 15.93 64.54 15.69 64.2 15.58L63.79 16.89L64.19 15.59C63.84 15.48 63.47 15.52 63.15 15.69C62.83 15.85 62.59 16.14 62.48 16.49C62.38 16.84 62.41 17.21 62.58 17.53C62.75 17.85 63.04 18.09 63.39 18.19ZM72.99 41.95C73.02 41.96 73.06 41.96 73.09 41.95C73.44 41.95 73.77 41.82 74.02 41.59C74.27 41.35 74.43 41.03 74.45 40.68C74.45 40.68 74.45 40.65 74.45 40.64C74.46 40.38 74.4 40.11 74.26 39.88C74.12 39.65 73.92 39.47 73.68 39.35C73.44 39.24 73.16 39.19 72.9 39.23C72.63 39.27 72.39 39.38 72.19 39.56C71.98 39.74 71.84 39.97 71.77 40.23C71.7 40.49 71.71 40.76 71.8 41.02C71.88 41.27 72.04 41.49 72.25 41.66C72.46 41.82 72.72 41.92 72.99 41.94L72.99 41.95ZM54.06 77.27L54.02 77.31C53.76 77.56 53.61 77.9 53.6 78.26C53.59 78.62 53.73 78.97 53.97 79.23C54.22 79.49 54.56 79.64 54.91 79.66C55.27 79.67 55.62 79.54 55.89 79.3C56.15 79.06 56.31 78.72 56.32 78.36C56.34 78 56.22 77.65 55.98 77.38C55.74 77.12 55.4 76.96 55.04 76.94C54.69 76.91 54.33 77.04 54.06 77.27ZM55.07 78.41L54.96 78.29L55.07 78.42L55.07 78.41ZM62.96 69.28C62.75 69.12 62.49 69.02 62.22 69.01C61.95 69 61.68 69.06 61.45 69.2C61.22 69.34 61.03 69.55 60.91 69.79C60.8 70.03 60.76 70.31 60.8 70.57C60.83 70.84 60.95 71.09 61.13 71.29C61.31 71.49 61.55 71.63 61.81 71.7C62.07 71.77 62.35 71.76 62.6 71.67C62.86 71.58 63.08 71.41 63.24 71.2L63.25 71.18C63.36 71.04 63.44 70.88 63.48 70.7C63.53 70.53 63.53 70.35 63.51 70.17C63.48 69.99 63.42 69.82 63.32 69.67C63.23 69.51 63.11 69.38 62.96 69.28ZM68.29 59.97C67.97 59.82 67.59 59.79 67.25 59.91C66.91 60.03 66.63 60.28 66.48 60.6L66.46 60.64C66.31 60.96 66.29 61.34 66.42 61.68C66.54 62.01 66.79 62.29 67.12 62.44C67.44 62.6 67.82 62.61 68.16 62.49C68.5 62.37 68.77 62.12 68.93 61.79L67.7 61.21L68.92 61.8C69 61.64 69.05 61.46 69.06 61.28C69.07 61.1 69.05 60.92 68.99 60.75C68.93 60.58 68.84 60.43 68.72 60.29C68.6 60.16 68.45 60.05 68.29 59.97ZM73.2 28.49C72.93 28.49 72.66 28.57 72.44 28.72C72.21 28.87 72.03 29.08 71.93 29.33C71.82 29.58 71.8 29.86 71.85 30.12C71.9 30.39 72.03 30.63 72.22 30.82C72.41 31.02 72.65 31.15 72.92 31.2C73.18 31.25 73.46 31.23 73.71 31.13C73.96 31.02 74.17 30.85 74.33 30.62C74.48 30.4 74.56 30.13 74.56 29.86L74.56 29.85C74.56 29.67 74.52 29.49 74.45 29.33C74.39 29.16 74.28 29.01 74.16 28.89C74.03 28.76 73.88 28.66 73.72 28.59C73.55 28.53 73.37 28.49 73.2 28.49ZM73.2 20.5C73.54 20.51 73.87 20.39 74.13 20.16C74.39 19.94 74.55 19.62 74.59 19.28C74.62 18.94 74.53 18.6 74.32 18.32C74.12 18.05 73.82 17.86 73.48 17.8L73.47 17.8C73.29 17.76 73.09 17.76 72.91 17.8C72.72 17.84 72.54 17.92 72.39 18.03C72.23 18.14 72.1 18.29 72.01 18.45C71.91 18.62 71.85 18.8 71.84 18.99C71.82 19.18 71.84 19.37 71.9 19.56C71.96 19.74 72.05 19.91 72.18 20.05C72.31 20.19 72.47 20.3 72.64 20.38C72.82 20.46 73 20.5 73.2 20.5L73.2 20.5Z" fill="#FADB9E" fill-opacity="1.000000" fill-rule="nonzero"/>
	</g>
</svg>
