<svg width="24.000000" height="24.000000" viewBox="0 0 24 24" fill="none" xmlns="http://www.w3.org/2000/svg" xmlns:xlink="http://www.w3.org/1999/xlink">
	<desc>
			Created with Pixso.
	</desc>
	<defs>
		<clipPath id="clip16_250">
			<rect id="time-17 1" rx="0.000000" width="23.000000" height="23.000000" transform="translate(0.500000 0.500000)" fill="white" fill-opacity="0"/>
		</clipPath>
	</defs>
	<rect id="time-17 1" rx="0.000000" width="23.000000" height="23.000000" transform="translate(0.500000 0.500000)" fill="#FFFFFF" fill-opacity="0"/>
	<g clip-path="url(#clip16_250)">
		<path id="Vector" d="M12 1C9.82 1 7.69 1.64 5.88 2.85C4.07 4.06 2.66 5.78 1.83 7.79C1 9.8 0.78 12.01 1.21 14.14C1.63 16.27 2.68 18.24 4.22 19.77C5.76 21.31 7.72 22.36 9.85 22.78C11.98 23.21 14.19 22.99 16.2 22.16C18.21 21.33 19.93 19.91 21.14 18.11C22.35 16.3 23 14.17 23 12C23 9.08 21.84 6.28 19.77 4.22C17.71 2.15 14.91 1 12 1ZM16 13L12 13C11.73 13 11.48 12.89 11.29 12.7C11.1 12.51 11 12.26 11 12L11 6C11 5.73 11.1 5.48 11.29 5.29C11.48 5.1 11.73 5 12 5C12.26 5 12.51 5.1 12.7 5.29C12.89 5.48 13 5.73 13 6L13 11L16 11C16.26 11 16.51 11.1 16.7 11.29C16.89 11.48 17 11.73 17 12C17 12.26 16.89 12.51 16.7 12.7C16.51 12.89 16.26 13 16 13Z" fill="#D2AC69" fill-opacity="1.000000" fill-rule="nonzero"/>
	</g>
</svg>
