<svg width="45.000000" height="45.000000" viewBox="0 0 45 45" fill="none" xmlns="http://www.w3.org/2000/svg" xmlns:xlink="http://www.w3.org/1999/xlink">
	<desc>
			Created with Pixso.
	</desc>
	<defs>
		<clipPath id="clip16_233">
			<rect id="whatsapp-22 1" rx="0.000000" width="44.000000" height="44.000000" transform="translate(0.500000 0.500000)" fill="white" fill-opacity="0"/>
		</clipPath>
		<linearGradient x1="22.499832" y1="43.717884" x2="22.499832" y2="0.774487" id="paint_linear_16_235_0" gradientUnits="userSpaceOnUse">
			<stop stop-color="#20B038"/>
			<stop offset="1.000000" stop-color="#60D66A"/>
		</linearGradient>
	</defs>
	<rect id="whatsapp-22 1" rx="0.000000" width="44.000000" height="44.000000" transform="translate(0.500000 0.500000)" fill="#FFFFFF" fill-opacity="0"/>
	<g clip-path="url(#clip16_233)">
		<path id="Vector" d="M38.44 6.53C34.21 2.32 28.58 0 22.59 0C10.24 0 0.19 10 0.18 22.29C0.18 26.22 1.21 30.06 3.18 33.44L0 45L11.87 41.89C15.15 43.67 18.83 44.61 22.58 44.61L22.59 44.61L22.59 44.61C34.94 44.61 44.99 34.6 44.99 22.31C45 16.35 42.67 10.75 38.44 6.53ZM22.59 40.84L22.58 40.84C19.24 40.84 15.96 39.95 13.1 38.26L12.42 37.86L5.38 39.7L7.26 32.86L6.81 32.16C4.95 29.21 3.97 25.8 3.97 22.29C3.97 12.08 12.32 3.76 22.6 3.76C27.57 3.76 32.25 5.69 35.76 9.2C39.28 12.7 41.21 17.36 41.21 22.31C41.21 32.53 32.85 40.84 22.59 40.84Z" fill="#E0E0E0" fill-opacity="1.000000" fill-rule="nonzero"/>
		<path id="Vector" d="M1.02 43.71L4.06 32.69C2.19 29.46 1.2 25.8 1.2 22.05C1.21 10.32 10.8 0.77 22.58 0.77C28.3 0.77 33.67 2.99 37.71 7.01C41.75 11.03 43.97 16.38 43.96 22.06C43.96 33.8 34.37 43.34 22.59 43.34L22.58 43.34C19 43.34 15.48 42.45 12.36 40.75L1.02 43.71Z" fill="url(#paint_linear_16_235_0)" fill-opacity="1.000000" fill-rule="nonzero"/>
		<path id="Vector" d="M17.05 12.83C16.64 11.91 16.2 11.89 15.81 11.87C15.48 11.86 15.12 11.86 14.75 11.86C14.38 11.86 13.78 12 13.27 12.55C12.76 13.1 11.33 14.43 11.33 17.15C11.33 19.86 13.32 22.48 13.59 22.84C13.87 23.21 17.42 28.95 23.05 31.16C27.72 33 28.67 32.63 29.69 32.54C30.7 32.45 32.96 31.21 33.42 29.92C33.88 28.63 33.88 27.53 33.75 27.3C33.61 27.07 33.24 26.93 32.68 26.66C32.13 26.38 29.41 25.05 28.9 24.86C28.4 24.68 28.03 24.59 27.66 25.14C27.29 25.69 26.23 26.93 25.91 27.3C25.58 27.67 25.26 27.71 24.71 27.44C24.15 27.16 22.37 26.58 20.26 24.7C18.61 23.24 17.5 21.44 17.18 20.89C16.86 20.34 17.14 20.04 17.42 19.76C17.67 19.52 17.98 19.12 18.25 18.8C18.53 18.48 18.62 18.25 18.8 17.88C18.99 17.51 18.9 17.19 18.76 16.92C18.62 16.64 17.54 13.92 17.05 12.83Z" fill="#FFFFFF" fill-opacity="1.000000" fill-rule="evenodd"/>
		<path id="Vector" d="M38.25 6.46C34.07 2.3 28.51 0 22.59 0C10.38 0 0.45 9.89 0.44 22.04C0.44 25.93 1.46 29.72 3.4 33.06L0.25 44.48L12 41.42C15.23 43.17 18.87 44.1 22.58 44.1L22.59 44.1L22.59 44.1C34.79 44.1 44.73 34.21 44.74 22.06C44.74 16.17 42.44 10.63 38.25 6.46ZM22.59 40.38L22.58 40.38C19.28 40.38 16.04 39.49 13.21 37.82L12.54 37.43L5.57 39.25L7.43 32.49L6.99 31.79C5.15 28.87 4.18 25.5 4.18 22.04C4.18 11.94 12.44 3.72 22.6 3.72C27.51 3.72 32.13 5.63 35.61 9.09C39.08 12.56 41 17.16 41 22.06C40.99 32.16 32.73 40.38 22.59 40.38Z" fill="#FFFFFF" fill-opacity="1.000000" fill-rule="nonzero"/>
	</g>
</svg>
