<svg width="80.000000" height="80.000000" viewBox="0 0 80 80" fill="none" xmlns="http://www.w3.org/2000/svg" xmlns:xlink="http://www.w3.org/1999/xlink">
	<desc>
			Created with Pixso.
	</desc>
	<defs>
		<clipPath id="clip15_740">
			<rect id="work-paper-2 1" rx="0.000000" width="79.000000" height="79.000000" transform="translate(0.500000 0.500000)" fill="white" fill-opacity="0"/>
		</clipPath>
	</defs>
	<rect id="work-paper-2 1" rx="0.000000" width="79.000000" height="79.000000" transform="translate(0.500000 0.500000)" fill="#FFFFFF" fill-opacity="0"/>
	<g clip-path="url(#clip15_740)">
		<path id="Vector" d="M73.75 10L71.25 10L71.25 7.5C71.25 7.16 71.11 6.85 70.88 6.61C70.64 6.38 70.33 6.25 70 6.25L59.26 6.25L55.88 2.86C55.64 2.63 55.33 2.5 55 2.5L13.75 2.5C13.41 2.5 13.1 2.63 12.86 2.86C12.63 3.1 12.5 3.41 12.5 3.75L12.5 27.5L6.25 27.5C5.91 27.5 5.6 27.63 5.36 27.86C5.13 28.1 5 28.41 5 28.75L5 42.5C5 42.83 5.13 43.14 5.36 43.38C5.6 43.61 5.91 43.75 6.25 43.75L6.25 61.25C6.25 61.58 6.38 61.89 6.61 62.13C6.85 62.36 7.16 62.5 7.5 62.5L12.5 62.5L12.5 68.75C12.5 69.08 12.63 69.39 12.86 69.63C13.1 69.86 13.41 70 13.75 70L16.25 70L16.25 72.5C16.25 72.83 16.38 73.14 16.61 73.38C16.85 73.61 17.16 73.75 17.5 73.75L20 73.75L20 76.25C20 76.58 20.13 76.89 20.36 77.13C20.6 77.36 20.91 77.5 21.25 77.5L73.75 77.5C74.08 77.5 74.39 77.36 74.63 77.13C74.86 76.89 75 76.58 75 76.25L75 11.25C75 10.91 74.86 10.6 74.63 10.36C74.39 10.13 74.08 10 73.75 10ZM56.25 6.76L63.23 13.75L56.25 13.75L56.25 6.76ZM7.5 30L47.5 30L47.5 41.25L7.5 41.25L7.5 30ZM20 27.5L20 23.75C20 23.41 20.13 23.1 20.36 22.86C20.6 22.63 20.91 22.5 21.25 22.5L33.75 22.5C34.08 22.5 34.39 22.63 34.63 22.86C34.86 23.1 35 23.41 35 23.75L35 27.5L20 27.5ZM30 43.75L30 50L25 50L25 43.75L30 43.75ZM8.75 60L8.75 43.75L22.5 43.75L22.5 51.25C22.5 51.58 22.63 51.89 22.86 52.13C23.1 52.36 23.41 52.5 23.75 52.5L31.25 52.5C31.58 52.5 31.89 52.36 32.13 52.13C32.36 51.89 32.5 51.58 32.5 51.25L32.5 43.75L46.25 43.75L46.25 60L8.75 60ZM15 67.5L15 62.5L47.5 62.5C47.83 62.5 48.14 62.36 48.38 62.13C48.61 61.89 48.75 61.58 48.75 61.25L48.75 43.75C49.08 43.75 49.39 43.61 49.63 43.38C49.86 43.14 50 42.83 50 42.5L50 28.75C50 28.41 49.86 28.1 49.63 27.86C49.39 27.63 49.08 27.5 48.75 27.5L37.5 27.5L37.5 23.75C37.49 22.75 37.1 21.8 36.39 21.1C35.69 20.39 34.74 20 33.75 20L21.25 20C20.25 20 19.3 20.39 18.6 21.1C17.89 21.8 17.5 22.75 17.5 23.75L17.5 27.5L15 27.5L15 5L53.75 5L53.75 15C53.75 15.33 53.88 15.64 54.11 15.88C54.35 16.11 54.66 16.25 55 16.25L65 16.25L65 67.5L15 67.5ZM18.75 71.25L18.75 70L66.25 70C66.58 70 66.89 69.86 67.13 69.63C67.36 69.39 67.5 69.08 67.5 68.75L67.5 15C67.49 14.66 67.36 14.35 67.13 14.11L61.76 8.75L68.75 8.75L68.75 71.25L18.75 71.25ZM72.5 75L22.5 75L22.5 73.75L70 73.75C70.33 73.75 70.64 73.61 70.88 73.38C71.11 73.14 71.25 72.83 71.25 72.5L71.25 12.5L72.5 12.5L72.5 75Z" fill="#FADB9E" fill-opacity="1.000000" fill-rule="nonzero"/>
		<path id="Vector" d="M26.25 46.25L28.75 46.25L28.75 48.75L26.25 48.75L26.25 46.25Z" fill="#FADB9E" fill-opacity="1.000000" fill-rule="evenodd"/>
	</g>
</svg>
