<?xml version="1.0"?><svg xmlns="http://www.w3.org/2000/svg" xmlns:xlink="http://www.w3.org/1999/xlink"><symbol viewBox="0 0 24 24" id="instagram" xmlns="http://www.w3.org/2000/svg">
    <path d="M8 3a5 5 0 00-5 5v8a5 5 0 005 5h8a5 5 0 005-5V8a5 5 0 00-5-5H8zm10 2a1 1 0 110 2 1 1 0 010-2zm-6 2a5 5 0 11-.001 10.001A5 5 0 0112 7zm0 2a3 3 0 00-3 3 3 3 0 003 3 3 3 0 003-3 3 3 0 00-3-3z"/>
</symbol><symbol viewBox="0 0 48 48" id="telegram" xmlns="http://www.w3.org/2000/svg">
    <path d="M41.42 7.309s3.885-1.515 3.56 2.164c-.107 1.515-1.078 6.818-1.834 12.553l-2.59 16.99s-.216 2.489-2.159 2.922c-1.942.432-4.856-1.515-5.396-1.948-.432-.325-8.094-5.195-10.792-7.575-.756-.65-1.62-1.948.108-3.463L33.648 18.13c1.295-1.298 2.59-4.328-2.806-.649l-15.11 10.28s-1.727 1.083-4.964.109l-7.016-2.165s-2.59-1.623 1.835-3.246c10.793-5.086 24.068-10.28 35.831-15.15z"/>
</symbol><symbol viewBox="0 0 24 24" id="telegram-footer" xmlns="http://www.w3.org/2000/svg">
    <path d="M12 4a8 8 0 108 8 8 8 0 00-8-8zm3.93 5.48l-1.31 6.19c-.1.44-.36.54-.73.34l-2-1.48-1 .93a.51.51 0 01-.4.2l.14-2 3.7-3.35c.17-.14 0-.22-.24-.08l-4.54 2.85-2-.62c-.43-.13-.44-.43.09-.63l7.71-3c.38-.11.7.11.58.65z"/>
</symbol><symbol viewBox="0 0 24 24" id="vk" xmlns="http://www.w3.org/2000/svg">
    <path d="M19 3H5a2 2 0 00-2 2v14a2 2 0 002 2h14a2 2 0 002-2V5a2 2 0 00-2-2zm-1.093 12.684l-1.735.024s-.374.073-.864-.265c-.649-.446-1.261-1.606-1.738-1.455-.484.154-.469 1.198-.469 1.198s.004.184-.107.304c-.12.129-.355.116-.355.116h-.777s-1.714.142-3.225-1.433c-1.646-1.717-3.1-5.106-3.1-5.106s-.085-.214.006-.323c.103-.121.381-.124.381-.124l1.857-.009s.175.031.301.123c.103.076.162.219.162.219s.3.761.698 1.45c.776 1.343 1.137 1.637 1.4 1.493.384-.21.269-1.898.269-1.898s.007-.613-.193-.886c-.156-.213-.449-.276-.578-.292-.105-.014.066-.257.289-.367.334-.163.925-.173 1.622-.166.543.006.7.039.912.091.641.155.423.753.423 2.188 0 .46-.083 1.106.248 1.319.143.092.491.014 1.36-1.466.413-.702.722-1.527.722-1.527s.068-.147.173-.21c.108-.065.253-.045.253-.045l1.955-.012s.587-.071.683.196c.1.279-.219.93-1.018 1.995-1.311 1.75-1.457 1.587-.368 2.599 1.04.967 1.255 1.437 1.291 1.496.43.716-.478.773-.478.773z"/>
</symbol><symbol viewBox="0 0 256 256" id="whatsapp" xmlns="http://www.w3.org/2000/svg">
    <path d="M3.025 126.721c-.008 22.087 5.76 43.648 16.73 62.652L1.972 254.307l66.457-17.425c18.31 9.984 38.924 15.247 59.903 15.255h.054c69.087 0 125.329-56.225 125.36-125.317.01-33.487-13.02-64.973-36.685-88.661-23.671-23.686-55.143-36.738-88.675-36.752-69.1 0-125.335 56.214-125.363 125.312m39.574 59.38l-2.482-3.94c-10.43-16.584-15.935-35.75-15.93-55.43C24.21 69.3 70.948 22.573 128.421 22.573c27.833.01 53.989 10.86 73.665 30.547 19.672 19.687 30.5 45.86 30.49 73.69-.024 57.433-46.766 104.16-104.194 104.16h-.042c-18.7-.01-37.039-5.03-53.03-14.522l-3.808-2.256-39.438 10.34L42.596 186.1zm85.789 66.038c-.003 0-.003 0 0 0"/>
    <path d="M97.053 74.326c-2.346-5.215-4.816-5.322-7.047-5.412-1.827-.079-3.917-.073-6.002-.073-2.09 0-5.483.784-8.352 3.917-2.871 3.136-10.964 10.712-10.964 26.122 0 15.413 11.226 30.303 12.788 32.396 1.568 2.088 21.67 34.724 53.505 47.279 26.46 10.433 31.846 8.36 37.587 7.837 5.744-.523 18.532-7.576 21.142-14.89 2.61-7.315 2.61-13.584 1.83-14.89-.784-1.307-2.872-2.091-6.005-3.656-3.133-1.568-18.532-9.144-21.404-10.19-2.872-1.045-4.96-1.565-7.05 1.571-2.088 3.133-8.088 10.186-9.914 12.274-1.827 2.094-3.656 2.355-6.786.787-3.133-1.57-13.221-4.875-25.19-15.545-9.311-8.303-15.597-18.554-17.424-21.69-1.826-3.133-.194-4.828 1.374-6.39 1.408-1.402 3.133-3.656 4.701-5.485 1.563-1.83 2.085-3.136 3.128-5.224 1.045-2.09.523-3.92-.261-5.488-.784-1.568-6.87-17.057-9.656-23.25"/>
</symbol><symbol viewBox="0 0 32 32" id="whatsapp-footer" xmlns="http://www.w3.org/2000/svg">
    <path fill-rule="evenodd" d="M24.504 7.504A11.875 11.875 0 0016.05 4C9.465 4 4.1 9.36 4.1 15.945a11.882 11.882 0 001.594 5.973L4 28.109l6.336-1.664a11.958 11.958 0 005.71 1.457h.005c6.586 0 11.945-5.359 11.949-11.949 0-3.191-1.242-6.191-3.496-8.45zM16.05 25.883h-.004a9.93 9.93 0 01-5.055-1.383l-.363-.215-3.762.985 1.004-3.665-.234-.375a9.904 9.904 0 01-1.52-5.285c0-5.472 4.457-9.925 9.938-9.925a9.863 9.863 0 017.02 2.91 9.875 9.875 0 012.905 7.023c0 5.477-4.457 9.93-9.93 9.93zm5.445-7.438c-.297-.148-1.766-.87-2.039-.968-.273-.102-.473-.149-.672.148-.2.3-.77.973-.945 1.172-.172.195-.348.223-.645.074-.3-.148-1.261-.465-2.402-1.484-.887-.79-1.488-1.77-1.66-2.067-.176-.3-.02-.46.129-.61.136-.132.3-.347.449-.523.148-.171.2-.296.3-.496.098-.199.048-.375-.027-.523-.074-.148-.671-1.621-.921-2.219-.243-.582-.489-.5-.672-.511-.172-.008-.371-.008-.57-.008-.2 0-.524.074-.798.375-.273.297-1.043 1.02-1.043 2.488 0 1.469 1.07 2.89 1.22 3.09.148.195 2.105 3.21 5.1 4.504a16.85 16.85 0 001.7.629c.715.226 1.367.195 1.883.12.574-.085 1.765-.722 2.015-1.421.247-.695.247-1.293.172-1.418-.074-.125-.273-.2-.574-.352z"/>
</symbol><symbol viewBox="0 0 24 24" id="youtube" xmlns="http://www.w3.org/2000/svg">
    <path d="M21.582 6.186a2.506 2.506 0 00-1.768-1.768C18.254 4 12 4 12 4s-6.254 0-7.814.418c-.86.23-1.538.908-1.768 1.768C2 7.746 2 12 2 12s0 4.254.418 5.814c.23.86.908 1.538 1.768 1.768C5.746 20 12 20 12 20s6.254 0 7.814-.418a2.504 2.504 0 001.768-1.768C22 16.254 22 12 22 12s0-4.254-.418-5.814zM10 15.464V8.536L16 12l-6 3.464z"/>
</symbol></svg>