<svg width="22.000000" height="22.000000" viewBox="0 0 22 22" fill="none" xmlns="http://www.w3.org/2000/svg" xmlns:xlink="http://www.w3.org/1999/xlink">
	<desc>
			Created with Pixso.
	</desc>
	<defs/>
	<circle cx="11.000000" cy="11.000000" r="11.000000" fill="#FFFDFB" fill-opacity="1.000000"/>
	<path d="M22 11C22 4.92 17.07 0 11 0C4.92 0 0 4.92 0 11C0 17.07 4.92 22 11 22C11.06 22 11.12 21.99 11.19 21.99L11.19 13.43L8.83 13.43L8.83 10.68L11.19 10.68L11.19 8.65C11.19 6.3 12.62 5.02 14.72 5.02C15.72 5.02 16.59 5.09 16.84 5.13L16.84 7.58L15.39 7.58C14.25 7.58 14.03 8.13 14.03 8.92L14.03 10.68L16.76 10.68L16.4 13.43L14.03 13.43L14.03 21.57C18.63 20.25 22 16.02 22 11Z" fill="#1A212F" fill-opacity="1.000000" fill-rule="nonzero"/>
</svg>
