<svg width="31.000000" height="55.000000" viewBox="0 0 31 55" fill="none" xmlns="http://www.w3.org/2000/svg" xmlns:xlink="http://www.w3.org/1999/xlink">
	<desc>
			Created with Pixso.
	</desc>
	<defs/>
	<path id="Vector" d="M30.18 12.63C30.63 12.63 31 13 31 13.45C31 13.91 30.63 14.27 30.18 14.27L22.85 14.27C22.39 14.27 22.03 13.91 22.03 13.45C22.03 13 22.39 12.63 22.85 12.63L30.18 12.63ZM26.42 16.33L22.85 16.33C22.39 16.33 22.03 16.7 22.03 17.15C22.03 17.6 22.39 17.97 22.85 17.97L26.42 17.97C26.87 17.97 27.23 17.6 27.23 17.15C27.23 16.7 26.87 16.33 26.42 16.33ZM22.85 21.67L30.18 21.67C30.63 21.67 31 21.3 31 20.85C31 20.4 30.63 20.03 30.18 20.03L22.85 20.03C22.39 20.03 22.03 20.4 22.03 20.85C22.03 21.3 22.39 21.67 22.85 21.67ZM26.42 23.73L22.85 23.73C22.39 23.73 22.03 24.1 22.03 24.55C22.03 25 22.39 25.37 22.85 25.37L26.42 25.37C26.87 25.37 27.23 25 27.23 24.55C27.23 24.1 26.87 23.73 26.42 23.73ZM22.85 29.07L30.18 29.07C30.63 29.07 31 28.7 31 28.25C31 27.8 30.63 27.43 30.18 27.43L22.85 27.43C22.39 27.43 22.03 27.8 22.03 28.25C22.03 28.7 22.39 29.07 22.85 29.07ZM23.43 43.13C23.43 49.67 18.17 55 11.71 55C5.25 55 0 49.67 0 43.13C0 38.89 2.19 35.03 5.78 32.9L5.78 6C5.78 2.69 8.44 0 11.71 0C14.98 0 17.64 2.69 17.64 6L17.64 32.9C21.23 35.03 23.43 38.89 23.43 43.13ZM21.8 43.13C21.8 39.53 19.83 35.57 16.65 33.94L16.02 33.61L16.02 6C16.02 3.98 13.7 1.64 11.71 1.64C9.72 1.64 7.41 3.98 7.41 6L7.41 33.61L6.77 33.94C3.59 35.57 1.62 39.53 1.62 43.13C1.62 48.38 6.53 53.36 11.71 53.36C16.89 53.36 21.8 48.38 21.8 43.13ZM19.18 43.13C19.18 47.3 15.83 50.7 11.71 50.7C7.59 50.7 4.24 47.3 4.24 43.13C4.24 39.71 7.21 36.7 10.48 35.82L10.91 35.71L10.91 22.06C10.91 21.61 11.27 21.25 11.71 21.25C12.16 21.25 12.52 21.61 12.52 22.06L12.52 35.71L12.95 35.82C16.21 36.7 19.18 39.71 19.18 43.13ZM12.74 38.07C12.56 37.27 11.8 37.46 10.98 37.65C8.15 38.3 6.17 40.81 6.17 43.75C6.17 44.58 6.17 45.48 7.23 45.48C7.79 45.48 7.92 44.55 7.92 43.71C7.92 42.22 8.83 39.98 10.98 39.48C11.78 39.3 12.92 38.88 12.74 38.07Z" fill="#FFFDFB" fill-opacity="1.000000" fill-rule="nonzero"/>
</svg>
