<svg width="41.000000" height="43.000000" viewBox="0 0 41 43" fill="none" xmlns="http://www.w3.org/2000/svg" xmlns:xlink="http://www.w3.org/1999/xlink">
	<desc>
			Created with Pixso.
	</desc>
	<defs/>
	<path id="Vector" d="M22.5 3.73C22.5 5.79 21.09 7.47 19.37 7.47C17.65 7.47 16.25 5.79 16.25 3.73C16.25 1.67 17.65 0 19.37 0C21.09 0 22.5 1.67 22.5 3.73ZM30.34 3.73C30.34 5.79 28.94 7.47 27.21 7.47C25.49 7.47 24.09 5.79 24.09 3.73C24.09 1.67 25.49 0 27.21 0C28.94 0 30.34 1.67 30.34 3.73ZM15.45 9.03C15.45 10.67 14.36 11.95 12.97 11.95C11.58 11.95 10.5 10.67 10.5 9.03C10.5 7.39 11.58 6.11 12.97 6.11C14.36 6.11 15.45 7.39 15.45 9.03ZM35.07 9.03C35.07 10.67 33.98 11.95 32.59 11.95C31.2 11.95 30.11 10.67 30.11 9.03C30.11 7.39 31.2 6.11 32.59 6.11C33.98 6.11 35.07 7.39 35.07 9.03ZM14.7 15.61C14.7 14.97 14.82 14.36 15.07 13.77C15.58 12.56 16.57 11.32 18.5 9.48C20.61 7.46 24.02 7.2 26.45 8.86C26.46 8.88 26.48 8.92 26.51 8.98C26.58 9.14 26.71 9.41 26.71 9.6C26.71 9.64 26.71 9.67 26.7 9.7C26.68 9.73 26.66 9.75 26.64 9.78C26.5 9.9 26.19 9.86 25.95 9.83C25.79 9.81 25.66 9.79 25.66 9.84C25.66 9.85 25.68 9.87 25.7 9.9C23.8 8.57 21.12 8.77 19.46 10.36C17.69 12.05 16.75 13.21 16.31 14.23C16.13 14.67 16.04 15.13 16.04 15.61L16.04 15.63C16.05 17.61 17.78 19.28 19.91 19.34C20.84 19.37 21.76 19.09 22.49 18.55C22.74 18.37 23.08 18.37 23.32 18.55C24.06 19.09 24.98 19.37 25.91 19.34C28.04 19.28 29.74 17.67 29.78 15.68C29.78 15.66 29.78 15.63 29.78 15.61C29.78 15.03 29.65 14.48 29.38 13.97C29.1 13.43 26.59 10.84 25.7 9.9C26 10.11 26.42 10.06 26.64 9.78C26.67 9.76 26.69 9.73 26.7 9.7C26.75 9.61 26.78 9.5 26.78 9.4C26.78 9.3 26.75 9.19 26.69 9.09C27.79 10.25 30.26 12.81 30.58 13.42C30.94 14.11 31.12 14.84 31.12 15.6C31.12 15.64 31.12 15.67 31.12 15.7C31.1 16.98 30.55 18.19 29.58 19.11C28.61 20.03 27.32 20.55 25.95 20.59C25.9 20.59 25.84 20.6 25.79 20.6C24.77 20.6 23.77 20.32 22.91 19.81C22.01 20.35 20.94 20.62 19.87 20.59C18.48 20.55 17.19 20.02 16.21 19.08C15.24 18.15 14.7 16.93 14.7 15.63C14.7 15.62 14.7 15.62 14.7 15.61ZM26.45 8.86C26.45 8.85 26.47 8.86 26.51 8.9C26.49 8.89 26.47 8.88 26.45 8.86C26.45 8.86 26.45 8.86 26.45 8.86ZM26.69 9.09C26.62 9.02 26.56 8.96 26.51 8.9C26.58 8.96 26.64 9.02 26.69 9.09ZM37.4 18.95C38.36 18.95 39.26 19.3 39.94 19.93C40.64 20.59 41 21.45 41 22.31C41 23.17 40.64 24.03 39.94 24.69L31.42 32.66C31.29 32.78 31.12 32.84 30.95 32.84L23.5 32.84C23.49 32.84 23.49 32.84 23.48 32.84L20.71 32.84L18.71 34.68L19.32 35.25C19.45 35.37 19.52 35.53 19.52 35.69C19.52 35.86 19.45 36.02 19.32 36.14L12.18 42.81C12.06 42.93 11.88 43 11.71 43L11.71 43L0.66 42.97C0.29 42.97 0 42.69 0 42.34L0 42.34L0.01 37.19C0.01 37.04 0.07 36.89 0.18 36.77L6.12 30.56C6.14 30.53 6.16 30.51 6.18 30.49L9.73 27.17C9.99 26.93 10.42 26.93 10.68 27.17L11.22 27.68C11.31 25.08 13.39 22.95 16.07 22.58C16.16 22.54 16.27 22.52 16.37 22.52L22.59 22.52C22.59 22.52 22.6 22.52 22.6 22.52L28.25 22.52C29.31 22.52 30.26 22.94 30.91 23.62L34.86 19.93C35.54 19.3 36.44 18.95 37.4 18.95ZM22.98 31.59C22.98 31.59 22.99 31.59 22.99 31.59L30.67 31.59L39 23.8C39.44 23.39 39.66 22.85 39.66 22.31C39.66 21.77 39.44 21.23 39 20.82C38.12 20 36.68 20 35.8 20.82L31.65 24.7C31.64 24.71 31.64 24.72 31.63 24.72C31.77 25.08 31.85 25.47 31.85 25.88C31.85 27.73 30.23 29.24 28.25 29.24L22.6 29.24C22.23 29.24 21.93 28.96 21.93 28.62C21.93 28.27 22.23 27.99 22.6 27.99L28.25 27.99C29.5 27.99 30.51 27.04 30.51 25.88C30.51 24.72 29.5 23.77 28.25 23.77L22.93 23.77C22.92 23.77 22.92 23.77 22.91 23.77L17.02 23.77C16.98 23.78 16.94 23.78 16.9 23.78C14.51 23.78 12.56 25.6 12.56 27.84C12.56 28.2 12.61 28.56 12.7 28.9L17.85 33.71L19.96 31.77C20.09 31.65 20.25 31.59 20.43 31.59L22.98 31.59ZM7.64 30.89L15.34 38.09L17.9 35.69L10.2 28.5L7.64 30.89ZM1.34 41.71L11.43 41.74L14.35 39.01L6.68 31.85L1.34 37.43L1.34 41.71Z" fill="#FFFDFB" fill-opacity="1.000000" fill-rule="evenodd"/>
</svg>
