<svg width="47.000000" height="39.000000" viewBox="0 0 47 39" fill="none" xmlns="http://www.w3.org/2000/svg" xmlns:xlink="http://www.w3.org/1999/xlink">
	<desc>
			Created with Pixso.
	</desc>
	<defs/>
	<path id="Vector" d="M45.36 4.59C45.78 4.46 46.24 4.52 46.57 4.79C46.95 5.09 47.09 5.56 46.93 5.99C46.54 7.1 45.9 8.89 45.67 9.51C45.77 9.81 45.83 10.14 45.85 10.47C45.92 11.66 45.66 12.68 45.08 13.44C44.95 14.12 44.42 16.92 44.16 19.12C43.98 20.56 43.46 21.97 42.64 23.19C41.61 24.75 40.54 26.6 40 27.56C39.85 27.83 39.76 28.11 39.72 28.4L38.85 35.44C39.73 35.7 40.43 36.37 40.66 37.23L40.9 38.13C40.98 38.41 40.86 38.7 40.6 38.87C40.47 38.96 40.31 38.99 40.15 38.99L36.59 38.99C36.3 38.99 36.04 38.84 35.92 38.6L30.68 28.62C30.52 28.32 30.42 27.99 30.39 27.66C27.69 27.08 23.08 28.31 21.99 28.63L18.4 33.51C18.12 33.89 18.11 34.39 18.38 34.78L18.92 35.57L20.24 35.75C21.6 35.95 22.57 37.05 22.5 38.33C22.48 38.69 22.14 38.99 21.75 38.99L17.14 38.99C16.94 38.99 16.75 38.92 16.61 38.79L13.42 35.84C12.89 35.34 12.6 34.66 12.62 33.95C12.64 33.44 12.67 32.84 12.71 32.18C12.71 32.18 12.71 32.18 12.71 32.17C12.71 32.14 12.71 32.1 12.71 32.06L8.92 33.46C8.51 33.61 8.27 33.99 8.32 34.39L8.51 35.82C9.59 36.13 10.45 36.93 10.76 37.97L10.8 38.11C10.88 38.39 10.77 38.69 10.51 38.87C10.38 38.96 10.22 39 10.06 39L6.08 39C5.71 39 5.39 38.74 5.34 38.39L4.37 31.71C4.24 30.76 4.76 29.82 5.69 29.38C7.02 28.75 7.97 27.59 8.17 26.22L8.7 22.72C8.75 22.37 8.78 22.02 8.79 21.66L8.81 20.94C8.81 20.8 8.79 20.66 8.75 20.52C8.27 18.95 7.15 17.64 5.61 16.82C4.02 15.97 2.74 14.97 1.8 13.84C0.49 12.28 -0.11 10.52 0.01 8.63C0.14 6.75 0.69 3.21 3.01 0.65C3.71 -0.12 4.92 -0.23 5.77 0.4C6.21 0.73 6.48 1.21 6.51 1.73C6.54 2.25 6.34 2.76 5.95 3.13C5.03 3.99 3.92 5.59 3.87 8.3C3.8 11.3 7.27 13.26 9.34 14.16C10.71 14.75 11.88 15.69 12.71 16.85C13.67 16.48 15.92 15.87 21.6 14.95C25.99 14.23 30.74 13.61 33.17 13.29C33.84 13.21 34.42 12.81 34.71 12.25L35.15 11.38C35.12 11.09 35.11 10.79 35.13 10.47C35.15 10.14 35.21 9.82 35.31 9.51C35.09 8.89 34.45 7.13 34.06 6.02C33.93 5.64 34 5.23 34.27 4.92C34.59 4.57 35.1 4.43 35.57 4.57C37.14 5.03 38.33 5.97 38.9 6.5C39.93 6.2 41.05 6.2 42.09 6.5C42.65 5.98 43.81 5.05 45.36 4.59ZM38.67 26.92C39.22 25.94 40.31 24.06 41.36 22.46C42.06 21.41 42.51 20.2 42.66 18.96C42.84 17.55 43.11 15.89 43.33 14.69C42.76 14.89 42.12 14.98 41.41 14.97L41.4 14.97C41.4 14.97 39.48 14.97 39.43 14.97C38.12 14.97 37.03 14.59 36.27 13.86C36.09 13.68 35.93 13.49 35.79 13.28C35.24 14.04 34.37 14.55 33.38 14.67C19.51 16.45 13.68 17.75 12.9 18.33C12.73 18.46 12.51 18.51 12.29 18.47C12.08 18.43 11.9 18.31 11.79 18.14C11.78 18.13 11.74 18.07 11.74 18.07C11.08 16.92 10 15.98 8.71 15.42C6.31 14.37 2.28 12.06 2.36 8.28L1.51 8.71C1.38 10.61 2.12 13.34 6.36 15.61C8.24 16.61 9.6 18.22 10.19 20.14C10.19 20.14 10.32 20.58 10.32 20.65L10.23 24.66C10.22 25.01 10.36 25.35 10.61 25.62C12.02 27.14 14.37 30.03 14.2 32.26C14.17 32.91 14.14 33.5 14.12 34C14.11 34.32 14.24 34.63 14.49 34.85L17.45 37.6L20.81 37.6C20.64 37.36 20.35 37.18 20.01 37.13L18.36 36.9C18.14 36.87 17.95 36.75 17.84 36.58L17.11 35.52C16.52 34.66 16.54 33.56 17.16 32.72L20.9 27.64C21.46 26.87 21.43 25.87 20.82 25.13L19.72 23.82C19.47 23.51 19.53 23.07 19.85 22.84C20.18 22.6 20.65 22.66 20.91 22.96L22 24.28C22.66 25.06 22.91 26.04 22.76 26.97C24.67 26.5 28.04 25.83 30.49 26.26L31.14 20.94C31.18 20.56 31.55 20.28 31.97 20.32C32.38 20.37 32.67 20.71 32.63 21.09L31.88 27.22C31.85 27.49 31.9 27.76 32.03 28.01L37.06 37.6L39.21 37.6L39.2 37.57C39.07 37.07 38.58 36.72 38.02 36.72C37.67 36.72 37.36 36.48 37.29 36.16L35.44 27.68C35.27 26.9 35.47 26.09 35.97 25.45L38.04 22.84C38.96 21.67 39.38 20.24 39.22 18.81C39.18 18.43 39.48 18.08 39.89 18.04C40.3 18 40.67 18.28 40.72 18.66C40.91 20.45 40.39 22.22 39.25 23.66L37.18 26.27C36.93 26.6 36.83 27.01 36.91 27.4L37.82 31.57L38.23 28.25C38.29 27.78 38.44 27.33 38.67 26.92ZM44.18 9.75C44.11 9.59 44.11 9.42 44.18 9.27L44.17 9.24C44.13 8.38 44.11 8.12 42.87 7.75C42.66 7.99 42.31 8.07 42 7.95C41.04 7.57 39.94 7.57 38.98 7.95C38.68 8.07 38.32 7.99 38.11 7.75C37.25 8.12 37.25 8.12 36.81 9.27C36.87 9.42 36.87 9.59 36.81 9.75C36.71 10 36.65 10.27 36.63 10.55C36.57 11.57 36.82 12.38 37.35 12.89C37.84 13.36 38.59 13.59 39.52 13.58C39.56 13.57 41.24 13.58 41.4 13.58L41.42 13.58L41.42 13.58C41.42 13.58 41.43 13.58 41.44 13.58C42.39 13.6 43.15 13.36 43.64 12.89C44.17 12.38 44.42 11.57 44.35 10.55C44.34 10.27 44.28 10 44.18 9.75ZM6.83 34.56C6.69 33.53 7.32 32.55 8.36 32.17L12.39 30.68C11.92 29.55 10.96 28.16 9.61 26.68C9.23 28.37 8.04 29.82 6.37 30.62C6.01 30.79 5.81 31.16 5.86 31.53L6.74 37.6L8.85 37.6C8.56 37.32 8.17 37.14 7.74 37.09C7.39 37.05 7.12 36.8 7.08 36.48L6.83 34.56Z" fill="#FFFDFB" fill-opacity="1.000000" fill-rule="evenodd"/>
</svg>
