<svg width="47.000000" height="37.000000" viewBox="0 0 47 37" fill="none" xmlns="http://www.w3.org/2000/svg" xmlns:xlink="http://www.w3.org/1999/xlink">
	<desc>
			Created with Pixso.
	</desc>
	<defs/>
	<path d="M45.34 12.98C46.74 13.46 46.98 14.21 46.99 14.62C47.01 15.03 46.84 15.8 45.5 16.39L43.15 17.43C43.74 17.76 44.02 18.46 43.77 19.1L41.76 24.32C41.63 24.67 41.36 24.95 41 25.11C40.81 25.19 40.6 25.24 40.39 25.24C40.22 25.24 40.05 25.21 39.88 25.15L38.43 24.65C37.76 25.69 36.56 26.31 35.3 26.31C34.88 26.31 34.46 26.24 34.05 26.1L21.41 21.75C20.71 22.87 19.54 23.58 18.24 23.75L15.99 29.62C15.25 31.54 13.31 32.82 11.15 32.82L4.4 32.82L4.4 34.91C4.4 36.06 3.41 37 2.2 37L0.73 37C0.32 37 0 36.68 0 36.3L0 25.18C0 24.79 0.32 24.48 0.73 24.48L2.2 24.48C3.41 24.48 4.4 25.42 4.4 26.57L4.4 28.65L11.15 28.65C11.46 28.65 11.74 28.47 11.85 28.19L14.15 22.2C13.41 21.3 13.06 20.14 13.27 18.95L2.45 15.23C0.55 14.57 -0.44 12.58 0.26 10.77L2.52 4.89L3.52 2.28C4.21 0.48 6.33 -0.45 8.23 0.2L45.34 12.98ZM5.4 9.59L33.55 19.27C34.29 19.53 35.2 19.65 36.13 19.65C37.14 19.65 38.18 19.5 39.04 19.21L37.37 23.55C36.96 24.63 35.69 25.19 34.55 24.8L2.95 13.92C1.81 13.53 1.22 12.33 1.64 11.25L2.89 7.98C3.31 8.59 3.94 9.08 4.71 9.35L5.4 9.59L5.4 9.59L5.4 9.59ZM40.38 23.85L42.39 18.62L41.3 18.24L40.91 18.42L39 23.37L40.38 23.85ZM17.67 22.4C17.69 22.4 17.7 22.4 17.72 22.4C18.61 22.37 19.45 21.96 19.99 21.26L14.69 19.44C14.63 20.22 14.92 20.97 15.47 21.52C15.5 21.54 15.53 21.57 15.56 21.6C15.85 21.87 16.21 22.09 16.62 22.23C16.96 22.35 17.32 22.4 17.67 22.4ZM11.15 31.43C12.69 31.43 14.08 30.51 14.61 29.14L16.7 23.7C16.51 23.66 16.31 23.6 16.11 23.54C15.84 23.44 15.58 23.32 15.34 23.18L13.23 28.67C12.91 29.49 12.08 30.04 11.15 30.04L4.4 30.04L4.4 31.43L11.15 31.43ZM2.2 35.6C2.6 35.6 2.93 35.29 2.93 34.91L2.93 26.57C2.93 26.18 2.6 25.87 2.2 25.87L1.46 25.87L1.46 35.6L2.2 35.6Z" fill="#FFFDFB" fill-opacity="1.000000" fill-rule="evenodd"/>
</svg>
