<svg width="53.000000" height="35.000000" viewBox="0 0 53 35" fill="none" xmlns="http://www.w3.org/2000/svg" xmlns:xlink="http://www.w3.org/1999/xlink">
	<desc>
			Created with Pixso.
	</desc>
	<defs/>
	<path id="Vector 24" d="M28.15 18.61C31.43 18.61 34.11 22.05 34.11 22.92C34.11 23.78 31.43 26.64 28.15 26.64C24.88 26.64 22.5 22.92 22.5 22.92C22.5 22.92 24.88 18.61 28.15 18.61ZM18.26 20.19L18.23 20.19C17.83 19.8 17.81 19.18 18.2 18.78C18.59 18.38 19.21 18.36 19.62 18.75L19.62 18.78L18.26 20.19ZM19.62 27.05L19.62 27.08C19.21 27.47 18.59 27.46 18.2 27.05C17.81 26.65 17.83 26.03 18.23 25.64L18.26 25.64L19.62 27.05Z" fill="#FFFDFB" fill-opacity="1.000000" fill-rule="nonzero"/>
	<path id="Vector 24" d="M18.92 19.47L22.5 22.92C22.5 22.92 24.88 26.64 28.15 26.64C31.43 26.64 34.11 23.78 34.11 22.92C34.11 22.05 31.43 18.61 28.15 18.61C24.88 18.61 22.5 22.92 22.5 22.92M22.5 22.92L18.92 26.36" stroke="#FFFDFB" stroke-opacity="1.000000" stroke-width="2.000000" stroke-linejoin="round" stroke-linecap="round"/>
	<path id="Vector" d="M49.65 10.88L52.98 33.29C53.04 33.72 52.91 34.15 52.62 34.48C52.32 34.81 51.89 35 51.44 35L1.55 35C1.1 35 0.67 34.81 0.37 34.48C0.08 34.15 -0.05 33.72 0.01 33.29L3.34 10.88C3.45 10.15 4.1 9.6 4.87 9.6L8.95 9.6C9.66 6.51 12.48 5.59 12.8 5.49C14.33 2.54 17.47 2.4 17.81 2.39C19.67 0.45 22.18 0.45 23.52 0.78C25.87 -0.57 28.28 0.09 29.47 0.78C30.81 0.45 33.32 0.45 35.18 2.39C35.52 2.4 38.66 2.54 40.19 5.49C40.5 5.59 43.32 6.5 44.04 9.6L48.12 9.6C48.89 9.6 49.54 10.15 49.65 10.88ZM5.03 10.87L1.55 33.73L51.44 33.73L47.96 10.87L5.03 10.87Z" fill="#FFFDFB" fill-opacity="1.000000" fill-rule="evenodd"/>
	<path id="Vector" d="" fill="#FFFDFB" fill-opacity="1.000000" fill-rule="evenodd"/>
</svg>
