<svg width="51.000000" height="31.000000" viewBox="0 0 51 31" fill="none" xmlns="http://www.w3.org/2000/svg" xmlns:xlink="http://www.w3.org/1999/xlink">
	<desc>
			Created with Pixso.
	</desc>
	<defs/>
	<path id="Vector" d="M37.13 11.87C46.37 12.03 50.61 17.32 50.83 17.55C50.94 17.66 51 17.89 51 18.05L51 25.2C51 25.65 50.61 26.04 50.16 26.04L45.26 26.04C44.87 28.86 42.48 31 39.58 31C36.68 31 34.29 28.86 33.9 26.04L17.64 26.04C17.25 28.86 14.85 31 11.96 31C9.06 31 6.67 28.86 6.28 26.04L5.11 26.04C3.66 26.04 2.49 25.48 1.6 24.41C-1.06 21.08 0.35 13.53 0.53 12.57C0.53 12.53 0.54 12.5 0.54 12.49C0.65 12.09 0.99 11.81 1.38 11.81L5.61 11.81C10.9 4.94 15.98 5.1 16.49 5.11C16.51 5.11 16.52 5.11 16.52 5.11L17.25 5.11L19.48 0.45C19.59 0.16 19.87 0 20.2 0L23.99 0C24.27 0 24.54 0.16 24.71 0.45L27.16 5.17L27.33 5.17C32.84 5.17 36.24 10.29 37.13 11.87ZM21.43 6.8L16.47 6.8L16.46 6.8C16.21 6.8 12.21 6.73 7.78 11.87L21.43 11.87L21.43 6.8ZM35.12 11.87C33.9 10.07 31.23 6.8 27.33 6.8L23.04 6.8L23.04 11.87L35.12 11.87ZM45.26 24.41L49.32 24.41L49.32 18.39C48.43 17.44 44.37 13.55 36.63 13.55L2.05 13.55C1.6 16.09 1.16 21.21 2.88 23.4C3.44 24.07 4.16 24.41 5.11 24.41L6.28 24.41C6.67 21.6 9.06 19.46 11.96 19.46C14.85 19.46 17.25 21.6 17.64 24.41L33.9 24.41C34.29 21.6 36.68 19.46 39.58 19.46C42.48 19.46 44.87 21.6 45.26 24.41Z" fill="#FFFDFB" fill-opacity="1.000000" fill-rule="evenodd"/>
</svg>
