<svg width="22.000000" height="22.000000" viewBox="0 0 22 22" fill="none" xmlns="http://www.w3.org/2000/svg" xmlns:xlink="http://www.w3.org/1999/xlink">
	<desc>
			Created with Pixso.
	</desc>
	<defs/>
	<circle cx="11.000000" cy="11.000000" r="11.000000" fill="#FFFDFB" fill-opacity="1.000000"/>
	<path d="M0 11C0 4.92 4.92 0 11 0C17.07 0 22 4.92 22 11C22 17.07 17.07 22 11 22C4.92 22 0 17.07 0 11ZM16.98 15.13C17.14 14.73 17.24 14.27 17.27 13.6C17.3 12.93 17.31 12.71 17.31 11C17.31 9.28 17.3 9.06 17.27 8.39C17.24 7.72 17.14 7.26 16.98 6.86C16.82 6.44 16.57 6.05 16.25 5.74C15.94 5.42 15.55 5.17 15.13 5.01C14.73 4.85 14.27 4.75 13.6 4.72C12.93 4.69 12.71 4.68 11 4.68C9.28 4.68 9.06 4.69 8.39 4.72C7.72 4.75 7.26 4.85 6.86 5.01C6.44 5.17 6.05 5.42 5.74 5.74C5.42 6.05 5.17 6.44 5.01 6.86C4.85 7.26 4.75 7.72 4.72 8.39C4.69 9.06 4.68 9.28 4.68 11C4.68 12.71 4.69 12.93 4.72 13.6C4.75 14.27 4.85 14.73 5.01 15.13C5.17 15.55 5.42 15.94 5.74 16.25C6.05 16.57 6.44 16.82 6.86 16.98C7.26 17.14 7.72 17.24 8.39 17.27C9.06 17.3 9.28 17.31 11 17.31C12.71 17.31 12.93 17.3 13.6 17.27C14.27 17.24 14.73 17.14 15.13 16.98C15.98 16.65 16.65 15.98 16.98 15.13ZM15.92 7.27C15.82 7 15.66 6.75 15.45 6.54C15.24 6.33 14.99 6.17 14.72 6.07C14.5 5.98 14.16 5.88 13.55 5.85C12.88 5.82 12.68 5.82 11 5.82C9.31 5.82 9.11 5.82 8.44 5.85C7.83 5.88 7.49 5.98 7.27 6.07C7 6.17 6.75 6.33 6.54 6.54C6.33 6.75 6.17 7 6.07 7.27C5.98 7.49 5.88 7.83 5.85 8.44C5.82 9.11 5.82 9.31 5.82 11C5.82 12.68 5.82 12.88 5.85 13.55C5.88 14.16 5.98 14.5 6.07 14.72C6.17 14.99 6.33 15.24 6.54 15.45C6.75 15.66 7 15.82 7.27 15.92C7.49 16.01 7.83 16.11 8.44 16.14C9.11 16.17 9.31 16.17 10.99 16.17C12.68 16.17 12.88 16.17 13.55 16.14C14.16 16.11 14.5 16.01 14.72 15.92C15.27 15.71 15.71 15.27 15.92 14.72C16.01 14.5 16.11 14.16 16.14 13.55C16.17 12.88 16.17 12.68 16.17 11C16.17 9.31 16.17 9.11 16.14 8.44C16.11 7.83 16.01 7.49 15.92 7.27ZM14.37 8.38C13.95 8.38 13.61 8.04 13.61 7.62C13.61 7.2 13.95 6.87 14.37 6.87C14.79 6.87 15.12 7.2 15.12 7.62C15.12 8.04 14.79 8.38 14.37 8.38ZM11 14.24C9.2 14.24 7.75 12.79 7.75 11C7.75 9.2 9.2 7.75 11 7.75C12.79 7.75 14.24 9.2 14.24 11C14.24 12.79 12.79 14.24 11 14.24ZM13.1 11C13.1 12.16 12.16 13.1 11 13.1C9.83 13.1 8.89 12.16 8.89 11C8.89 9.83 9.83 8.89 11 8.89C12.16 8.89 13.1 9.83 13.1 11Z" fill="#1A212F" fill-opacity="1.000000" fill-rule="evenodd"/>
</svg>
