<svg width="22.000000" height="22.000000" viewBox="0 0 22 22" fill="none" xmlns="http://www.w3.org/2000/svg" xmlns:xlink="http://www.w3.org/1999/xlink">
	<desc>
			Created with Pixso.
	</desc>
	<defs/>
	<path d="M22 11C22 17.07 17.07 22 11 22C4.92 22 0 17.07 0 11C0 4.92 4.92 0 11 0C17.07 0 22 4.92 22 11Z" fill="#1A212F" fill-opacity="1.000000" fill-rule="evenodd"/>
	<path d="M10.58 15.82L11.44 15.82C11.44 15.82 11.7 15.79 11.84 15.65C11.96 15.52 11.96 15.27 11.96 15.27C11.96 15.27 11.94 14.11 12.48 13.94C13.01 13.77 13.69 15.06 14.41 15.55C14.95 15.93 15.37 15.85 15.37 15.85L17.3 15.82C17.3 15.82 18.31 15.76 17.83 14.96C17.79 14.9 17.55 14.38 16.39 13.3C15.18 12.18 15.35 12.36 16.8 10.42C17.69 9.24 18.05 8.52 17.93 8.21C17.83 7.91 17.18 7.99 17.18 7.99L15 8C15 8 14.84 7.98 14.72 8.05C14.61 8.12 14.53 8.29 14.53 8.29C14.53 8.29 14.19 9.2 13.73 9.98C12.76 11.62 12.38 11.71 12.22 11.61C11.85 11.37 11.94 10.65 11.94 10.14C11.94 8.55 12.18 7.89 11.47 7.72C11.24 7.66 11.06 7.62 10.46 7.62C9.68 7.61 9.03 7.62 8.66 7.8C8.41 7.92 8.22 8.19 8.33 8.21C8.48 8.23 8.8 8.29 8.98 8.53C9.2 8.83 9.19 9.51 9.19 9.51C9.19 9.51 9.32 11.38 8.89 11.62C8.6 11.78 8.2 11.45 7.34 9.96C6.89 9.2 6.56 8.35 6.56 8.35C6.56 8.35 6.5 8.2 6.38 8.11C6.24 8.01 6.05 7.98 6.05 7.98L3.98 7.99C3.98 7.99 3.67 8 3.56 8.13C3.46 8.25 3.55 8.5 3.55 8.5C3.55 8.5 5.17 12.28 7 14.19C8.67 15.93 10.58 15.82 10.58 15.82Z" fill="#FFFDFB" fill-opacity="1.000000" fill-rule="evenodd"/>
</svg>
