<?xml version="1.0" encoding="utf-8"?><svg xmlns="http://www.w3.org/2000/svg" xmlns:xlink="http://www.w3.org/1999/xlink"><symbol viewBox="0 0 41 41" id="arrow" xmlns="http://www.w3.org/2000/svg"><path d="M12.75 27.27v.02c-.73.42-1.63.18-2.05-.54-.42-.73-.18-1.63.55-2.05h.02l1.48 2.57zm14.73-10.21l-10.14-2.72a1.481 1.481 0 01-1.06-1.84c.21-.81 1.02-1.28 1.83-1.06l11.59 3.11c.81.21 1.28 1.02 1.06 1.83l-3.1 11.59c-.22.82-1.03 1.28-1.84 1.07a1.489 1.489 0 01-1.06-1.84l2.72-10.14z"/><path d="M25.43 16.51l-8.09-2.17a1.481 1.481 0 01-1.06-1.84c.21-.81 1.02-1.28 1.83-1.06l11.59 3.11c.81.21 1.28 1.02 1.06 1.83l-3.1 11.59c-.22.82-1.03 1.28-1.84 1.07a1.489 1.489 0 01-1.06-1.84l2.17-8.1-14.18 8.19c-.73.42-1.63.18-2.05-.54-.42-.73-.18-1.63.55-2.05l14.18-8.19z" fill-rule="evenodd"/></symbol><symbol viewBox="0 0 23.006 19.982" id="arrow-left" xmlns="http://www.w3.org/2000/svg"><path d="M5.12 11.49l5.93 5.92c.59.59.59 1.53 0 2.12-.6.6-1.53.6-2.13 0L.44 11.05a1.49 1.49 0 010-2.12L8.92.44c.6-.59 1.53-.59 2.13 0 .59.59.59 1.53 0 2.12L5.12 8.49H21.5c.84 0 1.5.66 1.5 1.5s-.66 1.5-1.5 1.5H5.12z" fill-rule="evenodd"/></symbol><symbol viewBox="0 0 23.006 19.982" id="arrow-right" xmlns="http://www.w3.org/2000/svg"><path d="M17.87 8.49l-5.92-5.93c-.6-.59-.6-1.53 0-2.12a1.49 1.49 0 012.12 0l8.49 8.49c.59.59.59 1.52 0 2.12l-8.49 8.48c-.59.6-1.53.6-2.12 0-.6-.59-.6-1.53 0-2.12l5.92-5.92H1.5c-.84 0-1.5-.66-1.5-1.5s.66-1.5 1.5-1.5h16.37z" fill-rule="evenodd"/></symbol><symbol viewBox="0 0 310 310" id="facebook" xmlns="http://www.w3.org/2000/svg"><path d="M81.703 165.106h33.981V305a5 5 0 005 5H178.3a5 5 0 005-5V165.765h39.064a5 5 0 004.967-4.429l5.933-51.502a5 5 0 00-4.966-5.572h-44.996V71.978c0-9.732 5.24-14.667 15.576-14.667h29.42a5 5 0 005-5V5.037a5 5 0 00-5-5h-40.545A39.746 39.746 0 00185.896 0c-7.035 0-31.488 1.381-50.804 19.151-21.402 19.692-18.427 43.27-17.716 47.358v37.752H81.703a5 5 0 00-5 5v50.844a5 5 0 005 5.001z"/></symbol><symbol viewBox="0 0 15 15" id="in" xmlns="http://www.w3.org/2000/svg"><path d="M1.82 3.6C.79 3.6 0 2.81 0 1.82 0 .84.79 0 1.82 0c.98 0 1.77.84 1.77 1.82 0 .99-.79 1.78-1.77 1.78zM11.86 15H15V9.51c0-2.67-.61-4.78-3.74-4.78-1.5 0-2.53.84-2.95 1.64h-.04V5.01H5.32V15h3.09v-4.93c0-1.31.23-2.57 1.87-2.57 1.58 0 1.58 1.5 1.58 2.62V15zm-8.5 0H.28V5.01h3.08V15z" fill-rule="evenodd"/></symbol><symbol viewBox="0 0 219.537 36" id="logo" xmlns="http://www.w3.org/2000/svg"><defs><clipPath id="fa"><rect rx="-.5" width="35" height="35" transform="translate(.5 .5)" fill-opacity="0"/></clipPath></defs><g clip-path="url(#fa)"><path d="M17.99 5.53L35.59.34 30.46 18l5.13 17.6-17.6-5.14L.34 35.6 5.53 18 .34.34l17.65 5.19z"/></g><path d="M48.91 31V3h11.12q2.56 0 4.56 1.04 1.26.61 2.17 1.56.56.59.99 1.31 1.16 1.84 1.16 4.44v.52q0 2.49-1.09 4.32l-.1.16q-.54.87-1.25 1.55-.83.79-1.91 1.34-2 1-4.53 1h-6.79V31h-4.33zm71.38-22.4q-.73 0-1.33-.29-.38-.18-.7-.48c-.54-.53-.81-1.21-.81-2.04 0-.82.27-1.49.81-2q.36-.35.8-.54.56-.25 1.23-.25.82 0 1.44.34.33.18.61.45c.53.51.79 1.18.79 2 0 .83-.26 1.51-.79 2.04q-.24.23-.51.38-.66.39-1.54.39zm28.56 0q-.73 0-1.33-.29-.38-.18-.71-.48c-.53-.53-.8-1.21-.8-2.04 0-.82.27-1.49.8-2q.37-.35.81-.54.56-.25 1.23-.25c.83 0 1.51.26 2.04.79.53.51.8 1.18.8 2 0 .83-.27 1.51-.8 2.04-.53.51-1.21.77-2.04.77zm-13 22.4c-1.2 0-2.16-.36-2.88-1.09-.69-.71-1.04-1.67-1.04-2.87V14.75h-5.44v-3.48h5.44V4.75h4.12v6.52h5.88v3.48h-5.88v11.56c0 .81.37 1.21 1.12 1.21h4.12V31h-5.44zM53.24 16.31h6.35q2.1 0 3.41-1 .12-.1.24-.19.41-.37.69-.81.66-1.02.66-2.48v-.4q0-1.53-.71-2.58-.27-.4-.64-.73-.12-.1-.24-.19-1.31-1.02-3.41-1.02h-6.35v9.4zm28.59 15.25c-1.97 0-3.73-.4-5.28-1.21-1.52-.82-2.72-2-3.6-3.52-.88-1.52-1.32-3.31-1.32-5.4v-.6c0-2.08.44-3.86 1.32-5.35q.73-1.26 1.75-2.2.83-.77 1.85-1.32c1.55-.83 3.31-1.24 5.28-1.24 1.97 0 3.73.41 5.28 1.24q1.15.61 2.05 1.48.92.88 1.59 2.04c.88 1.49 1.32 3.27 1.32 5.35v.6c0 2.09-.44 3.88-1.32 5.4q-.67 1.16-1.59 2.04-.9.87-2.05 1.48c-1.55.81-3.31 1.21-5.28 1.21zm23.45 0c-2.51 0-4.59-.56-6.24-1.69-1.65-1.12-2.67-2.81-3.04-5.08l3.84-.92c.21 1.1.57 1.96 1.08 2.61.51.64 1.13 1.09 1.88 1.35.77.27 1.6.41 2.48.41 1.31 0 2.31-.26 3-.76.72-.51 1.08-1.17 1.08-1.96 0-.8-.33-1.39-1-1.77-.67-.37-1.65-.67-2.96-.92l-1.36-.23c-1.33-.25-2.55-.59-3.64-1.04-1.09-.46-1.96-1.08-2.6-1.88q-.07-.1-.14-.19-.82-1.16-.82-2.89c0-1.87.69-3.31 2.08-4.33q2.08-1.55 5.52-1.55 3.32 0 5.44 1.52 1.05.71 1.74 1.68.73 1.04 1.06 2.35l-3.84 1.08c-.24-1.19-.75-2.04-1.52-2.52q-1.16-.75-2.88-.75c-1.12 0-2 .21-2.64.64-.64.4-.96.97-.96 1.71 0 .81.31 1.39.92 1.77.64.37 1.49.65 2.56.84l1.4.23c1.41.25 2.71.58 3.88 1 1.17.43 2.09 1.04 2.76 1.85.69.79 1.04 1.86 1.04 3.19 0 1.98-.73 3.51-2.2 4.6-1.47 1.1-3.44 1.65-5.92 1.65zm106.13 0c-2.5 0-4.58-.56-6.24-1.69q-.7-.47-1.24-1.08-1.4-1.55-1.8-4l3.84-.92c.21 1.1.58 1.96 1.08 2.61.51.64 1.13 1.09 1.88 1.35.78.27 1.6.41 2.48.41 1.31 0 2.31-.26 3-.76q.66-.47.92-1.1.16-.4.16-.86c0-.8-.33-1.39-1-1.77-.66-.37-1.65-.67-2.96-.92l-1.36-.23c-1.33-.25-2.54-.59-3.64-1.04-1.09-.46-1.96-1.08-2.6-1.88-.64-.81-.96-1.83-.96-3.08 0-1.87.7-3.31 2.08-4.33 1.39-1.03 3.23-1.55 5.52-1.55 2.22 0 4.03.5 5.44 1.52q1.05.71 1.74 1.68.73 1.04 1.06 2.35l-3.84 1.08c-.24-1.19-.74-2.04-1.52-2.52-.77-.5-1.73-.75-2.88-.75-1.12 0-2 .21-2.64.64-.64.4-.96.97-.96 1.71 0 .81.31 1.39.92 1.77.64.37 1.5.65 2.56.84l1.4.23c1.42.25 2.71.58 3.88 1 1.18.43 2.1 1.04 2.76 1.85.69.79 1.04 1.86 1.04 3.19 0 1.98-.73 3.51-2.2 4.6-1.46 1.1-3.44 1.65-5.92 1.65zm-93.2-.56V11.27h4.13V31h-4.13zm28.56 0V11.27h4.12V31h-4.12zm14.79 0l-6.64-19.73h4.36l5.24 16.69h.64l5.24-16.69h4.37L168.12 31h-6.56zm24.76.35c-1.49 0-2.82-.33-4-1-1.17-.66-2.09-1.61-2.76-2.83-.66-1.23-1-2.7-1-4.4V11.27h4.12v11.56q0 2.56 1.28 3.8v.01c.86.79 2.04 1.19 3.56 1.19q1.66 0 2.89-.73.63-.37 1.15-.94c1.04-1.15 1.56-2.79 1.56-4.92v-9.97h4.12V31h-4.04v-2.96h-.64c-.37.79-1.04 1.56-2 2.27-.96.7-2.37 1.04-4.24 1.04zM81.83 27.87q1.9 0 3.3-.84.6-.36 1.1-.87.23-.24.43-.5 1.29-1.68 1.29-4.35v-.35c0-2.06-.56-3.66-1.68-4.8-1.12-1.18-2.6-1.77-4.44-1.77-1.79 0-3.25.59-4.4 1.77q-.17.17-.33.37-1.35 1.66-1.35 4.43v.35q0 2.75 1.33 4.44.17.21.35.41c1.15 1.14 2.61 1.71 4.4 1.71z" fill-rule="evenodd"/></symbol><symbol viewBox="0 0 32 32" id="request" xmlns="http://www.w3.org/2000/svg"><defs><style>.gcls-1{fill:none}</style></defs><path d="M17.74 30L16 29l4-7h6a2 2 0 002-2V8a2 2 0 00-2-2H6a2 2 0 00-2 2v12a2 2 0 002 2h9v2H6a4 4 0 01-4-4V8a4 4 0 014-4h20a4 4 0 014 4v12a4 4 0 01-4 4h-4.84z"/><path d="M17 9h-2v4h-4v2h4v4h2v-4h4v-2h-4V9z"/><path id="g_Transparent_Rectangle_" data-name="&lt;Transparent Rectangle>" class="gcls-1" d="M0 0h32v32H0z"/></symbol><symbol viewBox="0 0 17.613 14.304" id="twitter" xmlns="http://www.w3.org/2000/svg"><path d="M15.82 3.54c.68-.51 1.31-1.13 1.79-1.86-.62.28-1.35.49-2.07.56.76-.45 1.31-1.14 1.59-2-.69.41-1.49.72-2.28.89A3.626 3.626 0 0012.2 0c-2 0-3.62 1.62-3.62 3.61 0 .28.03.56.1.83-3-.17-5.69-1.62-7.48-3.79-.31.52-.48 1.14-.48 1.83 0 1.24.62 2.34 1.62 3-.59-.04-1.17-.18-1.66-.45v.03c0 1.76 1.24 3.21 2.9 3.55-.28.07-.62.14-.93.14-.24 0-.45-.04-.69-.07.45 1.45 1.79 2.48 3.38 2.52a7.3 7.3 0 01-4.48 1.55c-.31 0-.59-.04-.86-.07 1.58 1.03 3.48 1.62 5.54 1.62 6.66 0 10.28-5.48 10.28-10.27v-.49z"/></symbol></svg>