<?xml version="1.0" encoding="utf-8"?><svg xmlns="http://www.w3.org/2000/svg" xmlns:xlink="http://www.w3.org/1999/xlink"><symbol viewBox="0 0 32 32" id="close" xmlns="http://www.w3.org/2000/svg">
    <path d="M7.219 5.781L5.78 7.22 14.563 16 5.78 24.781l1.44 1.439L16 17.437l8.781 8.782 1.438-1.438L17.437 16l8.782-8.781L24.78 5.78 16 14.563z"/>
</symbol><symbol viewBox="0 0 32 32" id="contact" xmlns="http://www.w3.org/2000/svg">
    <path d="M16 5c-3.855 0-7 3.145-7 7 0 2.41 1.23 4.55 3.094 5.813C8.527 19.343 6 22.883 6 27h2c0-4.43 3.57-8 8-8s8 3.57 8 8h2c0-4.117-2.527-7.656-6.094-9.188A7.024 7.024 0 0023 12c0-3.855-3.145-7-7-7zm0 2c2.773 0 5 2.227 5 5s-2.227 5-5 5-5-2.227-5-5 2.227-5 5-5z"/>
</symbol><symbol viewBox="0 0 32 32" id="menu" xmlns="http://www.w3.org/2000/svg">
    <path d="M3 11v2h26v-2H3zm0 8v2h26v-2H3z"/>
</symbol><symbol viewBox="0 0 32 32" id="theme" xmlns="http://www.w3.org/2000/svg">
    <path d="M11.3 3.3L9.9 4.7l1.8 1.8-6.9 6.9a3.017 3.017 0 000 4.3l.1.1 6.3 6.3c1.2 1.2 3.1 1.2 4.3 0l7.6-7.6.7-.7-9.7-9.7-.8-.8-.2-.2-1.8-1.8zm1.8 4.6l7.9 7.9-2.2 2.2H7.899L6.2 16.3c-.4-.4-.4-1.1 0-1.5l6.9-6.9zM25 19.3l-.8 1.2s-.5.8-1.1 1.7c-.3.5-.5.9-.7 1.4-.2.5-.4.8-.4 1.4 0 1.6 1.4 3 3 3s3-1.4 3-3c0-.6-.2-1-.4-1.5s-.5-1-.7-1.4c-.5-.9-1.1-1.7-1.1-1.7l-.8-1.1z"/>
</symbol></svg>